<svg aria-hidden="true" style="width:0;height:0;position:absolute;overflow:hidden" xmlns="http://www.w3.org/2000/svg"><defs><symbol id="icon-Arrow-left" viewBox="0 0 32 32"><path fill="#ddd" style="fill:var(--color1,#ddd)" d="M20.367 7.033a1.259 1.259 0 0 0-.891-.367l-.045.001h.002l-.042-.001c-.348 0-.663.14-.891.367L11.033 14.5a1.171 1.171 0 0 0-.283.433 1.496 1.496 0 0 0 .004 1.011l-.003-.011c.065.17.161.314.282.433l7.467 7.467c.235.235.559.382.917.384a1.231 1.231 0 0 0 .949-.384v-.001c.227-.228.367-.543.367-.891l-.001-.045v.002l.001-.042c0-.348-.14-.663-.367-.891l-6.5-6.533 6.5-6.533a1.3 1.3 0 0 0 .384-.916 1.238 1.238 0 0 0-.384-.95z"/></symbol><symbol id="icon-ArrowDown" viewBox="0 0 32 32"><path fill="#ddd" style="fill:var(--color1,#ddd)" d="M23.633 11.633c.227.228.367.543.367.891l-.001.045v-.002l.001.042c0 .348-.14.662-.367.891l-7.467 7.467a1.171 1.171 0 0 1-.433.283 1.52 1.52 0 0 1-1.011-.003l.011.003a1.204 1.204 0 0 1-.433-.282l-7.467-7.467a1.304 1.304 0 0 1-.384-.917l-.001-.054c0-.352.148-.67.385-.895l.001-.001a1.259 1.259 0 0 1 .936-.366h-.002l.041-.001c.348 0 .663.14.892.367l6.533 6.5 6.533-6.5a1.3 1.3 0 0 1 .916-.384l.052-.001c.353 0 .672.148.898.385v.001z"/></symbol><symbol id="icon-ArrowRight" viewBox="0 0 32 32"><path fill="#ddd" style="fill:var(--color1,#ddd)" d="M11.633 7.033a1.259 1.259 0 0 1 .936-.366h-.002l.041-.001c.348 0 .663.14.892.367l7.467 7.467c.133.133.227.277.283.433a1.52 1.52 0 0 1-.003 1.011l.003-.011c-.065.17-.161.314-.282.433l-7.467 7.467a1.304 1.304 0 0 1-.917.384l-.054.001c-.352 0-.67-.148-.895-.385l-.001-.001a1.259 1.259 0 0 1-.367-.891l.001-.045v.002l-.001-.041c0-.348.14-.663.367-.892l6.5-6.533-6.5-6.533a1.3 1.3 0 0 1-.384-.916l-.001-.052c0-.353.148-.672.385-.898h.001z"/></symbol><symbol id="icon-ArrowUp" viewBox="0 0 32 32"><path fill="#ddd" style="fill:var(--color1,#ddd)" d="M7.033 20.367a1.259 1.259 0 0 1-.367-.891l.001-.045v.002l-.001-.041c0-.348.14-.663.367-.892l7.467-7.467c.133-.133.277-.227.433-.283a1.496 1.496 0 0 1 1.011.004l-.011-.003c.17.065.314.161.433.282l7.467 7.467c.235.235.382.559.384.917a1.231 1.231 0 0 1-.384.949h-.001a1.259 1.259 0 0 1-.891.367l-.045-.001h.002l-.042.001c-.348 0-.663-.14-.891-.367l-6.533-6.5-6.533 6.5a1.3 1.3 0 0 1-.916.384 1.238 1.238 0 0 1-.95-.384z"/></symbol><symbol id="icon-Basket" viewBox="0 0 32 32"><path fill="#ddd" style="fill:var(--color1,#ddd)" d="M6.667 28H6.66a1.67 1.67 0 0 1-1.031-.354l.004.003a1.731 1.731 0 0 1-.63-.904L5 26.733 1.268 13.266a.853.853 0 0 1 .151-.868l-.001.001c.212-.267.495-.4.849-.4H9l5.867-8.733c.117-.182.274-.329.46-.43l.007-.003a1.285 1.285 0 0 1 1.273.003l-.006-.003c.192.104.35.251.464.428l.003.005 5.867 8.733h6.8c.356 0 .64.133.851.4a.85.85 0 0 1 .149.867l-3.733 13.467a1.736 1.736 0 0 1-.629.914l-.005.003c-.28.218-.636.349-1.023.349H6.668zm.666-2.667h17.333l2.933-10.667h-23.2l2.933 10.667zM16 22.667c.733 0 1.36-.261 1.883-.784s.784-1.151.783-1.883c0-.733-.261-1.361-.784-1.884a2.556 2.556 0 0 0-1.844-.783h-.039.002a2.57 2.57 0 0 0-1.884.784 2.556 2.556 0 0 0-.783 1.844v.041V20c0 .733.261 1.361.784 1.884s1.151.784 1.883.783zM12.231 12h7.503l-3.767-5.6-3.733 5.6z"/></symbol><symbol id="icon-Cross" viewBox="0 0 32 32"><path fill="#ddd" style="fill:var(--color1,#ddd)" d="M16 17.867 9.467 24.4a1.259 1.259 0 0 1-.891.367l-.045-.001h.002l-.042.001A1.26 1.26 0 0 1 7.6 24.4a1.261 1.261 0 0 1-.366-.89l.001-.046v.002c0-.377.121-.689.367-.933L14.135 16 7.602 9.467a1.259 1.259 0 0 1-.367-.891l.001-.045v.002c0-.377.121-.689.367-.933a1.259 1.259 0 0 1 .936-.366h-.002c.377 0 .688.123.933.367l6.533 6.533 6.533-6.533a1.259 1.259 0 0 1 .936-.366h-.002c.377 0 .688.123.933.367.227.228.367.543.367.891l-.001.045v-.002l.001.042c0 .348-.14.662-.367.891l-6.535 6.533 6.533 6.533c.227.228.367.543.367.891l-.001.045v-.002l.001.042c0 .348-.14.663-.367.891a1.262 1.262 0 0 1-.891.367l-.044-.001h.002l-.042.001c-.348 0-.663-.14-.891-.367l-6.533-6.533z"/></symbol><symbol id="icon-Downward" viewBox="0 0 32 32"><path fill="#ddd" style="fill:var(--color1,#ddd)" d="M14.667 18.9V9.304c0-.361.148-.687.386-.921.233-.237.557-.383.915-.383h.034H16h.031c.36 0 .685.147.92.384.256.256.383.573.383.949V18.9l3.867-3.833c.235-.235.559-.382.917-.384l.054-.001c.352 0 .67.148.895.385v.001c.227.228.367.543.367.891l-.001.045v-.002l.001.042c0 .348-.14.663-.367.891l-6.133 6.133a1.28 1.28 0 0 1-.933.4h-.004c-.366 0-.696-.153-.929-.399l-.001-.001-6.133-6.133a1.3 1.3 0 0 1-.384-.916l-.001-.052c0-.353.148-.672.385-.898h.001a1.259 1.259 0 0 1 .936-.366h-.002c.377 0 .688.123.933.367l3.867 3.833z"/></symbol><symbol id="icon-Favorite" viewBox="0 0 32 32"><path fill="#ddd" style="fill:var(--color1,#ddd)" d="m14.2 26.4-2.3-2.1a91.998 91.998 0 0 1-6.313-6.338l-.071-.08c-1.9-2.123-2.851-4.461-2.849-7.016 0-2.089.7-3.833 2.1-5.233s3.144-2.1 5.233-2.1h.036c1.199 0 2.333.277 3.342.769l-.045-.02A7.94 7.94 0 0 1 16 6.333a7.978 7.978 0 0 1 2.619-2.03l.048-.021a7.49 7.49 0 0 1 3.291-.749h.044H22c2.089 0 3.833.7 5.233 2.1s2.1 3.144 2.1 5.233c0 2.556-.944 4.9-2.833 7.033a80.569 80.569 0 0 1-6.357 6.366l-.076.067-2.267 2.067a2.514 2.514 0 0 1-1.777.733h-.024H16h-.023c-.694 0-1.322-.28-1.777-.734zM14.733 9c-.644-.911-1.333-1.605-2.067-2.084s-1.623-.717-2.667-.716c-1.333 0-2.444.444-3.333 1.333s-1.333 2-1.333 3.333c0 1.156.411 2.384 1.233 3.684a25.448 25.448 0 0 0 2.962 3.794l-.011-.012a51.539 51.539 0 0 0 3.479 3.387l.054.047a222.998 222.998 0 0 1 2.949 2.633c.756-.689 1.739-1.567 2.951-2.633s2.389-2.211 3.533-3.433a25.557 25.557 0 0 0 2.889-3.683l.061-.1c.823-1.3 1.233-2.528 1.233-3.684 0-1.333-.444-2.444-1.333-3.333S23.333 6.2 22 6.2c-1.044 0-1.933.239-2.667.716S17.91 8.088 17.266 9a1.518 1.518 0 0 1-1.256.667h-.011H16h-.01c-.521 0-.98-.262-1.253-.662L14.734 9z"/></symbol><symbol id="icon-FavoriteActive" viewBox="0 0 32 32"><path fill="#ddd" style="fill:var(--color1,#ddd)" d="m16 28-1.933-1.733c-2.244-2.023-4.1-3.767-5.567-5.233S5.867 18.25 5 17.083c-.867-1.167-1.472-2.239-1.816-3.216a8.825 8.825 0 0 1-.517-3c0-2.089.7-3.833 2.1-5.233s3.144-2.1 5.233-2.1h.022c1.191 0 2.318.27 3.324.753l-.046-.02a7.979 7.979 0 0 1 2.691 2.055l.009.011a7.946 7.946 0 0 1 2.652-2.046l.048-.02a7.577 7.577 0 0 1 3.278-.733h.023H22c2.089 0 3.833.7 5.233 2.1s2.1 3.144 2.1 5.233a8.972 8.972 0 0 1-.517 3c-.345.977-.951 2.049-1.816 3.216-.867 1.167-2.033 2.484-3.5 3.951s-3.323 3.211-5.567 5.233L16 28z"/></symbol><symbol id="icon-Filter" viewBox="0 0 32 32"><path fill="#ddd" style="fill:var(--color1,#ddd)" d="M14.667 24h-.032c-.36 0-.685-.147-.919-.384a1.279 1.279 0 0 1-.383-.915v-.036.002c0-.377.128-.695.384-.951.233-.237.557-.383.915-.383h.036-.002 2.667c.377 0 .695.128.951.384s.384.573.383.949v.032c0 .36-.147.685-.384.919a1.279 1.279 0 0 1-.915.383h-.036.002-2.667zM5.333 10.667h-.032c-.36 0-.685-.147-.919-.384a1.279 1.279 0 0 1-.383-.915v-.036.002c0-.377.128-.695.384-.951.233-.237.557-.383.915-.383h.036-.002 21.333c.377 0 .695.128.951.384s.384.573.383.949v.032c0 .36-.147.685-.384.919a1.279 1.279 0 0 1-.915.383h-.036.002H5.333zm4 6.666h-.032c-.36 0-.685-.147-.919-.384a1.279 1.279 0 0 1-.383-.915v-.036V16c0-.377.128-.695.384-.951.233-.237.557-.383.915-.383h.036-.002 13.333c.377 0 .695.128.951.384s.384.573.383.949v.032c0 .36-.147.685-.384.919a1.279 1.279 0 0 1-.915.383h-.036.002H9.333z"/></symbol><symbol id="icon-Menu" viewBox="0 0 32 32"><path fill="#ddd" style="fill:var(--color1,#ddd)" d="M10.667 24H5.302c-.36 0-.685-.147-.919-.384A1.279 1.279 0 0 1 4 22.701v-.036.002c0-.377.128-.695.384-.951.233-.237.557-.383.915-.383h.036-.002 5.333c.377 0 .695.128.951.384s.384.573.383.949v.032c0 .36-.147.685-.384.919a1.279 1.279 0 0 1-.915.383h-.036.002zm16-13.333H5.302c-.36 0-.685-.147-.919-.384A1.279 1.279 0 0 1 4 9.368v-.036.002c0-.377.128-.695.384-.951.233-.237.557-.383.915-.383h.036-.002 21.333c.377 0 .695.128.951.384s.384.573.383.949v.032c0 .36-.147.685-.384.919a1.279 1.279 0 0 1-.915.383h-.036.002zm-8 6.666H5.302c-.36 0-.685-.147-.919-.384A1.279 1.279 0 0 1 4 16.034v-.036V16c0-.377.128-.695.384-.951.233-.237.557-.383.915-.383h.036-.002 13.333c.377 0 .695.128.951.384s.384.573.383.949v.032c0 .36-.147.685-.384.919a1.279 1.279 0 0 1-.915.383h-.036.002z"/></symbol><symbol id="icon-More" viewBox="0 0 32 32"><path fill="#ddd" style="fill:var(--color1,#ddd)" d="M8 18.667a2.569 2.569 0 0 1-1.884-.784 2.556 2.556 0 0 1-.783-1.844v-.041V16c0-.733.261-1.361.784-1.884a2.556 2.556 0 0 1 1.844-.783h.041H8c.733 0 1.361.261 1.884.784s.784 1.151.783 1.883c0 .733-.261 1.361-.784 1.884a2.556 2.556 0 0 1-1.844.783h-.041H8zm8 0a2.569 2.569 0 0 1-1.884-.784 2.556 2.556 0 0 1-.783-1.844v-.041V16c0-.733.261-1.361.784-1.884a2.556 2.556 0 0 1 1.844-.783h.041H16c.733 0 1.361.261 1.884.784s.784 1.151.783 1.883c0 .733-.261 1.361-.784 1.884a2.556 2.556 0 0 1-1.844.783h-.041H16zm8 0a2.569 2.569 0 0 1-1.884-.784 2.556 2.556 0 0 1-.783-1.844v-.041V16c0-.733.261-1.361.784-1.884a2.556 2.556 0 0 1 1.844-.783h.041H24c.733 0 1.361.261 1.884.784s.784 1.151.783 1.883c0 .733-.261 1.361-.784 1.884a2.556 2.556 0 0 1-1.844.783h-.041H24z"/></symbol><symbol id="icon-Search" viewBox="0 0 32 32"><path fill="#ddd" style="fill:var(--color1,#ddd)" d="M25.2 27.067 17.733 19.6a8.072 8.072 0 0 1-5.017 1.733h-.052.003c-2.423 0-4.472-.84-6.149-2.517-1.677-1.679-2.516-3.728-2.517-6.149 0-2.423.84-4.472 2.517-6.149 1.679-1.677 3.728-2.516 6.149-2.517 2.423 0 4.472.84 6.149 2.517 1.677 1.679 2.516 3.728 2.517 6.149v.049c0 1.901-.653 3.65-1.747 5.035l.013-.017 7.5 7.5c.227.222.367.532.367.874v.027-.001c0 .356-.133.667-.4.933a1.259 1.259 0 0 1-.891.367l-.045-.001h.002l-.042.001c-.348 0-.663-.14-.891-.367zm-12.533-8.4c1.667 0 3.084-.584 4.251-1.751s1.751-2.584 1.749-4.249c0-1.667-.584-3.084-1.751-4.251s-2.584-1.751-4.249-1.749c-1.667 0-3.084.584-4.251 1.751s-1.751 2.584-1.749 4.249c0 1.667.584 3.084 1.751 4.251s2.584 1.751 4.249 1.749z"/></symbol><symbol id="icon-SortA-Z" viewBox="0 0 29 32"><path fill="#ddd" style="fill:var(--color1,#ddd)" d="M5.76 18.133c-.409 0-.706-.133-.893-.4s-.209-.595-.067-.987l3.067-8.213c.107-.302.311-.556.613-.761s.613-.307.933-.306c.302 0 .609.102.921.306s.519.458.625.761l3.093 8.24c.142.373.119.693-.067.96s-.484.4-.893.4a1.014 1.014 0 0 1-.576-.189l.003.002a.98.98 0 0 1-.385-.473l-.002-.007-.666-1.893H7.359l-.613 1.867a1.046 1.046 0 0 1-.384.492l-.003.002a.995.995 0 0 1-.599.199zM8 13.76h2.773l-1.28-4h-.16L8 13.76zm10.053 4.373h-.012c-.357 0-.679-.148-.908-.387a1.248 1.248 0 0 1-.386-.904v-.016.001c0-.195.045-.422.133-.681s.195-.459.32-.599l4.933-6.16h-4.229a.922.922 0 0 1-.664-.28.918.918 0 0 1-.28-.661v-.019.001-.016c0-.261.107-.496.28-.665a.918.918 0 0 1 .661-.28h5.271c.355 0 .662.129.921.387s.387.574.386.946c0 .195-.039.418-.119.667s-.181.445-.307.587l-4.907 6.16h4.443c.261 0 .496.107.665.28.173.168.28.402.28.661v.019-.001.016a.926.926 0 0 1-.28.665.918.918 0 0 1-.661.28h-5.538zm-5.04-12.8c-.249 0-.418-.107-.507-.32s-.045-.409.133-.587l1.92-1.92c.035-.035.16-.089.373-.16.035 0 .16.053.373.16l1.92 1.92c.178.178.222.373.133.587s-.258.32-.507.32h-3.84zm1.92 17.92c-.035 0-.16-.053-.373-.16l-1.92-1.92c-.178-.178-.222-.373-.133-.587s.258-.32.507-.32h3.84c.249 0 .418.107.507.32s.045.409-.133.587l-1.92 1.92c-.035.035-.16.089-.373.16z"/></symbol><symbol id="icon-Steam" viewBox="0 0 32 32"><path fill="#fff" style="fill:var(--color2,#fff)" d="M15.943 0C7.542 0 .652 6.48 0 14.716l8.576 3.544a4.48 4.48 0 0 1 2.547-.787h.003c.084 0 .167.005.251.008l3.815-5.523v-.079a6.038 6.038 0 0 1 6.032-6.032 6.041 6.041 0 0 1 6.032 6.036 6.04 6.04 0 0 1-6.032 6.033h-.14l-5.435 3.881c0 .069.005.14.005.212v.005a4.523 4.523 0 0 1-4.52 4.523 4.55 4.55 0 0 1-4.436-3.606l-.005-.03-6.14-2.543c1.901 6.716 8.067 11.64 15.391 11.64 8.836 0 15.999-7.164 15.999-16s-7.164-16-15.999-16zm-5.919 24.28-1.964-.813a3.4 3.4 0 0 0 1.752 1.667 3.4 3.4 0 0 0 4.441-4.455l.008.022a3.402 3.402 0 0 0-4.363-1.876l.023-.008 2.031.84a2.504 2.504 0 1 1-1.944 4.616l.016.006zm15.22-12.404a4.027 4.027 0 0 0-4.02-4.02 4.02 4.02 0 1 0 4.02 4.02zm-7.031-.007-.001-.063a3.02 3.02 0 1 1 6.042 0l-.001.067v-.003a3.022 3.022 0 0 1-6.042.003v-.003z"/></symbol><symbol id="icon-onfirm" viewBox="0 0 32 32"><path fill="#ddd" style="fill:var(--color1,#ddd)" d="M15.067 19.733c.267.267.577.4.933.4s.667-.133.933-.4l4.133-4.133a1.202 1.202 0 0 0 .349-.937v.004-.001c0-.364-.146-.693-.383-.933a1.276 1.276 0 0 0-.93-.4h-.004c-.356 0-.667.133-.933.4L15.998 16.9l-3.2-3.2a1.21 1.21 0 0 0-.937-.35h.004-.004c-.363 0-.691.147-.93.384-.267.267-.4.577-.4.933s.133.667.4.933l4.133 4.133zm.933 9.6h-.084a12.93 12.93 0 0 1-5.199-1.084l.083.033a13.549 13.549 0 0 1-4.234-2.85l.001.001A13.463 13.463 0 0 1 3.718 21.2c-.664-1.51-1.051-3.271-1.051-5.122v-.082V16v-.082c0-1.85.387-3.609 1.083-5.201l-.033.084a13.549 13.549 0 0 1 2.85-4.234l-.001.001c1.2-1.2 2.611-2.149 4.233-2.849 1.51-.664 3.271-1.051 5.122-1.051h.082-.004.082c1.85 0 3.609.387 5.201 1.083l-.084-.033a13.549 13.549 0 0 1 4.234 2.85l-.001-.001c1.2 1.2 2.151 2.611 2.851 4.233.663 1.506 1.05 3.263 1.05 5.109v.096V16v.084a12.93 12.93 0 0 1-1.084 5.199l.033-.083a13.549 13.549 0 0 1-2.85 4.234l.001-.001a13.468 13.468 0 0 1-4.233 2.851c-1.506.663-3.263 1.05-5.109 1.05h-.096.005zm0-2.666c2.956 0 5.472-1.039 7.551-3.116s3.117-4.595 3.116-7.551c0-2.956-1.039-5.472-3.116-7.551S18.956 5.332 16 5.333c-2.956 0-5.472 1.039-7.551 3.116S5.332 13.044 5.333 16c0 2.956 1.039 5.472 3.116 7.551s4.595 3.117 7.551 3.116z"/></symbol><symbol id="icon-onfirmactive" viewBox="0 0 30 32"><path fill="#ddd" style="fill:var(--color1,#ddd)" d="M14.187 15.787c.183.182.435.294.713.294l.036-.001h-.002l.034.001c.278 0 .53-.112.713-.294l3.307-3.307a.993.993 0 0 0 .294-.705v-.029.001c0-.293-.107-.546-.32-.761a1.008 1.008 0 0 0-.749-.293h.002l-.034-.001c-.278 0-.53.112-.713.294l-2.533 2.533-2.56-2.56a.993.993 0 0 0-.705-.294h-.029.001c-.293 0-.546.107-.761.32a1.008 1.008 0 0 0-.293.749v-.002l-.001.033c0 .278.112.531.294.714l3.307 3.307zm.746 7.68h-.067c-1.479 0-2.886-.309-4.159-.867l.067.026a10.84 10.84 0 0 1-3.387-2.28 10.768 10.768 0 0 1-2.279-3.387 10.243 10.243 0 0 1-.841-4.097v-.066.003-.066c0-1.48.309-2.887.867-4.161l-.026.067a10.84 10.84 0 0 1 2.28-3.387c.96-.96 2.089-1.719 3.387-2.279a10.243 10.243 0 0 1 4.097-.841h.066-.003.066c1.48 0 2.887.309 4.161.867l-.067-.026a10.84 10.84 0 0 1 3.387 2.28c.96.96 1.721 2.089 2.281 3.387.531 1.205.84 2.61.84 4.087v.076-.004.067c0 1.479-.309 2.886-.867 4.159l.026-.067a10.84 10.84 0 0 1-2.28 3.387c-.96.96-2.089 1.721-3.387 2.281-1.205.531-2.61.84-4.087.84h-.076.004z"/></symbol></defs></svg>