<svg width="385" height="670" fill="none" xmlns="http://www.w3.org/2000/svg"><path style="mix-blend-mode:screen" opacity=".33" d="M339.99 270.778s7.431 16.102 2.389 26.401c-5.042 10.298-14.066-5.499-25.486-14.303-11.419-8.804-26.007-26.95-8.226-34.955 17.782-8.005 26.539 11.203 26.539 11.203-1.59-16.815-20.17-30.948-26.539-38.687-6.368-7.74-3.991-20.279 9.025-30.152 13.016-9.872 14.33-20.01 6.635-36.02s-37.154-36.823-37.154-36.823 13.799 27.216 1.327 41.367c-12.473 14.151-63.96 37.607-71.655 24.005-7.695-13.601 13.268-26.95 13.268-26.95s-41.401 9.879-41.146 1.602c.255-8.276 26.275-16.809 42.988-20.013 16.713-3.205 6.369 13.611 6.369 13.611s19.375-3.205 28.396-18.946c9.022-15.741-5.306-48.297-19.903-49.365-14.598-1.069-36.095.802-45.383-3.467-9.289-4.27-1.594-14.41 5.306-10.941 6.899 3.47 23.622 9.073 35.83 5.338 12.209-3.736 5.328-31.22 5.328-31.22-10.087 18.924-23.091 14.676-36.362 7.202s-37.154 17.346-36.89 29.636c.264 12.29 10.882 18.143 27.07 14.942 16.188-3.202 22.824 0 20.392 8.804-2.432 8.804-51.444 13.892-78.514 16.278-27.071 2.387-48.303 7.205-50.631 24.814-2.328 17.609 28.071 39.743 32.054 44.013 3.982 4.269-1.861 23.749-15.66 34.421-13.8 10.672-16.394 22.412-16.394 22.412s21.436-9.07 26.213 4.155c4.778 13.225-22.823 47.606-30.785 62.606-7.962 15.001-9.025-.586-17.518-19.263-8.493-18.677 10.615-33.621 10.615-33.621S49.647 277.004 49.647 298.7c0 21.697 11.668 53.018 27.6 64.758 15.934 11.741 41.404 16.544 54.144 29.365 12.74 12.82-1.062 54.422-21.764 73.577-20.702 19.156-14.862 41.676-3.715 46.483 11.146 4.806 20.855 37.397 11.634 51.733l208.184-30.439s-5.904-41.305 6.384-52.245c12.289-10.941-3-10.142 11.054-26.793 14.054-16.652-3.184-22.036-6.632-34.844-3.449-12.809 9.826-37.092 26.275-56.837 16.449-19.745 13.267-35.754 6.368-51.712-6.9-15.957-29.189-40.968-29.189-40.968ZM100.599 334.1c-3.657-5.557 14.331-23.125 20.699-17.075 6.369 6.051-13.799 27.571-20.699 17.075Zm72.721-147.106c-11.325 7.1-26.364-7.292-42.819-21.878-16.456-14.587-5.484-15.476 15.214-10.496 20.699 4.979 34.145 28.265 27.605 32.374Z" fill="url('#paint0_linear_37_961')"/><path style="mix-blend-mode:screen" opacity=".33" d="M339.99 270.778s7.431 16.102 2.389 26.401c-5.042 10.298-14.066-5.499-25.486-14.303-11.419-8.804-26.007-26.95-8.226-34.955 17.782-8.005 26.539 11.203 26.539 11.203-1.59-16.815-20.17-30.948-26.539-38.687-6.368-7.74-3.991-20.279 9.025-30.152 13.016-9.872 14.33-20.01 6.635-36.02s-37.154-36.823-37.154-36.823 13.799 27.216 1.327 41.367c-12.473 14.151-63.96 37.607-71.655 24.005-7.695-13.601 13.268-26.95 13.268-26.95s-41.401 9.879-41.146 1.602c.255-8.276 26.275-16.809 42.988-20.013 16.713-3.205 6.369 13.611 6.369 13.611s19.375-3.205 28.396-18.946c9.022-15.741-5.306-48.297-19.903-49.365-14.598-1.069-36.095.802-45.383-3.467-9.289-4.27-1.594-14.41 5.306-10.941 6.899 3.47 23.622 9.073 35.83 5.338 12.209-3.736 5.328-31.22 5.328-31.22-10.087 18.924-23.091 14.676-36.362 7.202s-37.154 17.346-36.89 29.636c.264 12.29 10.882 18.143 27.07 14.942 16.188-3.202 22.824 0 20.392 8.804-2.432 8.804-51.444 13.892-78.514 16.278-27.071 2.387-48.303 7.205-50.631 24.814-2.328 17.609 28.071 39.743 32.054 44.013 3.982 4.269-1.861 23.749-15.66 34.421-13.8 10.672-16.394 22.412-16.394 22.412s21.436-9.07 26.213 4.155c4.778 13.225-22.823 47.606-30.785 62.606-7.962 15.001-9.025-.586-17.518-19.263-8.493-18.677 10.615-33.621 10.615-33.621S49.647 277.004 49.647 298.7c0 21.697 11.668 53.018 27.6 64.758 15.934 11.741 41.404 16.544 54.144 29.365 12.74 12.82-1.062 54.422-21.764 73.577-20.702 19.156-14.862 41.676-3.715 46.483 11.146 4.806 20.855 37.397 11.634 51.733l208.184-30.439s-5.904-41.305 6.384-52.245c12.289-10.941-3-10.142 11.054-26.793 14.054-16.652-3.184-22.036-6.632-34.844-3.449-12.809 9.826-37.092 26.275-56.837 16.449-19.745 13.267-35.754 6.368-51.712-6.9-15.957-29.189-40.968-29.189-40.968ZM100.599 334.1c-3.657-5.557 14.331-23.125 20.699-17.075 6.369 6.051-13.799 27.571-20.699 17.075Zm72.721-147.106c-11.325 7.1-26.364-7.292-42.819-21.878-16.456-14.587-5.484-15.476 15.214-10.496 20.699 4.979 34.145 28.265 27.605 32.374Z" fill="url('#paint1_linear_37_961')"/><path d="M245.044 259.272s-1.075-2.763.949-.284c2.023 2.479 3.227 2.47 2.149-9.496l5.57 2.874s-1.372 14.51-1.784 15.954c-.411 1.445-81.916 262.891-81.916 262.891l-30.224-17.597-1.188-6.946s8.13 1.877 11.223 2.223c3.092.346 5.775.543 1.366-1.886-4.409-2.43 2.334-20.415 5.192-19.758 2.859.658-3.909-26.163-3.909-26.163l54.442-87.018 38.13-114.794Z" fill="url('#paint2_linear_37_961')"/><mask id="mask0_37_961" style="mask-type:luminance" maskUnits="userSpaceOnUse" x="112" y="249" width="221" height="373"><path d="M314.503 487.902c-6.184-5.387-7.833-43.102-21.024-118.112-13.191-75.01-19.511-112.037-33.251-118.668-2.764-1.333-7.557-2.624-12.098-1.63l2.456 3.43c.759 4.967.921 9.57-1.228 9.24-2.601-.405-5.466-6.644-7.443-11.904-13.471 2.21-29.978 8.15-43.369 10.666l-13.612-6.14h-5.772v10.409c-9.089 3.529-13.204 8.78-18.424 15.216 0 0-17.312 20.993-13.203 27.213 4.108 6.221 23.929 49.323 23.929 49.323-2.061 32.605-10.195 71.422-18.992 104.149l2.076.744c3.479 11.894 7.084 25.829 4.962 26.067-2.122.238-8.312-2.726-13.299-5.334a1039.142 1039.142 0 0 1-5.834 18.71c29.923 15.065 14.051 11.315.866 7.823l-2.644-2.436c-13.538 40.772-26.495 71.158-26.495 71.158l116.656 29.018s7.834 7.875 12.369 10.777c4.535 2.902 21.435 6.215 47.403 0 16.79-4.013 30.307-13.929 37.768-20.433a16.91 16.91 0 0 0 4.591-6.462 17 17 0 0 0 1.151-7.856c-2.641-29.587-11.944-90.094-17.539-94.968Z" fill="#fff"/></mask><g mask="url('#mask0_37_961')"><path d="M332.039 582.87c-2.638-29.593-11.941-90.094-17.536-94.968-6.184-5.387-7.833-43.102-21.024-118.112-13.191-75.01-19.511-112.037-33.251-118.668-12.838-6.192-40.986 5.918-61.66 9.814l-13.612-6.14h-5.773v10.41c-9.089 3.528-13.203 8.779-18.423 15.216 0 0-17.312 20.992-13.204 27.213 4.109 6.22 23.908 49.31 23.908 49.31-6.184 97.805-59.36 220.893-59.36 220.893l116.657 29.019s7.833 7.875 12.368 10.777c4.535 2.902 21.435 6.214 47.403 0 16.79-4.014 30.307-13.929 37.768-20.434a16.913 16.913 0 0 0 4.592-6.468 16.997 16.997 0 0 0 1.147-7.862Z" fill="url('#paint3_linear_37_961')"/><path d="M147.556 307.622c4.121 6.218 23.908 49.319 23.908 49.319-6.184 97.806-59.36 220.894-59.36 220.894l116.656 29.019s7.834 7.875 12.369 10.777c4.535 2.902 21.435 6.214 47.403 0 16.79-4.014 30.307-13.929 37.768-20.434a16.91 16.91 0 0 0 4.591-6.462 16.996 16.996 0 0 0 1.151-7.856c-2.638-29.593-11.941-90.093-17.536-94.968-4.983-4.34-7.025-29.688-14.53-78.609 2.269 22.227 3.777 43.386 3.399 58.302-1.228 48.903 7.422 24.036 7.422 24.036s14.431 39.466 11.128 49.733c-3.304 10.268-11.128 76.251-40.808 71.284-29.68-4.967-54.414-29.018-54.002-31.084.411-2.065 4.535-84.543 3.319-88.29-1.216-3.748-2.082-9.53-3.731-10.361-1.305-.654 2.036-9.094 3.283-13.41.331-1.139 25.092 3.396 25.006 3.05-.086-.346-26.06-8.594-28.35-13.228-10.33-20.872-35.109-77.934-41.146-89.137-7.796-14.438-9.617-22.381 7.422-37.298 17.038-14.917 43.97-40.339 43.97-40.339s-39.573 35.641-50.016 31.489c-10.443-4.153-41.17-14.627-38.913-23.462-1.106 2.917-1.453 5.455-.403 7.035Z" fill="#AE2A4C" style="mix-blend-mode:multiply" opacity=".31"/><path d="M223.813 592.755c.415-3.109 4.535-91.995 4.947-97.117.411-5.121-3.433-12.296-4.809-13.537-1.375-1.241 1.228-13.54.826-14.781-.402-1.241-53.314-110.375-53.314-110.375-1.256 19.859-4.468 40.749-8.76 61.457 0 0 9.997-33.275 12.469-30.377 2.472 2.899 38.336 147.542 31.741 153.342-6.596 5.801-69.251 27.784-74.615 22.382-4.48-4.508-5.481-13.695-1.36-34.739-10.471 29.444-18.838 48.828-18.838 48.828l116.657 29.019c-3.089-3.328-5.355-10.993-4.944-14.102Z" fill="#AE2A4C" style="mix-blend-mode:multiply" opacity=".31"/><path style="mix-blend-mode:screen" opacity=".74" d="M171.463 356.945a343.029 343.029 0 0 1-.654 8.443 155.116 155.116 0 0 1-.307 3.05 370.814 370.814 0 0 1-.559 5.402 428.405 428.405 0 0 1-.454 3.868 509.587 509.587 0 0 1-.569 4.443c-.202 1.515-.405 3.031-.614 4.553-.144 1.016-.307 2.038-.457 3.056-1.431 9.509-3.169 19.088-5.146 28.633-8.469 40.852-21.187 80.882-31.775 110.641-8.456 23.771-15.509 40.923-17.913 46.649l-.126.294c-.141.339-.258.617-.363.861-.061.148-.104.247-.153.361l-.163.383-.11.256 3.07.766c3.921-7.965 8.005-19.356 11.573-28.321 21.887-54.984 37.059-124.987 44.419-163.477a1122.938 1122.938 0 0 0 3.992-21.986c-3.301-6.884-3.691-7.875-3.691-7.875Z" fill="url('#paint4_linear_37_961')"/><path d="M233.705 254.784c-19.372 5.593-33.564 9.739-45.637 10.98-12.074 1.241-19.256 14.093-17.622 25.49 1.633 11.398 8.643 9.323 26.161 0 17.517-9.323 34.215-19.479 35.864-23.832 1.649-4.353-39.368 9.74-39.368 9.74s28.443-12.639 41.017-14.09c12.574-1.451.614 9.117-29.063 27.766-29.677 18.649-39.985 14.299-39.159 0 .826-14.3 8.656-20.73 8.656-20.73s-6.596 4.776-14.84 19.072c-8.245 14.296-5.152 13.892 5.152 20.1 10.305 6.208 20.404 9.533 27 9.326 6.595-.207 59.022-40.558 67.552-49.992a44.102 44.102 0 0 0 3.234-5.208c3.076-9.308-12.39-13.404-28.947-8.622Z" fill="#951631" style="mix-blend-mode:multiply" opacity=".43"/><path d="m184.949 254.784.633 7.356c4.36.107 8.718-.297 12.985-1.204l-13.618-6.152Z" fill="#AE2A4C" style="mix-blend-mode:multiply" opacity=".31"/><path d="M179.176 265.193c1.458-1.5 4.449-3.087 6.405-3.053 1.956.034 9.678.053 12.979-1.216l-13.612-6.14h-5.772v10.409Z" fill="#AE2A4C" style="mix-blend-mode:multiply" opacity=".31"/><path d="M166.718 297.867c-.719-1.92-.98-4.285-.82-7.029.823-14.297 8.656-20.73 8.656-20.73s-6.596 4.776-14.84 19.072c-8.245 14.296-5.152 13.892 5.152 20.1a83.755 83.755 0 0 0 8.549 4.51l-6.697-15.905v-.018ZM261.836 257.593c-3.728-4.958-15.608-6.424-28.13-2.809-10.648 3.087-19.691 5.686-27.718 7.643 20.352-4.05 29.247-1.707 32.41.96.178.103.328.247.439.42.034.037.077.071.111.108 1.971 2.195 5.757 11.768 7.474 16.272 6.107-5.029 10.894-9.246 13-11.573a44.161 44.161 0 0 0 3.231-5.208c.749-2.263.396-4.217-.817-5.813Z" fill="#951631" style="mix-blend-mode:multiply" opacity=".43"/><path d="M193.103 277.162s24.872-11.058 38.382-13.673c-28.132 4.652-52.319 16.698-52.319 16.698l12.147 13.806a264.8 264.8 0 0 0 5.285-2.739c11.014-5.865 21.696-12.039 28.525-16.923-3.62 2.738-27.494 12.348-27.494 12.348l-4.526-9.517Z" fill="#951631" style="mix-blend-mode:multiply" opacity=".43"/><path d="M225.158 274.312c4.02-2.864 6.703-5.275 7.314-6.89.532-1.405-3.402-.88-8.956.469.003 0 5.198 3.702 1.642 6.421Z" fill="#951631" style="mix-blend-mode:multiply" opacity=".43"/><path d="M166.719 297.867c0 .018 6.697 15.923 6.697 15.923a89.562 89.562 0 0 1-4.072-1.997c8.693 4.578 16.888 6.989 22.523 6.813 4.965-.154 35.925-23.079 54.554-38.419-.921-2.423-2.456-6.294-3.958-9.709 2.052 5.18-30.883 31.76-34.451 34.106-3.568 2.347-25.882 6.298-28.836 5.801-2.954-.497-7.415-6.773-3.801-7.14.064 0 .079-.034.135-.047-4.658.05-7.499-1.883-8.791-5.331Z" fill="#AE2A4C" style="mix-blend-mode:multiply" opacity=".31"/><path style="mix-blend-mode:screen" opacity=".74" d="M260.226 251.122c-12.838-6.192-40.986 5.918-61.66 9.814-3.301 1.269-11.023 1.235-12.979 1.216-1.956-.018-4.947 1.544-6.405 3.054-9.089 3.528-13.204 8.779-18.424 15.216 0 0-9.62 11.675-12.804 20.189-2.257 8.839 28.479 19.322 38.913 23.462 10.434 4.14 50.017-31.488 50.017-31.488 13.934-11.252 35.75-25.314 30.128-34.859-2.088-3.22-4.317-5.412-6.786-6.604Zm2.426 12.293a44.176 44.176 0 0 1-3.23 5.199c-8.533 9.434-60.963 49.785-67.553 49.992-6.589.207-16.694-3.109-26.999-9.326-10.305-6.217-13.397-5.801-5.153-20.1 8.245-14.3 14.84-19.072 14.84-19.072s-7.833 6.433-8.656 20.73c-.822 14.296 9.479 18.652 39.159 0 29.68-18.653 41.634-29.217 29.063-27.766-12.571 1.451-41.016 14.09-41.016 14.09s41.016-14.09 39.367-9.74c-1.648 4.35-18.343 14.509-35.864 23.832-17.52 9.323-24.528 11.395-26.161 0-1.634-11.394 5.552-24.246 17.622-25.49 12.07-1.244 26.266-5.387 45.638-10.98 16.553-4.782 32.02-.686 28.943 8.622v.009Z" fill="url('#paint5_linear_37_961')"/><path style="mix-blend-mode:screen" opacity=".71" d="M310.792 491.631s-8.659 24.867-7.421-24.036c.378-14.917-1.13-36.091-3.399-58.303 2.49 16.241 4.375 29.828 5.969 40.966-2.764-19.217-6.378-45.865-12.463-80.468-11.389-64.767-17.659-101.192-28.004-114.207a29.866 29.866 0 0 1 1.535 2.124c5.622 9.533-16.194 23.607-30.128 34.859 23.643-13.814 33.776 47.912 46.304 121.981 12.528 74.068 16.627 109.826 16.627 109.826s8.699-13.914 10.716-9.947c2.954 5.801 2.282 64.175-2.788 77.412 7.425-19.39 12.243-44.402 14.192-50.474 3.286-10.268-11.14-49.733-11.14-49.733Z" fill="url('#paint6_linear_37_961')"/><path style="mix-blend-mode:multiply" opacity=".43" d="M263.049 591.838c-.752-7.548 6.936-94.817 4.858-99.376-2.079-4.56-7.403-11.605 0-14.093 7.403-2.488-4.517-9.53-8.226-12.432-3.71-2.902-43.295-123.915-41.223-133.448 2.073-9.533 12.758-35.008 18.424-39.923 0 0-39.574 35.641-50.017 31.489-10.443-4.152-41.17-14.627-38.913-23.462-1.087 2.905-1.434 5.442-.384 7.023 4.121 6.217 23.908 49.319 23.908 49.319s52.884 109.141 53.302 110.385c.417 1.244-2.199 13.537-.826 14.781 1.372 1.244 5.22 8.425 4.808 13.537-.411 5.112-4.532 94.008-4.947 97.117-.414 3.109 1.843 10.774 4.947 14.089 0 0 7.833 7.875 12.368 10.777 4.536 2.902 21.436 6.215 47.404 0 14.124-3.38 25.878-10.913 33.711-17.096-15.316 11.586-58.445-1.167-59.194-8.687Z" fill="url('#paint7_linear_37_961')"/><path d="M214.745 467.771c-2.06 4.736 5.77 17.229 6.961 24.277 1.192 7.048 2.107 100.707 2.107 100.707.414-3.109 4.535-91.995 4.946-97.117.412-5.121-3.432-12.296-4.808-13.537-1.376-1.241 1.228-13.54.826-14.781-.347-1.04-37.335-77.405-49.482-102.469l-.123-.034s41.634 98.218 39.573 102.954Z" fill="#AE2A4C" style="mix-blend-mode:multiply" opacity=".31"/></g><path d="m261.515 283.987 16.436 93.36c.086.476.044.966-.122 1.42l-2.282 6.251a2.665 2.665 0 0 0-.135 1.35c1.406 8.952 16.378 103.682 25.259 134.161L271.34 382.746a2.735 2.735 0 0 1 .096-1.481l2.327-6.647a2.793 2.793 0 0 0 .068-1.599l-20.963-81.092a2.77 2.77 0 0 1 .193-1.901l3.32-6.773a2.728 2.728 0 0 1 1.171-1.221 2.709 2.709 0 0 1 3.177.454c.413.404.688.93.786 1.501ZM251.189 307.613l12.467 57.42c.052.244.071.494.055.744l-.571 9.847-17.247-66.733a2.742 2.742 0 0 1 .296-2.104 2.707 2.707 0 0 1 2.782-1.296 2.718 2.718 0 0 1 1.788 1.134c.208.299.354.637.43.994v-.006ZM287.676 575.961l2.333 36.354a2.733 2.733 0 0 0 1.699 2.373 2.709 2.709 0 0 0 2.861-.521l1.382-1.275a2.735 2.735 0 0 0 .85-2.442l-4.298-27.617a2.791 2.791 0 0 0-.531-1.235l-4.296-5.637ZM282.274 570.793h3.568l-.132 39.32-2.674-2.469a2.753 2.753 0 0 1-.882-2.028l.12-34.823ZM250.178 502.217l4.535 11.051c.139.335.209.694.206 1.056l-.249 73.809-2.456-14.648a2.91 2.91 0 0 1-.037-.466l.147-43.818a2.713 2.713 0 0 0-.215-1.081l-2.57-6.097a2.758 2.758 0 0 1-.212-1.197l.851-18.609ZM171.354 584.114l7.143-35.714a2.758 2.758 0 0 0-.125-1.513 2.73 2.73 0 0 0-2.319-1.755 2.71 2.71 0 0 0-1.481.298l-1.664.87a2.718 2.718 0 0 0-1.452 2.137l-2.985 27.784c-.049.455.016.916.191 1.339l2.692 6.554ZM181.373 564.616l-3.445-.945 10.292-37.937 1.944 3.087a2.754 2.754 0 0 1 .325 2.186l-9.116 33.609ZM170.853 489.856l-1.535-11.857a2.73 2.73 0 0 1 .073-1.072l19.329-71.206-1.409 14.787a2.882 2.882 0 0 1-.083.46l-11.468 42.274a2.701 2.701 0 0 0-.071 1.099l.921 6.56c.057.407.023.822-.101 1.214l-5.656 17.741Z" fill="#F56B6F" style="mix-blend-mode:multiply" opacity=".22"/><path style="mix-blend-mode:screen" opacity=".33" d="M314.504 487.902a4.427 4.427 0 0 1-.519-.55c-.055-.064-.107-.142-.159-.213-.117-.154-.234-.308-.347-.503a10.297 10.297 0 0 1-.501-.907c-.052-.105-.104-.204-.157-.309-.135-.29-.27-.617-.399-.926-.021-.053-.043-.096-.064-.148a22.27 22.27 0 0 1-.445-1.235c-.046-.136-.093-.284-.139-.426-.101-.309-.202-.655-.307-1.004-.049-.179-.104-.364-.153-.549a41.19 41.19 0 0 1-.289-1.081 74.182 74.182 0 0 1-.497-2.043 24.078 24.078 0 0 0-.074-.309 122.703 122.703 0 0 1-.531-2.513c-.108-.531-.215-1.077-.323-1.645-.043-.229-.089-.466-.132-.704a128.09 128.09 0 0 1-.307-1.729c-.04-.222-.076-.438-.116-.664a291.69 291.69 0 0 1-.39-2.281c0-.08-.028-.157-.04-.241-.157-.926-.307-1.895-.47-2.889-.163-.994-.307-1.988-.47-3.01l-.055-.377c-.151-.981-.307-1.994-.458-3.031 0-.05-.015-.096-.021-.145a1593.655 1593.655 0 0 1-1.201-8.298c-.409-2.845-.836-5.845-1.28-9.002a665.407 665.407 0 0 1-.676-4.64 321.46 321.46 0 0 0-.66-4.588l-.055-.395c-.098-.691-.197-1.367-.307-2.074l-.083-.575c-.108-.728-.218-1.484-.326-2.225l-.046-.309c-.079-.553-.156-1.09-.239-1.652-.058-.404-.12-.818-.181-1.234-.111-.76-.227-1.544-.341-2.31l-.037-.256c-.061-.404-.117-.796-.178-1.204-.077-.515-.157-1.043-.233-1.565-.132-.877-.264-1.772-.4-2.664 0-.093-.027-.185-.043-.278l-.098-.661c-.095-.617-.19-1.265-.288-1.901a932.62 932.62 0 0 0-.504-3.3l-.362-2.353c-.168-1.095-.34-2.204-.516-3.328-.126-.793-.249-1.589-.378-2.395-.181-1.152-.365-2.319-.553-3.492-.129-.79-.254-1.58-.383-2.383a2198.54 2198.54 0 0 0-.995-6.131c-.212-1.287-.43-2.602-.651-3.917-.129-.785-.258-1.544-.39-2.353a2186.91 2186.91 0 0 0-.765-4.485 471.23 471.23 0 0 0-.341-2.01c-.378-2.198-.766-4.428-1.163-6.69-.528-3.003-1.041-5.927-1.536-8.807-.215-1.216-.426-2.427-.638-3.618-.185-1.062-.369-2.106-.553-3.152-.166-.926-.325-1.852-.488-2.751-.206-1.17-.412-2.324-.614-3.473-.132-.753-.267-1.497-.4-2.241-.221-1.235-.439-2.47-.657-3.704-.098-.547-.196-1.087-.291-1.627-.243-1.349-.482-2.692-.719-4.014a2170.426 2170.426 0 0 0-2.619-14.262l-.086-.466a1730.91 1730.91 0 0 0-.712-3.76l-.194-1.016a608.73 608.73 0 0 0-.869-4.495c-.235-1.204-.47-2.388-.703-3.553l-.129-.642a620.21 620.21 0 0 0-1.999-9.632 482.531 482.531 0 0 0-1.965-8.718 379.815 379.815 0 0 0-.771-3.185l-.073-.288a291.856 291.856 0 0 0-.747-2.948l-.055-.2a183.205 183.205 0 0 0-3.009-10.364 135.663 135.663 0 0 0-1.842-5.313c-.307-.774-.575-1.469-.851-2.139-.402-.957-.78-1.8-1.161-2.612-.141-.308-.282-.586-.426-.876-.24-.488-.482-.964-.728-1.42-.172-.325-.344-.658-.522-.967a35.907 35.907 0 0 0-1.01-1.685c-.059-.099-.071-.133-.092-.167-.022-.034-.046-.065-.068-.096a27.284 27.284 0 0 0-1.455-2.031l-.102-.127a18.786 18.786 0 0 0-1.603-1.781 15.659 15.659 0 0 0-1.906-1.574 12.337 12.337 0 0 0-1.631-.976c-2.763-1.333-7.557-2.624-12.098-1.63 1.09 11.966-.113 11.972-2.131 9.502a41.455 41.455 0 0 1-2.988-6.004 111.19 111.19 0 0 1-1.08-2.732c-9.108 1.494-19.594 4.683-29.579 7.375-.691.185-1.379.373-2.064.553-.743.197-1.477.382-2.21.571-1.06.271-2.107.528-3.148.778-.559.132-1.124.271-1.676.395-1.594.367-3.169.707-4.692.994l-13.612-6.14h-5.773v10.409c-9.088 3.529-13.203 8.78-18.423 15.216-.08.096-.107.133-.132.164-.147.179-.405.503-.768.96-.187.235-.383.488-.595.76l-.323.419-.362.473-.442.58-.338.454c-.359.478-.734.988-1.13 1.544l-.169.231c-.196.272-.399.556-.614.843-.117.16-.23.309-.344.484l-.614.902c-.114.167-.227.336-.344.503-.697 1.022-1.4 2.09-2.088 3.186l-.414.664c-.188.308-.369.617-.55.907-.144.241-.286.482-.427.723-.169.308-.341.589-.506.883-.209.373-.409.744-.615 1.114-.205.37-.362.692-.534 1.037a41.391 41.391 0 0 0-.783 1.652c-.135.309-.264.602-.384.901-.092.22-.184.439-.267.655-.021.058-.049.117-.067.173-.074.191-.123.37-.188.555-.101.309-.212.618-.307.896-.095.277-.123.484-.184.725s-.138.531-.181.784c-.043.253-.065.513-.092.766-.028.253-.062.423-.068.617-.015.413.01.827.077 1.235.04.23.101.457.181.676.015.04.022.087.037.127.087.217.197.424.329.617 4.12 6.217 23.907 49.319 23.907 49.319a306.561 306.561 0 0 1-.451 6.122v.13c0 .092-.019.185-.025.278-.028.327-.064.66-.092.987a335.35 335.35 0 0 1-.421 4.48c-.037.376-.077.756-.116 1.133-2.352 22.449-7.038 46.883-12.504 69.802-.583 2.402-1.142 4.822-1.747 7.202a747.6 747.6 0 0 1-3.623 14.016s6.709 26.595 3.939 26.159a68.999 68.999 0 0 1-7.744-3.423 148.89 148.89 0 0 1-2.456-1.263c-.092.275-.178.544-.261.825a966.558 966.558 0 0 1-2.724 8.866 868.97 868.97 0 0 1-2.604 8.174c-.089.278-.178.568-.267.846.998.503 1.935.979 2.828 1.439 3.909 2.006 6.869 3.627 9.065 4.939 2.797 1.75.356 1.568-2.435 1.256-3.092-.345-11.223-2.222-11.223-2.222l-.614 1.852c-13.311 39.823-25.873 69.293-25.873 69.293l116.657 29.018s7.833 7.876 12.368 10.777c4.536 2.902 21.436 6.215 47.404 0a71.81 71.81 0 0 0 4.701-1.318c.267-.083.54-.163.804-.25a74.551 74.551 0 0 0 4.299-1.543l.765-.309a86.098 86.098 0 0 0 8.459-3.982l.286-.152a93.627 93.627 0 0 0 6.755-4.044l.359-.234a106.445 106.445 0 0 0 11.33-8.598 16.9 16.9 0 0 0 4.591-6.462 16.998 16.998 0 0 0 1.151-7.856c-2.649-29.593-11.953-90.1-17.548-94.974Z" fill="url('#paint8_radial_37_961')"/><g opacity=".65"><path d="M224.903 402.664a.375.375 0 0 1-.228.343.366.366 0 0 1-.502-.27.372.372 0 0 1 .361-.443.362.362 0 0 1 .342.228.385.385 0 0 1 .027.142Z" fill="#FFFF7E" style="mix-blend-mode:screen"/><path style="mix-blend-mode:screen" opacity=".69" d="M224.534 412.179c5.226 0 9.463-4.26 9.463-9.515 0-5.254-4.237-9.514-9.463-9.514-5.227 0-9.464 4.26-9.464 9.514 0 5.255 4.237 9.515 9.464 9.515Z" fill="url('#paint9_radial_37_961')"/></g><g opacity=".65"><path d="M220.911 357.979a.368.368 0 0 1-.73.074.372.372 0 0 1 .158-.38.372.372 0 0 1 .465.046.364.364 0 0 1 .107.26Z" fill="#FFFF7E" style="mix-blend-mode:screen"/><path style="mix-blend-mode:screen" opacity=".69" d="M220.542 367.496c5.226 0 9.463-4.26 9.463-9.514 0-5.255-4.237-9.515-9.463-9.515-5.227 0-9.464 4.26-9.464 9.515 0 5.254 4.237 9.514 9.464 9.514Z" fill="url('#paint10_radial_37_961')"/></g><g opacity=".65"><path d="M287.923 474.155a.37.37 0 1 1-.639-.283.366.366 0 0 1 .621.131.358.358 0 0 1 .018.152Z" fill="#FFFF7E" style="mix-blend-mode:screen"/><path style="mix-blend-mode:screen" opacity=".69" d="M294.953 480.051c3.261-4.106 2.595-10.093-1.49-13.372-4.084-3.279-10.038-2.608-13.3 1.498-3.261 4.106-2.594 10.093 1.49 13.372s10.038 2.608 13.3-1.498Z" fill="url('#paint11_radial_37_961')"/></g><g opacity=".65"><path d="M292.909 563.449a.368.368 0 0 1-.73.072.374.374 0 0 1 .157-.38.36.36 0 0 1 .204-.062.362.362 0 0 1 .342.228.381.381 0 0 1 .027.142Z" fill="#FFFF7E" style="mix-blend-mode:screen"/><path style="mix-blend-mode:screen" opacity=".69" d="M292.54 572.964c5.226 0 9.463-4.26 9.463-9.515 0-5.254-4.237-9.514-9.463-9.514-5.227 0-9.464 4.26-9.464 9.514 0 5.255 4.237 9.515 9.464 9.515Z" fill="url('#paint12_radial_37_961')"/></g><g opacity=".65"><path d="M194.27 530.877a.361.361 0 0 1-.061.207.37.37 0 0 1-.568.058.367.367 0 0 1-.079-.405.37.37 0 0 1 .601-.12.368.368 0 0 1 .107.26Z" fill="#FFFF7E" style="mix-blend-mode:screen"/><path style="mix-blend-mode:screen" opacity=".69" d="M203.133 533.081c1.185-5.118-1.98-10.233-7.07-11.425-5.091-1.192-10.178 1.991-11.364 7.108-1.185 5.118 1.98 10.233 7.071 11.425 5.09 1.192 10.177-1.991 11.363-7.108Z" fill="url('#paint13_radial_37_961')"/></g><g opacity=".65"><path d="M336.853 487.146a.371.371 0 0 1-.367.336.366.366 0 0 1-.367-.336.372.372 0 0 1 .218-.373.363.363 0 0 1 .421.089.373.373 0 0 1 .095.284Z" fill="#FFFF7E" style="mix-blend-mode:screen"/><path style="mix-blend-mode:screen" opacity=".69" d="M336.485 496.66c5.226 0 9.463-4.26 9.463-9.514 0-5.255-4.237-9.515-9.463-9.515-5.227 0-9.464 4.26-9.464 9.515 0 5.254 4.237 9.514 9.464 9.514Z" fill="url('#paint14_radial_37_961')"/></g><g opacity=".65"><path d="M349.673 431.498a.371.371 0 0 1-.367.336.365.365 0 0 1-.367-.336.356.356 0 0 1 .018-.152.359.359 0 0 1 .2-.221.365.365 0 0 1 .298 0 .363.363 0 0 1 .2.221c.017.049.023.1.018.152Z" fill="#FFFF7E" style="mix-blend-mode:screen"/><path style="mix-blend-mode:screen" opacity=".69" d="M352.928 440.289c4.828-2.011 7.121-7.576 5.121-12.431-2-4.855-7.536-7.16-12.364-5.149-4.829 2.011-7.122 7.576-5.122 12.431 2 4.855 7.536 7.16 12.365 5.149Z" fill="url('#paint15_radial_37_961')"/></g><g opacity=".65"><path d="M375.905 329.059a.374.374 0 0 1-.094.283.38.38 0 0 1-.124.09.379.379 0 0 1-.297 0 .38.38 0 0 1-.201-.221.374.374 0 0 1 .349-.489.37.37 0 0 1 .367.337Z" fill="#FFFF7E" style="mix-blend-mode:screen"/><path style="mix-blend-mode:screen" opacity=".69" d="M375.538 338.576c5.226 0 9.463-4.259 9.463-9.514 0-5.255-4.237-9.514-9.463-9.514-5.227 0-9.464 4.259-9.464 9.514 0 5.255 4.237 9.514 9.464 9.514Z" fill="url('#paint16_radial_37_961')"/></g><g opacity=".65"><path d="M89.23 185.438a.37.37 0 0 1-.442.363.365.365 0 0 1-.29-.292.375.375 0 0 1 .16-.38.359.359 0 0 1 .206-.061.358.358 0 0 1 .26.109.361.361 0 0 1 .105.261Z" fill="#FFFF7E" style="mix-blend-mode:screen"/><path style="mix-blend-mode:screen" opacity=".69" d="M88.86 194.953c5.227 0 9.463-4.26 9.463-9.515 0-5.254-4.236-9.514-9.463-9.514-5.227 0-9.463 4.26-9.463 9.514 0 5.255 4.236 9.515 9.463 9.515Z" fill="url('#paint17_radial_37_961')"/></g><g opacity=".65"><path d="M102.048 129.79a.356.356 0 0 1-.018.152.359.359 0 0 1-.2.221.366.366 0 0 1-.498-.221.367.367 0 0 1 .101-.391.363.363 0 0 1 .496 0 .367.367 0 0 1 .119.239Z" fill="#FFFF7E" style="mix-blend-mode:screen"/><path style="mix-blend-mode:screen" opacity=".69" d="M101.68 139.308c5.227 0 9.464-4.26 9.464-9.514 0-5.255-4.237-9.515-9.464-9.515-5.226 0-9.463 4.26-9.463 9.515 0 5.254 4.237 9.514 9.463 9.514Z" fill="url('#paint18_radial_37_961')"/></g><g opacity=".65"><path d="M175.011 79.286a.374.374 0 0 1-.367.336.369.369 0 0 1-.272-.62.361.361 0 0 1 .272-.12.369.369 0 0 1 .367.404Z" fill="#FFFF7E" style="mix-blend-mode:screen"/><path style="mix-blend-mode:screen" opacity=".69" d="M174.643 88.8c5.227 0 9.464-4.26 9.464-9.514 0-5.255-4.237-9.515-9.464-9.515-5.226 0-9.463 4.26-9.463 9.515 0 5.254 4.237 9.514 9.463 9.514Z" fill="url('#paint19_radial_37_961')"/></g><g opacity=".65"><path d="M157.523 475.18a.369.369 0 1 1-.616-.24.37.37 0 0 1 .616.24Z" fill="#FFFF7E" style="mix-blend-mode:screen"/><path style="mix-blend-mode:screen" opacity=".69" d="M157.155 484.701c5.226 0 9.463-4.26 9.463-9.515 0-5.254-4.237-9.514-9.463-9.514-5.227 0-9.464 4.26-9.464 9.514 0 5.255 4.237 9.515 9.464 9.515Z" fill="url('#paint20_radial_37_961')"/></g><g opacity=".65"><path d="M67.731 521.366a.369.369 0 1 1-.716-.152.37.37 0 0 1 .35-.252.363.363 0 0 1 .349.252.374.374 0 0 1 .017.152Z" fill="#FFFF7E" style="mix-blend-mode:screen"/><path style="mix-blend-mode:screen" opacity=".69" d="M76.697 522.966c.874-5.181-2.595-10.093-7.748-10.972-5.152-.879-10.038 2.608-10.913 7.788-.874 5.181 2.594 10.093 7.747 10.972 5.153.879 10.04-2.608 10.913-7.788Z" fill="url('#paint21_radial_37_961')"/></g><g opacity=".65"><path d="M91.919 547.35a.373.373 0 0 1-.228.342.363.363 0 0 1-.502-.27.372.372 0 0 1 .156-.38.364.364 0 0 1 .205-.062.365.365 0 0 1 .368.37Z" fill="#FFFF7E" style="mix-blend-mode:screen"/><path style="mix-blend-mode:screen" opacity=".69" d="M91.55 556.864c5.226 0 9.463-4.259 9.463-9.514 0-5.255-4.237-9.514-9.464-9.514-5.226 0-9.463 4.259-9.463 9.514 0 5.255 4.237 9.514 9.463 9.514Z" fill="url('#paint22_radial_37_961')"/></g><g opacity=".65"><path d="M123.339 335.684a.371.371 0 0 1-.367.336.365.365 0 0 1-.367-.336.356.356 0 0 1 .018-.152.359.359 0 0 1 .2-.221.365.365 0 0 1 .298 0 .363.363 0 0 1 .2.221c.017.049.023.1.018.152Z" fill="#FFFF7E" style="mix-blend-mode:screen"/><path style="mix-blend-mode:screen" opacity=".69" d="M122.962 345.198c5.226 0 9.463-4.26 9.463-9.514 0-5.255-4.237-9.515-9.463-9.515-5.227 0-9.464 4.26-9.464 9.515 0 5.254 4.237 9.514 9.464 9.514Z" fill="url('#paint23_radial_37_961')"/></g><g opacity=".65"><path d="M75.829 368.487a.37.37 0 0 1-.442.363.365.365 0 0 1-.288-.292.374.374 0 0 1 .159-.38.359.359 0 0 1 .205-.061.357.357 0 0 1 .26.108.376.376 0 0 1 .106.262Z" fill="#FFFF7E" style="mix-blend-mode:screen"/><path style="mix-blend-mode:screen" opacity=".69" d="M82.153 375.215c3.696-3.716 3.696-9.74 0-13.456a9.429 9.429 0 0 0-13.383 0c-3.696 3.716-3.696 9.74 0 13.456a9.429 9.429 0 0 0 13.383 0Z" fill="url('#paint24_radial_37_961')"/></g><g opacity=".65"><path d="M72.323 338.792a.37.37 0 0 1-.44.364.365.365 0 0 1-.19-.102.372.372 0 0 1 .402-.605.368.368 0 0 1 .228.343Z" fill="#FFFF7E" style="mix-blend-mode:screen"/><path style="mix-blend-mode:screen" opacity=".69" d="M71.954 348.307c5.226 0 9.463-4.26 9.463-9.515 0-5.254-4.237-9.514-9.463-9.514-5.227 0-9.464 4.26-9.464 9.514 0 5.255 4.237 9.515 9.464 9.515Z" fill="url('#paint25_radial_37_961')"/></g><g opacity=".65"><path d="M9.833 330.794a.37.37 0 0 1-.628.266.373.373 0 0 1 .054-.571.366.366 0 0 1 .465.045.371.371 0 0 1 .109.26Z" fill="#FFFF7E" style="mix-blend-mode:screen"/><path style="mix-blend-mode:screen" opacity=".69" d="M13.134 339.566c4.814-2.047 7.067-7.629 5.031-12.469-2.035-4.84-7.588-7.104-12.402-5.058-4.814 2.047-7.066 7.629-5.03 12.469 2.035 4.84 7.587 7.104 12.401 5.058Z" fill="url('#paint26_radial_37_961')"/></g><g opacity=".65"><path d="M139.286 222.452a.375.375 0 0 1-.228.343.369.369 0 0 1-.481-.484.37.37 0 0 1 .482-.202.374.374 0 0 1 .227.343Z" fill="#FFFF7E" style="mix-blend-mode:screen"/><path style="mix-blend-mode:screen" opacity=".69" d="M138.917 231.967c5.226 0 9.463-4.26 9.463-9.515 0-5.254-4.237-9.514-9.463-9.514-5.227 0-9.464 4.26-9.464 9.514 0 5.255 4.237 9.515 9.464 9.515Z" fill="url('#paint27_radial_37_961')"/></g><g opacity=".65"><path d="M273.29 243.516a.37.37 0 0 1-.63.261.373.373 0 0 1 .405-.604.37.37 0 0 1 .225.343Z" fill="#FFFF7E" style="mix-blend-mode:screen"/><path style="mix-blend-mode:screen" opacity=".69" d="M276.604 252.301c4.813-2.049 7.063-7.633 5.025-12.472-2.038-4.838-7.592-7.1-12.405-5.051-4.813 2.049-7.062 7.632-5.024 12.471 2.038 4.839 7.591 7.101 12.404 5.052Z" fill="url('#paint28_radial_37_961')"/></g><g opacity=".65"><path d="M287.081 309.095a.377.377 0 0 1-.062.206.375.375 0 0 1-.379.157.367.367 0 0 1-.268-.505.363.363 0 0 1 .136-.166.361.361 0 0 1 .346-.035.356.356 0 0 1 .199.2.372.372 0 0 1 .028.143Z" fill="#FFFF7E" style="mix-blend-mode:screen"/><path style="mix-blend-mode:screen" opacity=".69" d="M286.712 318.594c5.226 0 9.463-4.26 9.463-9.515 0-5.254-4.237-9.514-9.463-9.514-5.227 0-9.464 4.26-9.464 9.514 0 5.255 4.237 9.515 9.464 9.515Z" fill="url('#paint29_radial_37_961')"/></g><g opacity=".65"><path d="M339.506 308.709a.37.37 0 0 1-.63.261.376.376 0 0 1-.078-.405.373.373 0 0 1 .484-.198.367.367 0 0 1 .224.342Z" fill="#FFFF7E" style="mix-blend-mode:screen"/><path style="mix-blend-mode:screen" opacity=".69" d="M348.499 310.254c.838-5.187-2.665-10.074-7.824-10.916-5.159-.842-10.021 2.68-10.858 7.867-.837 5.187 2.666 10.074 7.825 10.916 5.159.842 10.02-2.68 10.857-7.867Z" fill="url('#paint30_radial_37_961')"/></g><g opacity=".65"><path d="M158.083 124.956a.368.368 0 0 1-.73.072.373.373 0 0 1 .156-.38.366.366 0 0 1 .205-.062.371.371 0 0 1 .341.228.363.363 0 0 1 .028.142Z" fill="#FFFF7E" style="mix-blend-mode:screen"/><path style="mix-blend-mode:screen" opacity=".69" d="M157.713 134.47c5.227 0 9.464-4.259 9.464-9.514 0-5.255-4.237-9.514-9.464-9.514-5.226 0-9.463 4.259-9.463 9.514 0 5.255 4.237 9.514 9.463 9.514Z" fill="url('#paint31_radial_37_961')"/></g><g opacity=".65"><path d="M171.87 190.517a.376.376 0 0 1-.226.344.361.361 0 0 1-.213.022.374.374 0 0 1-.189-.1.373.373 0 0 1 .259-.634.369.369 0 0 1 .369.368Z" fill="#FFFF7E" style="mix-blend-mode:screen"/><path style="mix-blend-mode:screen" opacity=".69" d="M171.501 200.034c5.226 0 9.463-4.26 9.463-9.514 0-5.255-4.237-9.515-9.463-9.515-5.227 0-9.464 4.26-9.464 9.515 0 5.254 4.237 9.514 9.464 9.514Z" fill="url('#paint32_radial_37_961')"/></g><g opacity=".65"><path d="M224.307 190.149a.37.37 0 1 1-.573-.308.366.366 0 0 1 .346-.035.377.377 0 0 1 .2.201.362.362 0 0 1 .027.142Z" fill="#FFFF7E" style="mix-blend-mode:screen"/><path style="mix-blend-mode:screen" opacity=".69" d="M223.938 199.664c5.227 0 9.464-4.26 9.464-9.515 0-5.254-4.237-9.514-9.464-9.514-5.226 0-9.463 4.26-9.463 9.514 0 5.255 4.237 9.515 9.463 9.515Z" fill="url('#paint33_radial_37_961')"/></g><g opacity=".65"><path d="M98.692 330.004a.37.37 0 0 1-.44.363.365.365 0 0 1-.189-.102.365.365 0 0 1-.08-.403.372.372 0 0 1 .136-.167.372.372 0 0 1 .466.046.362.362 0 0 1 .107.263Z" fill="#FFFF7E" style="mix-blend-mode:screen"/><path style="mix-blend-mode:screen" opacity=".69" d="M98.323 339.518c5.226 0 9.463-4.26 9.463-9.514 0-5.255-4.237-9.515-9.463-9.515-5.227 0-9.464 4.26-9.464 9.515 0 5.254 4.237 9.514 9.464 9.514Z" fill="url('#paint34_radial_37_961')"/></g><g opacity=".4"><path d="M228.262 15.204a.363.363 0 0 1-.061.207.365.365 0 0 1-.378.16.37.37 0 1 1 .412-.508.376.376 0 0 1 .027.14Z" fill="#FFFF7E" style="mix-blend-mode:screen"/><path style="mix-blend-mode:screen" opacity=".69" d="M233.299 22.992c4.29-3.001 5.348-8.93 2.363-13.244-2.985-4.313-8.883-5.377-13.173-2.376-4.29 3.002-5.348 8.931-2.363 13.244 2.985 4.314 8.883 5.377 13.173 2.376Z" fill="url('#paint35_radial_37_961')"/></g><g opacity=".4"><path d="M180.76 47.995a.37.37 0 0 1-.439.367.37.37 0 1 1 .332-.627.366.366 0 0 1 .107.26Z" fill="#FFFF7E" style="mix-blend-mode:screen"/><path style="mix-blend-mode:screen" opacity=".69" d="M180.391 57.513c5.227 0 9.464-4.26 9.464-9.515 0-5.255-4.237-9.514-9.464-9.514-5.226 0-9.463 4.26-9.463 9.514 0 5.255 4.237 9.515 9.463 9.515Z" fill="url('#paint36_radial_37_961')"/></g><g opacity=".4"><path d="M177.251 18.291a.356.356 0 0 1-.018.152.361.361 0 0 1-.349.253.37.37 0 0 1-.367-.405.374.374 0 0 1 .119-.24.366.366 0 0 1 .615.24Z" fill="#FFFF7E" style="mix-blend-mode:screen"/><path style="mix-blend-mode:screen" opacity=".69" d="M186.228 19.848c.846-5.186-2.65-10.079-7.808-10.929-5.157-.85-10.024 2.665-10.87 7.85-.845 5.186 2.651 10.079 7.808 10.929 5.158.85 10.025-2.665 10.87-7.85Z" fill="url('#paint37_radial_37_961')"/></g><g opacity=".4"><path d="M203.622 9.511a.356.356 0 0 1-.018.152.36.36 0 0 1-.349.252.37.37 0 0 1-.248-.644.366.366 0 0 1 .615.24Z" fill="#FFFF7E" style="mix-blend-mode:screen"/><path style="mix-blend-mode:screen" opacity=".69" d="M203.255 19.029c5.226 0 9.463-4.26 9.463-9.515 0-5.254-4.237-9.514-9.463-9.514-5.227 0-9.464 4.26-9.464 9.514 0 5.255 4.237 9.515 9.464 9.515Z" fill="url('#paint38_radial_37_961')"/></g><path d="M335.668 368.487a.992.992 0 0 0 .989-.994.992.992 0 0 0-.989-.994.99.99 0 0 0-.988.994.99.99 0 0 0 .988.994Z" fill="#FFFF7E" style="mix-blend-mode:screen"/><path style="mix-blend-mode:screen" opacity=".69" d="M353.68 385.604c9.948-10.001 9.948-26.217 0-36.218-9.948-10.002-26.077-10.002-36.025 0-9.948 10.001-9.948 26.217 0 36.218 9.948 10.002 26.077 10.002 36.025 0Z" fill="url('#paint39_radial_37_961')"/><path d="M155.919 389.05a.998.998 0 0 1-.61.919.983.983 0 0 1-1.078-.216.997.997 0 0 1 .699-1.697.986.986 0 0 1 .914.614c.049.12.075.25.075.38Z" fill="#FFFF7E" style="mix-blend-mode:screen"/><path style="mix-blend-mode:screen" opacity=".69" d="M180.05 393.226c2.312-13.952-7.063-27.147-20.94-29.472-13.877-2.325-27.002 7.101-29.314 21.053-2.312 13.952 7.063 27.147 20.94 29.471 13.878 2.325 27.002-7.101 29.314-21.052Z" fill="url('#paint40_radial_37_961')"/><path d="M111.143 503.757a.992.992 0 0 0 .989-.994.992.992 0 0 0-.989-.994.992.992 0 0 0-.989.994c0 .549.443.994.989.994Z" fill="#FFFF7E" style="mix-blend-mode:screen"/><path style="mix-blend-mode:screen" opacity=".69" d="M111.143 528.374c14.069 0 25.474-11.467 25.474-25.611s-11.405-25.61-25.474-25.61c-14.068 0-25.473 11.466-25.473 25.61s11.405 25.611 25.473 25.611Z" fill="url('#paint41_radial_37_961')"/><path d="M350.811 311.975a.992.992 0 0 0 .989-.994.992.992 0 0 0-.989-.994.992.992 0 0 0-.989.994c0 .549.443.994.989.994Z" fill="#FFFF7E" style="mix-blend-mode:screen"/><path style="mix-blend-mode:screen" opacity=".69" d="M368.822 329.09c9.948-10.002 9.948-26.217 0-36.219-9.948-10.001-26.076-10.001-36.024 0-9.948 10.002-9.948 26.217 0 36.219 9.948 10.001 26.076 10.001 36.024 0Z" fill="url('#paint42_radial_37_961')"/><path d="M136.616 443.71a.99.99 0 0 0 .988-.994.99.99 0 0 0-.988-.994.992.992 0 0 0-.989.994c0 .549.443.994.989.994Z" fill="#FFFF7E" style="mix-blend-mode:screen"/><path style="mix-blend-mode:screen" opacity=".69" d="M136.616 468.327c14.069 0 25.473-11.467 25.473-25.611s-11.404-25.61-25.473-25.61c-14.069 0-25.473 11.466-25.473 25.61s11.404 25.611 25.473 25.611Z" fill="url('#paint43_radial_37_961')"/><path d="M49.987 301.553a.991.991 0 0 0 .988-.994.991.991 0 0 0-.988-.994.991.991 0 0 0-.989.994c0 .549.443.994.989.994Z" fill="#FFFF7E" style="mix-blend-mode:screen"/><path style="mix-blend-mode:screen" opacity=".69" d="M68 318.67c9.948-10.001 9.948-26.217 0-36.218-9.948-10.002-26.077-10.002-36.025 0-9.948 10.001-9.948 26.217 0 36.218 9.948 10.002 26.077 10.002 36.025 0Z" fill="url('#paint44_radial_37_961')"/><path d="M153.962 268.805a.998.998 0 0 1-.611.919.991.991 0 0 1-1.078-.217.998.998 0 0 1 .153-1.53.986.986 0 0 1 1.247.126.998.998 0 0 1 .289.702Z" fill="#FFFF7E" style="mix-blend-mode:screen"/><path style="mix-blend-mode:screen" opacity=".69" d="M178.091 272.988c2.312-13.952-7.063-27.147-20.94-29.472-13.877-2.325-27.002 7.101-29.314 21.053-2.312 13.952 7.063 27.147 20.94 29.472 13.878 2.324 27.002-7.101 29.314-21.053Z" fill="url('#paint45_radial_37_961')"/><path d="M203.377 110.049a.992.992 0 0 0 .989-.995.992.992 0 0 0-.989-.994.99.99 0 0 0-.988.994c0 .549.442.995.988.995Z" fill="#FFFF7E" style="mix-blend-mode:screen"/><path style="mix-blend-mode:screen" opacity=".69" d="M203.376 134.665c14.068 0 25.473-11.466 25.473-25.611 0-14.144-11.405-25.61-25.473-25.61-14.069 0-25.474 11.466-25.474 25.61 0 14.145 11.405 25.611 25.474 25.611Z" fill="url('#paint46_radial_37_961')"/><path d="M300.668 164.264a.992.992 0 0 0 .989-.994.992.992 0 0 0-.989-.994.99.99 0 0 0-.988.994.99.99 0 0 0 .988.994Z" fill="#FFFF7E" style="mix-blend-mode:screen"/><path style="mix-blend-mode:screen" opacity=".69" d="M300.667 188.88c14.068 0 25.473-11.466 25.473-25.61s-11.405-25.611-25.473-25.611c-14.069 0-25.474 11.467-25.474 25.611s11.405 25.61 25.474 25.61Z" fill="url('#paint47_radial_37_961')"/><path d="M319.024 520.403a.992.992 0 0 0 .989-.994.992.992 0 0 0-.989-.994.992.992 0 0 0-.989.994c0 .549.443.994.989.994Z" fill="#FFFF7E" style="mix-blend-mode:screen"/><path style="mix-blend-mode:screen" opacity=".69" d="M344.177 523.542c2.254-13.961-7.176-27.117-21.063-29.383-13.887-2.266-26.972 7.215-29.226 21.176-2.254 13.962 7.176 27.117 21.063 29.383 13.887 2.266 26.972-7.214 29.226-21.176Z" fill="url('#paint48_radial_37_961')"/><path d="m170.675 516.442-30.948 42.13 18.349 50.662 9.402 9.452 13.056-2.568 11.776-37.446-10.956-17.347 3.562-22.853-14.241-22.03Z" fill="url('#paint49_linear_37_961')"/><path d="m184.916 538.471-25.471 28.084 9.31 33.961 12.599-39.191 3.562-22.854ZM158.076 609.234l10.68-8.718 11.778 15.602-13.056 2.568-9.402-9.452Z" fill="#002EAE" style="mix-blend-mode:multiply" opacity=".49"/><path d="m139.727 558.572 19.719 7.983 9.31 33.961-10.68 8.718-18.349-50.662ZM192.31 578.672l-10.956-17.347-12.598 39.191 11.779 15.602 11.775-37.446Z" fill="#002EAE" style="mix-blend-mode:multiply" opacity=".3"/><path style="mix-blend-mode:color-dodge" d="M186.182 598.16s5.325-18.389 3.663-21.415c-1.661-3.025-6.982-12.252-8.213-11.015-1.232 1.238-10.818 31.961-10.818 33.397 0 1.435 8.352 13.552 9.037 13.138.684-.413 3.844-6.192 3.844-6.192l-3.16 10.045-11.775-15.602 12.589-39.191 10.956 17.347-6.123 19.488Z" fill="url('#paint50_linear_37_961')"/><path style="mix-blend-mode:color-dodge" d="M165.472 600.516c-1.505 2.661-5.973 6.31-7.394 5.557-1.422-.754-16.007-41.17-14.103-43.099 1.903-1.93 14.293 4.229 15.472 6.06 1.179 1.83 2.411 6.31 2.411 6.31l-2.411-8.786 25.47-28.093-14.241-22.026-16.182 22.026s16.044-17.621 17.69-15.969c1.646 1.651 10.268 12.966 10.133 15.969-.135 3.004-19.652 24.327-23.416 25.333-2.095.559-7.772-1.118-12.406-2.717a4.27 4.27 0 0 1-2.402-2.077 4.31 4.31 0 0 1-.312-3.171c1.293-4.553 5.457-10.218 5.457-10.218l-9.519 12.944 18.349 50.665 10.692-8.708-6.448-23.496s4.667 20.832 3.16 23.496Z" fill="url('#paint51_linear_37_961')"/><path style="mix-blend-mode:screen" d="M143.78 555.843a4.303 4.303 0 0 0 .312 3.17 4.27 4.27 0 0 0 2.402 2.078c4.634 1.599 10.311 3.275 12.405 2.716 3.768-1.006 23.278-22.313 23.416-25.332.139-3.02-8.49-14.318-10.133-15.97-1.642-1.651-17.689 15.96-17.689 15.96l16.182-22.026-30.948 42.129 9.518-12.944s-4.173 5.665-5.465 10.219Z" fill="url('#paint52_linear_37_961')"/><path style="mix-blend-mode:multiply" opacity=".3" d="m161.857 575.344.457 1.673 6.449 23.496 12.589-39.191 3.562-22.844-25.471 28.092 2.414 8.774Z" fill="url('#paint53_linear_37_961')"/><path style="mix-blend-mode:multiply" opacity=".3" d="m158.076 609.234 9.402 9.452 13.053-2.568-11.775-15.602-10.68 8.718Z" fill="url('#paint54_linear_37_961')"/><path style="mix-blend-mode:multiply" opacity=".3" d="M159.446 569.027c-1.179-1.83-13.556-7.986-15.472-6.059-1.916 1.926 12.681 42.336 14.103 43.092 1.422.756 5.889-2.892 7.394-5.557 1.504-2.664-3.154-23.492-3.157-23.495l-.46-1.68c-.006-.015-1.228-4.473-2.408-6.301Z" fill="url('#paint55_linear_37_961')"/><path style="mix-blend-mode:multiply" opacity=".3" d="M189.845 576.745c-1.643-3.028-6.982-12.252-8.214-11.014-1.231 1.237-10.82 31.96-10.82 33.396 0 1.435 8.355 13.552 9.039 13.138.685-.413 3.845-6.192 3.845-6.192l-3.16 10.045 5.647-17.958c.012-.04 5.306-18.393 3.663-21.415Z" fill="url('#paint56_linear_37_961')"/><path style="mix-blend-mode:screen" d="M139.727 558.568s18.936-31.352 36.309-10.304l8.88-9.799-14.241-22.026-30.948 42.129Z" fill="url('#paint57_linear_37_961')"/><path d="m201.187 575.563-17.595 24.079a20.86 20.86 0 0 0-2.121 2.908l12.049 17.347 10.341-5.458 6.092-3.217-8.766-35.659Z" fill="#fff" style="mix-blend-mode:screen"/><path d="m181.469 602.547 12.052 17.346 16.43-8.671-8.763-35.659-19.719 26.984Z" fill="url('#paint58_linear_37_961')"/><path d="m181.469 602.547 15.337 8.943 13.145-.268-16.43 8.671-12.052-17.346Z" fill="#002EAE" style="mix-blend-mode:multiply" opacity=".49"/><path d="m201.188 575.563-4.381 35.927 13.145-.268-8.764-35.659Z" fill="#002EAE" style="mix-blend-mode:multiply" opacity=".3"/><path style="mix-blend-mode:color-dodge" d="M188.671 592.693s-5.923 8.477-4.738 9.854c1.186 1.377 11.463 6.856 12.326 6.61.862-.247 4.565-29.637 3.377-29.096-1.188.54-7.814 8.335-7.814 8.335l9.365-12.818 6.341 25.79s-5.337-19.449-6.142-18.631c-.804.818-3.377 24.184-2.281 26.441 1.096 2.257 10.864 2.056 10.864 2.056l-10.072 5.316s9.795-4.362 4.606-5.044h-7.676l-15.335-8.953 7.179-9.86Z" fill="url('#paint59_linear_37_961')"/><path style="mix-blend-mode:screen" d="M183.935 602.547c1.188 1.377 11.462 6.857 12.325 6.61.863-.247 4.566-29.636 3.378-29.096-1.189.54-7.824 8.316-7.824 8.316l9.365-12.814-19.716 26.984 7.2-9.854s-5.914 8.477-4.728 9.854Z" fill="url('#paint60_linear_37_961')"/><path style="mix-blend-mode:multiply" opacity=".3" d="M203.862 614.435c1.943-1.234 3.34-2.59.614-2.945h-7.677l-15.334-8.952 12.049 17.346 10.348-5.449Z" fill="url('#paint61_linear_37_961')"/><path style="mix-blend-mode:multiply" opacity=".3" d="M201.371 582.722c-.823.827-3.378 24.184-2.282 26.441 1.097 2.256 10.864 2.056 10.864 2.056l-8.766-35.656 6.34 25.789s-5.336-19.457-6.156-18.63Z" fill="url('#paint62_linear_37_961')"/><path style="mix-blend-mode:screen" d="M181.471 602.547s8.029-13.932 16.611-3.318l3.105-23.666-19.716 26.984Z" fill="url('#paint63_linear_37_961')"/><path style="mix-blend-mode:screen" d="M169.305 670.003c53.307 0 96.521-43.446 96.521-97.039 0-53.594-43.214-97.04-96.521-97.04-53.306 0-96.52 43.446-96.52 97.04 0 53.593 43.214 97.039 96.52 97.039Z" fill="url('#paint64_radial_37_961')"/><path style="mix-blend-mode:screen" opacity=".64" d="M198.084 661.859c34.403 0 62.292-28.039 62.292-62.627 0-34.589-27.889-62.628-62.292-62.628-34.404 0-62.293 28.039-62.293 62.628 0 34.588 27.889 62.627 62.293 62.627Z" fill="url('#paint65_radial_37_961')"/><defs><radialGradient id="paint8_radial_37_961" cx="0" cy="0" r="1" gradientUnits="userSpaceOnUse" gradientTransform="matrix(77.78122 131.52505 -115.2543 68.15904 222.123 435.161)"><stop stop-color="#16DCF2"/><stop offset="1" stop-color="#011126"/></radialGradient><radialGradient id="paint9_radial_37_961" cx="0" cy="0" r="1" gradientUnits="userSpaceOnUse" gradientTransform="matrix(9.46349 0 0 9.51441 224.534 402.664)"><stop stop-color="#16DCF2"/><stop offset="1" stop-color="#011126"/></radialGradient><radialGradient id="paint10_radial_37_961" cx="0" cy="0" r="1" gradientUnits="userSpaceOnUse" gradientTransform="matrix(9.46349 0 0 9.51441 220.542 357.982)"><stop stop-color="#16DCF2"/><stop offset="1" stop-color="#011126"/></radialGradient><radialGradient id="paint11_radial_37_961" cx="0" cy="0" r="1" gradientUnits="userSpaceOnUse" gradientTransform="rotate(-6.424 4367.924 -2324.96) scale(9.46412 9.51377)"><stop stop-color="#16DCF2"/><stop offset="1" stop-color="#011126"/></radialGradient><radialGradient id="paint12_radial_37_961" cx="0" cy="0" r="1" gradientUnits="userSpaceOnUse" gradientTransform="matrix(9.46348 0 0 9.51441 292.54 563.449)"><stop stop-color="#16DCF2"/><stop offset="1" stop-color="#011126"/></radialGradient><radialGradient id="paint13_radial_37_961" cx="0" cy="0" r="1" gradientUnits="userSpaceOnUse" gradientTransform="rotate(-32.028 1021.88 -72.361) scale(9.47772 9.50011)"><stop stop-color="#16DCF2"/><stop offset="1" stop-color="#011126"/></radialGradient><radialGradient id="paint14_radial_37_961" cx="0" cy="0" r="1" gradientUnits="userSpaceOnUse" gradientTransform="matrix(9.46349 0 0 9.51441 336.485 487.146)"><stop stop-color="#16DCF2"/><stop offset="1" stop-color="#011126"/></radialGradient><radialGradient id="paint15_radial_37_961" cx="0" cy="0" r="1" gradientUnits="userSpaceOnUse" gradientTransform="matrix(8.74312 3.64098 -3.6548 8.7763 349.306 431.5)"><stop stop-color="#16DCF2"/><stop offset="1" stop-color="#011126"/></radialGradient><radialGradient id="paint16_radial_37_961" cx="0" cy="0" r="1" gradientUnits="userSpaceOnUse" gradientTransform="matrix(9.46349 0 0 9.51441 375.538 329.062)"><stop stop-color="#16DCF2"/><stop offset="1" stop-color="#011126"/></radialGradient><radialGradient id="paint17_radial_37_961" cx="0" cy="0" r="1" gradientUnits="userSpaceOnUse" gradientTransform="matrix(9.46349 0 0 9.51441 88.86 185.438)"><stop stop-color="#16DCF2"/><stop offset="1" stop-color="#011126"/></radialGradient><radialGradient id="paint18_radial_37_961" cx="0" cy="0" r="1" gradientUnits="userSpaceOnUse" gradientTransform="matrix(9.46349 0 0 9.51441 101.68 129.794)"><stop stop-color="#16DCF2"/><stop offset="1" stop-color="#011126"/></radialGradient><radialGradient id="paint19_radial_37_961" cx="0" cy="0" r="1" gradientUnits="userSpaceOnUse" gradientTransform="matrix(9.46349 0 0 9.51441 174.643 79.286)"><stop stop-color="#16DCF2"/><stop offset="1" stop-color="#011126"/></radialGradient><radialGradient id="paint20_radial_37_961" cx="0" cy="0" r="1" gradientUnits="userSpaceOnUse" gradientTransform="matrix(9.46349 0 0 9.51441 157.155 475.186)"><stop stop-color="#16DCF2"/><stop offset="1" stop-color="#011126"/></radialGradient><radialGradient id="paint21_radial_37_961" cx="0" cy="0" r="1" gradientUnits="userSpaceOnUse" gradientTransform="matrix(7.71683 -5.50745 5.51713 7.7304 67.367 521.374)"><stop stop-color="#16DCF2"/><stop offset="1" stop-color="#011126"/></radialGradient><radialGradient id="paint22_radial_37_961" cx="0" cy="0" r="1" gradientUnits="userSpaceOnUse" gradientTransform="matrix(9.46349 0 0 9.51441 91.55 547.35)"><stop stop-color="#16DCF2"/><stop offset="1" stop-color="#011126"/></radialGradient><radialGradient id="paint23_radial_37_961" cx="0" cy="0" r="1" gradientUnits="userSpaceOnUse" gradientTransform="matrix(9.46349 0 0 9.51439 122.962 335.684)"><stop stop-color="#16DCF2"/><stop offset="1" stop-color="#011126"/></radialGradient><radialGradient id="paint24_radial_37_961" cx="0" cy="0" r="1" gradientUnits="userSpaceOnUse" gradientTransform="matrix(9.46349 0 0 9.51441 75.462 368.488)"><stop stop-color="#16DCF2"/><stop offset="1" stop-color="#011126"/></radialGradient><radialGradient id="paint25_radial_37_961" cx="0" cy="0" r="1" gradientUnits="userSpaceOnUse" gradientTransform="matrix(9.46349 0 0 9.51441 71.954 338.792)"><stop stop-color="#16DCF2"/><stop offset="1" stop-color="#011126"/></radialGradient><radialGradient id="paint26_radial_37_961" cx="0" cy="0" r="1" gradientUnits="userSpaceOnUse" gradientTransform="matrix(8.76944 3.57647 -3.59024 8.8032 9.45 330.803)"><stop stop-color="#16DCF2"/><stop offset="1" stop-color="#011126"/></radialGradient><radialGradient id="paint27_radial_37_961" cx="0" cy="0" r="1" gradientUnits="userSpaceOnUse" gradientTransform="matrix(9.46349 0 0 9.5144 138.917 222.452)"><stop stop-color="#16DCF2"/><stop offset="1" stop-color="#011126"/></radialGradient><radialGradient id="paint28_radial_37_961" cx="0" cy="0" r="1" gradientUnits="userSpaceOnUse" gradientTransform="matrix(8.7713 3.57186 -3.58562 8.8051 272.915 243.54)"><stop stop-color="#16DCF2"/><stop offset="1" stop-color="#011126"/></radialGradient><radialGradient id="paint29_radial_37_961" cx="0" cy="0" r="1" gradientUnits="userSpaceOnUse" gradientTransform="matrix(9.46349 0 0 9.51441 286.712 309.079)"><stop stop-color="#16DCF2"/><stop offset="1" stop-color="#011126"/></radialGradient><radialGradient id="paint30_radial_37_961" cx="0" cy="0" r="1" gradientUnits="userSpaceOnUse" gradientTransform="matrix(7.67742 -5.56283 5.57221 7.69036 339.159 308.729)"><stop stop-color="#16DCF2"/><stop offset="1" stop-color="#011126"/></radialGradient><radialGradient id="paint31_radial_37_961" cx="0" cy="0" r="1" gradientUnits="userSpaceOnUse" gradientTransform="matrix(9.46349 0 0 9.5144 157.713 124.956)"><stop stop-color="#16DCF2"/><stop offset="1" stop-color="#011126"/></radialGradient><radialGradient id="paint32_radial_37_961" cx="0" cy="0" r="1" gradientUnits="userSpaceOnUse" gradientTransform="matrix(9.46348 0 0 9.5144 171.501 190.52)"><stop stop-color="#16DCF2"/><stop offset="1" stop-color="#011126"/></radialGradient><radialGradient id="paint33_radial_37_961" cx="0" cy="0" r="1" gradientUnits="userSpaceOnUse" gradientTransform="matrix(9.46349 0 0 9.51441 223.938 190.149)"><stop stop-color="#16DCF2"/><stop offset="1" stop-color="#011126"/></radialGradient><radialGradient id="paint34_radial_37_961" cx="0" cy="0" r="1" gradientUnits="userSpaceOnUse" gradientTransform="matrix(9.46349 0 0 9.51441 98.323 330.004)"><stop stop-color="#16DCF2"/><stop offset="1" stop-color="#011126"/></radialGradient><radialGradient id="paint35_radial_37_961" cx="0" cy="0" r="1" gradientUnits="userSpaceOnUse" gradientTransform="matrix(9.3148 1.67994 -1.68841 9.36177 227.894 15.183)"><stop stop-color="#16DCF2"/><stop offset="1" stop-color="#011126"/></radialGradient><radialGradient id="paint36_radial_37_961" cx="0" cy="0" r="1" gradientUnits="userSpaceOnUse" gradientTransform="matrix(9.46349 0 0 9.51441 180.391 47.998)"><stop stop-color="#16DCF2"/><stop offset="1" stop-color="#011126"/></radialGradient><radialGradient id="paint37_radial_37_961" cx="0" cy="0" r="1" gradientUnits="userSpaceOnUse" gradientTransform="matrix(7.6861 -5.5507 5.56015 7.6992 176.89 18.308)"><stop stop-color="#16DCF2"/><stop offset="1" stop-color="#011126"/></radialGradient><radialGradient id="paint38_radial_37_961" cx="0" cy="0" r="1" gradientUnits="userSpaceOnUse" gradientTransform="matrix(9.46349 0 0 9.51441 203.255 9.514)"><stop stop-color="#16DCF2"/><stop offset="1" stop-color="#011126"/></radialGradient><radialGradient id="paint39_radial_37_961" cx="0" cy="0" r="1" gradientUnits="userSpaceOnUse" gradientTransform="matrix(25.4734 0 0 25.6105 335.669 367.497)"><stop stop-color="#16DCF2"/><stop offset="1" stop-color="#011126"/></radialGradient><radialGradient id="paint40_radial_37_961" cx="0" cy="0" r="1" gradientUnits="userSpaceOnUse" gradientTransform="matrix(20.72795 -14.88665 14.91237 20.76377 154.925 389.016)"><stop stop-color="#16DCF2"/><stop offset="1" stop-color="#011126"/></radialGradient><radialGradient id="paint41_radial_37_961" cx="0" cy="0" r="1" gradientUnits="userSpaceOnUse" gradientTransform="matrix(25.4734 0 0 25.6105 111.143 502.763)"><stop stop-color="#16DCF2"/><stop offset="1" stop-color="#011126"/></radialGradient><radialGradient id="paint42_radial_37_961" cx="0" cy="0" r="1" gradientUnits="userSpaceOnUse" gradientTransform="matrix(25.4734 0 0 25.6105 350.812 310.982)"><stop stop-color="#16DCF2"/><stop offset="1" stop-color="#011126"/></radialGradient><radialGradient id="paint43_radial_37_961" cx="0" cy="0" r="1" gradientUnits="userSpaceOnUse" gradientTransform="matrix(25.4734 0 0 25.6105 136.616 442.716)"><stop stop-color="#16DCF2"/><stop offset="1" stop-color="#011126"/></radialGradient><radialGradient id="paint44_radial_37_961" cx="0" cy="0" r="1" gradientUnits="userSpaceOnUse" gradientTransform="matrix(25.4734 0 0 25.6105 49.99 300.562)"><stop stop-color="#16DCF2"/><stop offset="1" stop-color="#011126"/></radialGradient><radialGradient id="paint45_radial_37_961" cx="0" cy="0" r="1" gradientUnits="userSpaceOnUse" gradientTransform="matrix(20.72795 -14.88665 14.91237 20.76377 152.966 268.779)"><stop stop-color="#16DCF2"/><stop offset="1" stop-color="#011126"/></radialGradient><radialGradient id="paint46_radial_37_961" cx="0" cy="0" r="1" gradientUnits="userSpaceOnUse" gradientTransform="matrix(25.4734 0 0 25.6105 203.376 109.054)"><stop stop-color="#16DCF2"/><stop offset="1" stop-color="#011126"/></radialGradient><radialGradient id="paint47_radial_37_961" cx="0" cy="0" r="1" gradientUnits="userSpaceOnUse" gradientTransform="matrix(25.4734 0 0 25.6105 300.667 163.27)"><stop stop-color="#16DCF2"/><stop offset="1" stop-color="#011126"/></radialGradient><radialGradient id="paint48_radial_37_961" cx="0" cy="0" r="1" gradientUnits="userSpaceOnUse" gradientTransform="rotate(-35.926 960.612 -232.306) scale(25.5204 25.5634)"><stop stop-color="#16DCF2"/><stop offset="1" stop-color="#011126"/></radialGradient><radialGradient id="paint64_radial_37_961" cx="0" cy="0" r="1" gradientUnits="userSpaceOnUse" gradientTransform="matrix(96.5202 0 0 97.0395 169.305 572.964)"><stop stop-color="#157EBF"/><stop offset="1" stop-color="#011126"/></radialGradient><radialGradient id="paint65_radial_37_961" cx="0" cy="0" r="1" gradientUnits="userSpaceOnUse" gradientTransform="matrix(62.2926 0 0 62.6278 198.084 599.232)"><stop stop-color="#157EBF"/><stop offset="1" stop-color="#011126"/></radialGradient><linearGradient id="paint0_linear_37_961" x1="212.221" y1="564.616" x2="212.221" y2="42.463" gradientUnits="userSpaceOnUse"><stop stop-color="#16DCF2"/><stop offset="1" stop-color="#0D000D"/></linearGradient><linearGradient id="paint1_linear_37_961" x1="212.221" y1="564.616" x2="212.221" y2="42.463" gradientUnits="userSpaceOnUse"><stop stop-color="#16DCF2"/><stop offset="1" stop-color="#0D000D"/></linearGradient><linearGradient id="paint2_linear_37_961" x1="318.305" y1="390.353" x2="433.405" y2="390.353" gradientUnits="userSpaceOnUse"><stop stop-color="#AF434D"/><stop offset=".11" stop-color="#B85457"/><stop offset=".53" stop-color="#D9937C"/><stop offset=".84" stop-color="#EDBA93"/><stop offset="1" stop-color="#F5C99C"/></linearGradient><linearGradient id="paint3_linear_37_961" x1="386.557" y1="291.477" x2="83.551" y2="592.861" gradientUnits="userSpaceOnUse"><stop stop-color="#F4FFBF"/><stop offset=".35" stop-color="#F8D8B0"/><stop offset="1" stop-color="#FF8890"/></linearGradient><linearGradient id="paint4_linear_37_961" x1="143.637" y1="578.601" x2="143.637" y2="356.941" gradientUnits="userSpaceOnUse"><stop stop-color="#F5C99C"/><stop offset=".09" stop-color="#EEC398"/><stop offset=".22" stop-color="#DBB38B"/><stop offset=".38" stop-color="#B97"/><stop offset=".56" stop-color="#8E755B"/><stop offset=".75" stop-color="#554636"/><stop offset=".95" stop-color="#110E0B"/><stop offset="1"/></linearGradient><linearGradient id="paint5_linear_37_961" x1="147.819" y1="286.895" x2="253.833" y2="286.895" gradientUnits="userSpaceOnUse"><stop/><stop offset=".05" stop-color="#110E0B"/><stop offset=".25" stop-color="#554636"/><stop offset=".44" stop-color="#8E755B"/><stop offset=".62" stop-color="#B97"/><stop offset=".78" stop-color="#DBB38B"/><stop offset=".91" stop-color="#EEC398"/><stop offset="1" stop-color="#F5C99C"/></linearGradient><linearGradient id="paint6_linear_37_961" x1="345.413" y1="405.838" x2="270.16" y2="428.462" gradientUnits="userSpaceOnUse"><stop offset=".22" stop-color="#F4FFBF"/><stop offset=".45" stop-color="#AAB285"/><stop offset=".83" stop-color="#313326"/><stop offset="1"/></linearGradient><linearGradient id="paint7_linear_37_961" x1="156.328" y1="486.849" x2="340.938" y2="406.866" gradientUnits="userSpaceOnUse"><stop offset=".2" stop-color="#fff"/><stop offset=".5" stop-color="#D8A9B3"/><stop offset="1" stop-color="#951631"/></linearGradient><linearGradient id="paint49_linear_37_961" x1="153.765" y1="552.172" x2="264.868" y2="662.68" gradientUnits="userSpaceOnUse"><stop stop-color="#157EBF"/><stop offset="1" stop-color="#16DCF2"/></linearGradient><linearGradient id="paint50_linear_37_961" x1="164.74" y1="588.72" x2="188.295" y2="588.72" gradientUnits="userSpaceOnUse"><stop stop-color="#16DCF2"/><stop offset="1" stop-color="#011126"/></linearGradient><linearGradient id="paint51_linear_37_961" x1="139.728" y1="562.838" x2="184.917" y2="562.838" gradientUnits="userSpaceOnUse"><stop stop-color="#011126"/><stop offset="1" stop-color="#16DCF2"/></linearGradient><linearGradient id="paint52_linear_37_961" x1="181.996" y1="523.527" x2="133.054" y2="572.21" gradientUnits="userSpaceOnUse"><stop stop-color="#0D000D"/><stop offset="1" stop-color="#157EBF"/></linearGradient><linearGradient id="paint53_linear_37_961" x1="172.183" y1="591.702" x2="172.183" y2="529.658" gradientUnits="userSpaceOnUse"><stop stop-color="#fff"/><stop offset="1" stop-color="#002EAE"/></linearGradient><linearGradient id="paint54_linear_37_961" x1="169.305" y1="618.686" x2="169.305" y2="600.516" gradientUnits="userSpaceOnUse"><stop stop-color="#fff"/><stop offset="1" stop-color="#002EAE"/></linearGradient><linearGradient id="paint55_linear_37_961" x1="154.785" y1="606.168" x2="154.785" y2="562.606" gradientUnits="userSpaceOnUse"><stop stop-color="#fff"/><stop offset="1" stop-color="#002EAE"/></linearGradient><linearGradient id="paint56_linear_37_961" x1="180.486" y1="616.115" x2="180.486" y2="565.613" gradientUnits="userSpaceOnUse"><stop stop-color="#fff"/><stop offset="1" stop-color="#002EAE"/></linearGradient><linearGradient id="paint57_linear_37_961" x1="149.476" y1="531.751" x2="168.081" y2="550.254" gradientUnits="userSpaceOnUse"><stop stop-color="#16DCF2"/><stop offset="1" stop-color="#011126"/></linearGradient><linearGradient id="paint58_linear_37_961" x1="186.277" y1="586.593" x2="231.357" y2="631.435" gradientUnits="userSpaceOnUse"><stop stop-color="#157EBF"/><stop offset="1" stop-color="#16DCF2"/></linearGradient><linearGradient id="paint59_linear_37_961" x1="181.471" y1="596.049" x2="209.953" y2="596.049" gradientUnits="userSpaceOnUse"><stop stop-color="#16DCF2"/><stop offset=".57" stop-color="#157EBF"/><stop offset="1" stop-color="#011126"/></linearGradient><linearGradient id="paint60_linear_37_961" x1="211.533" y1="579.487" x2="137.87" y2="652.755" gradientUnits="userSpaceOnUse"><stop/><stop offset=".39" stop-color="#157EBF"/><stop offset="1" stop-color="#16DCF2"/></linearGradient><linearGradient id="paint61_linear_37_961" x1="193.732" y1="619.893" x2="193.732" y2="602.547" gradientUnits="userSpaceOnUse"><stop stop-color="#fff"/><stop offset="1" stop-color="#002EAE"/></linearGradient><linearGradient id="paint62_linear_37_961" x1="204.386" y1="611.225" x2="204.386" y2="575.563" gradientUnits="userSpaceOnUse"><stop stop-color="#fff"/><stop offset="1" stop-color="#002EAE"/></linearGradient><linearGradient id="paint63_linear_37_961" x1="190.999" y1="588.723" x2="201.272" y2="598.942" gradientUnits="userSpaceOnUse"><stop stop-color="#157EBF"/><stop offset="1" stop-color="#0D000D"/></linearGradient></defs></svg>