<svg width="416" height="423" fill="none" xmlns="http://www.w3.org/2000/svg"><g clip-path="url('#clip0_41_1298')"><path style="mix-blend-mode:screen" d="M5.301 262.648C-20.899 150.8 48.56 38.896 160.438 12.703c111.88-26.192 223.815 43.245 250.015 155.093 26.2 111.848-43.257 223.752-155.136 249.945-111.88 26.192-223.816-43.245-250.016-155.093Z" fill="url('#paint0_radial_41_1298')"/><path fill-rule="evenodd" clip-rule="evenodd" d="M242.072 313.974c-30.965 17.85-48.482 45.192-39.102 61.8 9.38 16.608 42.154 15.026 73.232-2.825 31.079-17.85 48.483-45.192 39.103-61.913-9.38-16.721-42.154-15.026-73.233 2.938Z" fill="url('#paint1_radial_41_1298')"/><path fill-rule="evenodd" clip-rule="evenodd" d="M201.387 373.627c8.476 14.801 40.572 12.089 71.763-5.875 31.192-17.963 49.613-44.514 41.024-59.201-14.127 27.002-65.887 63.495-113.013 65.076h.226Z" fill="#5ACCC9" style="mix-blend-mode:multiply"/><path opacity=".15" fill-rule="evenodd" clip-rule="evenodd" d="m149.854 91.627 8.023 13.671c11.302 18.981 6.442 13.897 24.411 27.68a67.817 67.817 0 0 0 33.904 13.784c39.555 7.118 75.832 22.596 96.739 58.637a98.827 98.827 0 0 1 12.883 48.695 119.964 119.964 0 0 1-17.028 58.219 120.003 120.003 0 0 1-43.337 42.452 120.046 120.046 0 0 1-117.404 1.011 97.398 97.398 0 0 1-35.146-35.589c-21.02-36.266-16.048-75.245-2.487-112.98a69.123 69.123 0 0 0 4.86-35.815c-2.939-22.596-1.13-15.592-11.301-34.911l-7.798-13.897a138.784 138.784 0 0 0 54.133-31.296l-.452.34Z" fill="#fff"/><path fill-rule="evenodd" clip-rule="evenodd" d="M213.028 181.108c-60.235 0-108.944 22.596-108.944 49.938 0 27.341 48.709 49.937 108.944 49.937 60.236 0 108.945-22.596 108.945-49.937 0-27.342-48.822-49.938-108.945-49.938Z" fill="url('#paint2_radial_41_1298')"/><path fill-rule="evenodd" clip-rule="evenodd" d="M213.028 280.983c60.123 0 108.944-22.596 108.944-49.937a25.312 25.312 0 0 0-1.13-7.118 101.645 101.645 0 0 1 4.972 29.714 119.954 119.954 0 0 1-16.867 58.374 120.02 120.02 0 0 1-101.958 58.579 120.057 120.057 0 0 1-58.944-14.818 97.413 97.413 0 0 1-35.146-35.589 119.738 119.738 0 0 1-8.25-95.13 22.554 22.554 0 0 0-.565 5.536c0 27.567 48.708 49.937 108.944 49.937v.452Z" fill="url('#paint3_radial_41_1298')"/><path style="mix-blend-mode:screen" fill-rule="evenodd" clip-rule="evenodd" d="M122.393 252.512c0-25.76 45.205-46.774 101.711-46.774 44.64 0 82.726 13.219 96.513 31.522-6.668 24.629-52.551 43.723-108.04 43.723a170.237 170.237 0 0 1-89.506-21.466 21.124 21.124 0 0 1-1.13-7.005h.452Z" fill="url('#paint4_radial_41_1298')"/><path style="mix-blend-mode:screen" fill-rule="evenodd" clip-rule="evenodd" d="M150.533 257.822c0-22.596 38.989-39.995 87.245-39.995 36.73 0 67.808 10.394 81.031 25.195-11.302 21.805-54.699 37.961-105.78 37.961a214.773 214.773 0 0 1-54.812-6.779 23.155 23.155 0 0 1-7.684-16.382Z" fill="url('#paint5_radial_41_1298')"/><path style="mix-blend-mode:screen" fill-rule="evenodd" clip-rule="evenodd" d="M213.028 280.983c51.081 0 94.026-16.156 105.78-37.961a24.63 24.63 0 0 0 2.147-5.423 84.95 84.95 0 0 1 1.582 15.139 105.28 105.28 0 0 1-14.535 51.466 105.313 105.313 0 0 1-37.95 37.691 105.351 105.351 0 0 1-103.472 1.228 86.783 86.783 0 0 1-30.853-31.183 94.09 94.09 0 0 1-12.431-52.197 117.424 117.424 0 0 0 34.695 14.687 214.76 214.76 0 0 0 54.811 6.779l.226-.226Z" fill="url('#paint6_radial_41_1298')"/><path style="mix-blend-mode:screen" fill-rule="evenodd" clip-rule="evenodd" d="M213.029 280.757c51.081 0 94.026-16.156 105.78-37.961l-.791-.904a5.644 5.644 0 0 0 0-1.469c.042.715.042 1.432 0 2.147a77.07 77.07 0 0 1 .791 10.168 85.758 85.758 0 0 1-42.819 72.495 85.79 85.79 0 0 1-84.208.942 71.404 71.404 0 0 1-25.201-25.42 77.248 77.248 0 0 1-9.268-26.777 214.773 214.773 0 0 0 54.812 6.779h.904Z" fill="url('#paint7_radial_41_1298')"/><path fill-rule="evenodd" clip-rule="evenodd" d="m94.703 141.678-9.38-16.721a47.944 47.944 0 0 0 5.764-.904 56.297 56.297 0 0 0 5.876-1.582l7.685 13.671a75.895 75.895 0 0 1 7.007 71.856c-13.448 37.396-18.421 76.036 2.373 111.964a96.73 96.73 0 0 0 34.695 35.137 118.692 118.692 0 0 0 116.536-1.323 118.65 118.65 0 0 0 42.773-42.414 118.61 118.61 0 0 0 16.426-57.946 97.71 97.71 0 0 0-13.109-47.565c-20.682-35.928-56.507-50.728-95.835-58.072a16.385 16.385 0 0 0-13.11 2.373c-10.51 7.795-18.308 20.788-35.034 28.471 9.719-7.344 24.185-24.291 24.298-33.895a6.103 6.103 0 0 0-2.26-5.197 81.694 81.694 0 0 1-32.661-33.894l-7.911-13.332 4.295-4.406c1.017-1.13 2.26-2.711 3.616-4.52l9.832 16.383a64.52 64.52 0 0 0 50.969 36.719c43.397 7.796 81.369 24.969 103.746 63.495 32.095 55.587 9.493 128.798-50.517 163.37-60.01 34.572-134.485 17.625-166.581-37.961-22.602-38.64-18.195-80.217-3.277-121.568a64.502 64.502 0 0 0-6.216-62.139Z" fill="url('#paint8_radial_41_1298')"/><path style="mix-blend-mode:screen" fill-rule="evenodd" clip-rule="evenodd" d="M109.734 147.44a102.794 102.794 0 0 1 2.826 42.707 429.435 429.435 0 0 1-9.267 47 286.487 286.487 0 0 0 17.855-48.469 93.856 93.856 0 0 0-11.301-41.238h-.113Z" fill="url('#paint9_linear_41_1298')"/><path style="mix-blend-mode:screen" opacity=".5" fill-rule="evenodd" clip-rule="evenodd" d="m120.697 103.829-25.88 14.688c20.569 35.589 48.822 57.733 63.061 49.485 14.24-8.247 9.267-43.836-11.301-79.086l-25.88 15.026v-.113Z" fill="url('#paint10_radial_41_1298')"/><path style="mix-blend-mode:screen" opacity=".5" fill-rule="evenodd" clip-rule="evenodd" d="m129.964 97.502-11.98 7.796c14.127 22.596 30.853 37.623 37.408 33.894 6.554-3.728.565-26.098-13.562-48.807l-11.866 7.682v-.565Z" fill="url('#paint11_radial_41_1298')"/><path style="mix-blend-mode:screen" fill-rule="evenodd" clip-rule="evenodd" d="M254.165 187.435c2.486-2.485 5.651-5.536 9.041-5.31 12.657 0 27.801 16.156 33.904 25.76a79.075 79.075 0 0 1 11.301 75.132c-3.051 6.892-22.602 19.207-23.62 14.687a71.156 71.156 0 0 0-8.023-33.894 115.355 115.355 0 0 0-31.531-35.137c-12.318-9.49-13.109-12.654-8.476-19.433a217.284 217.284 0 0 1 17.404-22.596v.791Zm-54.585-17.286c-12.884 14.349-12.319 22.596-6.442 29.375 11.301 12.541 28.705 6.666 40.007-7.344 11.301-14.009 13.448-21.466 7.458-27.793-8.928-9.377-28.14-8.473-41.023 5.762Z" fill="url('#paint12_radial_41_1298')"/><path fill-rule="evenodd" clip-rule="evenodd" d="M207.04 171.279a19.431 19.431 0 0 1 12.112-7.343c4.817-.838 9.773.17 13.88 2.824 3.617 3.615 2.035 8.134-5.424 16.834-7.459 8.699-18.76 12.654-25.315 5.423-3.052-3.841-3.164-8.813 4.747-17.738Zm57.41 19.32c1.469-.904 3.164-.904 5.877 0a72.635 72.635 0 0 1 20.907 19.432 73.658 73.658 0 0 1 14.805 60.558c-.678 2.034-2.148 5.988-4.295 6.779-2.147.791-1.921 0-2.486-3.051a71.157 71.157 0 0 0-8.476-20.336 139.44 139.44 0 0 0-34.921-37.849c-4.633-3.502-5.538-5.649-5.086-7.569a109.626 109.626 0 0 1 14.24-17.964h-.565Z" fill="url('#paint13_radial_41_1298')" style="mix-blend-mode:screen"/><path style="mix-blend-mode:screen" opacity=".5" fill-rule="evenodd" clip-rule="evenodd" d="m132.337 97.502-6.102 4.181c9.493 16.269 20.003 27.567 23.393 25.195 3.391-2.373-1.582-17.287-11.301-33.895l-6.103 4.18.113.34Z" fill="url('#paint14_radial_41_1298')"/><path fill-rule="evenodd" clip-rule="evenodd" d="M94.817 141.904c3.504 5.988 20.229-2.147 37.294-18.19 17.065-16.043 28.254-33.894 24.863-39.77a127.256 127.256 0 0 1-71.763 41.239l9.719 16.834-.113-.113Z" fill="#7F8E99" style="mix-blend-mode:multiply" opacity=".5"/><path fill-rule="evenodd" clip-rule="evenodd" d="M67.806 126.313c7.007 7.795 32.548 2.485 58.654-12.541 26.106-15.027 43.51-34.572 40.232-44.628a91.598 91.598 0 0 0-17.178-27.115l-48.369 27.793-48.257 27.906a91.173 91.173 0 0 0 14.918 28.585Zm0-30.166 36.051-20.789 36.051-20.788a45.148 45.148 0 0 1 4.973 7.456c13.561 23.726-59.332 65.755-73.006 42.255a49.68 49.68 0 0 1-4.069-8.134Z" fill="url('#paint15_radial_41_1298')"/><path opacity=".15" fill-rule="evenodd" clip-rule="evenodd" d="M71.424 104.959a59.994 59.994 0 0 1-4.747-9.377l37.181-21.58 37.295-21.353a56.484 56.484 0 0 1 5.763 8.7c14.579 25.307-60.914 68.918-75.492 43.61Z" fill="#fff"/><path fill-rule="evenodd" clip-rule="evenodd" d="M81.481 105.524c3.842 4.519 19.325 1.017 35.486-8.36 16.161-9.378 26.106-20.111 25.089-25.873a139.534 139.534 0 0 0-6.894-16.043l-63.74 36.718a157.28 157.28 0 0 0 10.059 13.558Z" fill="#8E633F"/><path style="mix-blend-mode:screen" fill-rule="evenodd" clip-rule="evenodd" d="M211.333 374.87c35.486 3.051 85.437-22.596 98.999-56.49a154.949 154.949 0 0 1-98.999 56.49Z" fill="url('#paint16_linear_41_1298')"/><path fill-rule="evenodd" clip-rule="evenodd" d="M174.152 366.058a120.71 120.71 0 0 1-47.59-34.195 120.652 120.652 0 0 1-25.868-52.574c1.243 46.209 29.722 80.781 73.458 86.769Z" fill="#fff"/><path style="mix-blend-mode:screen" fill-rule="evenodd" clip-rule="evenodd" d="M158.669 79.651c1.695-8.7-11.302-26.324-16.613-33.894l7.459-4.18a91.614 91.614 0 0 1 17.177 27.115c3.052 9.378-11.301 26.664-34.468 41.125 10.623-7.682 24.41-19.658 26.445-30.617v.451Z" fill="url('#paint17_radial_41_1298')"/><path fill-rule="evenodd" clip-rule="evenodd" d="M92.217 54.344c-26.67 15.365-44.3 34.798-39.328 43.384 4.972 8.587 30.513 3.164 57.297-12.314 26.784-15.479 44.189-34.799 39.329-43.385-4.86-8.587-30.627-3.05-57.298 12.315Z" fill="url('#paint18_radial_41_1298')"/><path fill-rule="evenodd" clip-rule="evenodd" d="M65.66 101.683a97.214 97.214 0 0 0 46.561-15.366 144.714 144.714 0 0 0 17.065-11.298 7.465 7.465 0 0 0 8.627 2.532 7.47 7.47 0 0 0 2.675-1.74 12.538 12.538 0 0 0 2.938-14.349c6.216-7.457 8.815-14.123 6.329-18.416l-.565-.791c3.164 8.473-15.031 27.341-41.702 42.707a139.714 139.714 0 0 1-42.04 16.947l.112-.226Z" fill="#fff"/><path fill-rule="evenodd" clip-rule="evenodd" d="M68.146 87.447c4.181 4.858 20.794 1.017 37.972-8.925 17.178-9.943 28.027-21.58 26.897-27.794A362.353 362.353 0 0 0 109.621 1.13L44.978 56.264c7.798 10.734 14.918 21.467 22.603 31.183h.565Z" fill="#8E633F"/><path style="mix-blend-mode:screen" fill-rule="evenodd" clip-rule="evenodd" d="M67.806 81.12c3.73 4.293 18.986.678 34.921-8.586 15.935-9.265 25.88-19.772 24.976-25.308a305.752 305.752 0 0 0-20.569-43.95L48.142 53.553c7.007 9.603 12.205 18.868 19.664 27.567Z" fill="url('#paint19_radial_41_1298')"/><path style="mix-blend-mode:screen" fill-rule="evenodd" clip-rule="evenodd" d="M78.882 30.73c13.109 22.597 25.653 33.895 35.712 26.1 10.058-7.796 4.068-28.698-9.268-51.294l-26.67 25.76.225-.565Z" fill="url('#paint20_radial_41_1298')"/><path fill-rule="evenodd" clip-rule="evenodd" d="M105.327 48.695a8.252 8.252 0 0 0-7.572 8.36 11.296 11.296 0 0 0 6.102 10.62c3.504 1.13 7.572-4.858 8.476-10.394.905-5.536-2.599-9.49-7.006-8.586Z" fill="url('#paint21_linear_41_1298')"/><path fill-rule="evenodd" clip-rule="evenodd" d="M64.077 63.043a10.617 10.617 0 0 0 3.729 12.88 9.722 9.722 0 0 0 11.866-2.146c2.26-2.712 0-7.796-3.955-10.734-3.956-2.937-9.493-3.276-11.301 0h-.34Z" fill="url('#paint22_linear_41_1298')"/><path fill-rule="evenodd" clip-rule="evenodd" d="M72.1 19.546C90.523 5.31 106.91-3.954 110.413 2.034c1.809 3.163 0 9.716-4.972 17.399a11.295 11.295 0 0 1 0 14.122 10.284 10.284 0 0 1-13.562 2.486c-2.034 2.034-4.294 3.954-6.668 5.988-18.873 15.478-35.937 21.127-40.119 14.235-4.181-6.891 8.589-22.37 27.01-36.718Z" fill="#EDCAA6" style="mix-blend-mode:screen" opacity=".25"/><path fill-rule="evenodd" clip-rule="evenodd" d="M71.422 18.303C53.34 33.329 41.474 50.276 44.977 56.265c3.504 5.987 20.908-1.243 38.99-16.157 18.082-14.913 29.835-31.973 26.445-38.074-3.391-6.101-21.02 1.356-38.99 16.269Z" fill="#936E4E"/><path style="mix-blend-mode:screen" fill-rule="evenodd" clip-rule="evenodd" d="M77.187 15.14C62.383 27.453 52.663 41.463 55.49 46.434c2.825 4.971 17.178-1.017 32.095-13.332 14.918-12.315 24.524-26.324 21.699-31.295-2.826-4.971-17.178 1.016-32.096 13.331Z" fill="url('#paint23_radial_41_1298')"/><path fill-rule="evenodd" clip-rule="evenodd" d="M86.793 10.394c-5.65 4.18-9.267 9.039-8.25 11.298 1.017 2.26 6.442 0 11.98-4.293 5.537-4.293 9.38-9.038 8.362-11.298-1.017-2.26-6.442 0-12.092 4.293Z" fill="url('#paint24_linear_41_1298')"/><path fill-rule="evenodd" clip-rule="evenodd" d="M74.588 32.2c-3.955 2.937-6.441 6.665-5.537 8.247.904 1.582 4.859 0 8.927-2.486 4.069-2.485 6.555-6.778 5.651-8.36-.904-1.582-4.972 0-9.04 2.599Z" fill="url('#paint25_linear_41_1298')"/><path fill-rule="evenodd" clip-rule="evenodd" d="M54.47 39.43c-4.407 3.616-7.232 8.022-6.215 9.83 1.017 1.807 5.65 0 10.058-3.164 4.407-3.163 7.233-8.134 6.216-9.942-1.017-1.808-5.538 0-10.058 3.276Z" fill="url('#paint26_linear_41_1298')"/><path fill-rule="evenodd" clip-rule="evenodd" d="M93.234 34.007a7.8 7.8 0 0 0 10.624-2.824c3.39-4.293 3.39-9.265.678-11.298-2.713-2.034-8.024 0-11.302 4.18-3.277 4.18-2.938 8.021 0 10.055v-.113Z" fill="url('#paint27_linear_41_1298')"/><path style="mix-blend-mode:screen" fill-rule="evenodd" clip-rule="evenodd" d="M114.369 299.286a101.674 101.674 0 0 0 22.817 35.081 101.724 101.724 0 0 0 76.303 29.809 101.752 101.752 0 0 0 40.564-10.32 208.427 208.427 0 0 1-139.684-54.57Z" fill="url('#paint28_radial_41_1298')"/></g><defs><radialGradient id="paint0_radial_41_1298" cx="0" cy="0" r="1" gradientUnits="userSpaceOnUse" gradientTransform="matrix(-208.056 0 0 -207.998 207.863 214.958)"><stop stop-color="#009DFF"/><stop offset=".13" stop-color="#007ECD"/><stop offset=".31" stop-color="#005890"/><stop offset=".48" stop-color="#00395C"/><stop offset=".64" stop-color="#002034"/><stop offset=".78" stop-color="#000F18"/><stop offset=".91" stop-color="#000406"/><stop offset="1"/></radialGradient><radialGradient id="paint1_radial_41_1298" cx="0" cy="0" r="1" gradientUnits="userSpaceOnUse" gradientTransform="matrix(-195.286 0 0 -195.231 351.921 253.529)"><stop stop-color="#fff"/><stop offset="1" stop-color="#5E689E"/></radialGradient><radialGradient id="paint2_radial_41_1298" cx="0" cy="0" r="1" gradientUnits="userSpaceOnUse" gradientTransform="matrix(-159.235 0 0 -159.19 252.357 289.344)"><stop stop-color="#4FC7FF"/><stop offset="1" stop-color="#0064B0"/></radialGradient><radialGradient id="paint3_radial_41_1298" cx="0" cy="0" r="1" gradientUnits="userSpaceOnUse" gradientTransform="matrix(-203.536 0 0 -203.478 250.774 261.664)"><stop stop-color="#00AEFF"/><stop offset=".61" stop-color="#003F7A"/><stop offset=".89" stop-color="#00ABFA"/></radialGradient><radialGradient id="paint4_radial_41_1298" cx="0" cy="0" r="1" gradientUnits="userSpaceOnUse" gradientTransform="matrix(-191.105 0 0 -191.05 241.395 309.793)"><stop stop-color="#007FE7"/><stop offset="1"/></radialGradient><radialGradient id="paint5_radial_41_1298" cx="0" cy="0" r="1" gradientUnits="userSpaceOnUse" gradientTransform="matrix(-166.016 0 0 -165.969 281.401 316.685)"><stop stop-color="#00A9E7"/><stop offset="1"/></radialGradient><radialGradient id="paint6_radial_41_1298" cx="0" cy="0" r="1" gradientUnits="userSpaceOnUse" gradientTransform="matrix(-135.728 0 0 -135.69 229.415 233.757)"><stop stop-color="#1DE4E7"/><stop offset="1"/></radialGradient><radialGradient id="paint7_radial_41_1298" cx="0" cy="0" r="1" gradientUnits="userSpaceOnUse" gradientTransform="matrix(-124.653 0 0 -124.618 261.963 245.507)"><stop stop-color="#1DE4E7"/><stop offset="1"/></radialGradient><radialGradient id="paint8_radial_41_1298" cx="0" cy="0" r="1" gradientUnits="userSpaceOnUse" gradientTransform="matrix(-441.541 0 0 -441.416 226.589 140.435)"><stop stop-color="#CCF0EF"/><stop offset="1" stop-color="#5E73E6"/></radialGradient><radialGradient id="paint10_radial_41_1298" cx="0" cy="0" r="1" gradientUnits="userSpaceOnUse" gradientTransform="matrix(-130.982 0 0 -130.945 204.666 77.166)"><stop stop-color="#fff"/><stop offset="1"/></radialGradient><radialGradient id="paint11_radial_41_1298" cx="0" cy="0" r="1" gradientUnits="userSpaceOnUse" gradientTransform="matrix(-70.407 0 0 -70.3871 162.963 94.452)"><stop stop-color="#fff"/><stop offset="1"/></radialGradient><radialGradient id="paint12_radial_41_1298" cx="0" cy="0" r="1" gradientUnits="userSpaceOnUse" gradientTransform="matrix(-189.41 0 0 -189.356 198.676 283.921)"><stop offset=".37"/><stop offset="1" stop-color="#fff"/></radialGradient><radialGradient id="paint13_radial_41_1298" cx="0" cy="0" r="1" gradientUnits="userSpaceOnUse" gradientTransform="matrix(-193.817 0 0 -193.762 214.385 262.906)"><stop/><stop offset="1" stop-color="#fff"/></radialGradient><radialGradient id="paint14_radial_41_1298" cx="0" cy="0" r="1" gradientUnits="userSpaceOnUse" gradientTransform="matrix(-50.6299 0 0 -50.6154 151.097 100.327)"><stop stop-color="#fff"/><stop offset="1"/></radialGradient><radialGradient id="paint15_radial_41_1298" cx="0" cy="0" r="1" gradientUnits="userSpaceOnUse" gradientTransform="matrix(-155.619 0 0 -155.575 143.638 41.69)"><stop stop-color="#CCF0EF"/><stop offset="1" stop-color="#364E82"/></radialGradient><radialGradient id="paint17_radial_41_1298" cx="0" cy="0" r="1" gradientUnits="userSpaceOnUse" gradientTransform="matrix(-60.6876 0 0 -60.6707 119.566 85.188)"><stop/><stop offset="1" stop-color="#fff"/></radialGradient><radialGradient id="paint18_radial_41_1298" cx="0" cy="0" r="1" gradientUnits="userSpaceOnUse" gradientTransform="matrix(-181.386 0 0 -181.334 148.95 39.995)"><stop stop-color="#F2FFFF"/><stop offset="1" stop-color="#6A79C2"/></radialGradient><radialGradient id="paint19_radial_41_1298" cx="0" cy="0" r="1" gradientUnits="userSpaceOnUse" gradientTransform="matrix(-76.2837 0 0 -76.262 107.361 17.4)"><stop stop-color="#CA9E67"/><stop offset="1"/></radialGradient><radialGradient id="paint20_radial_41_1298" cx="0" cy="0" r="1" gradientUnits="userSpaceOnUse" gradientTransform="matrix(-55.7152 0 0 -55.6995 105.553 7.344)"><stop stop-color="#CA9E67"/><stop offset="1"/></radialGradient><radialGradient id="paint23_radial_41_1298" cx="0" cy="0" r="1" gradientUnits="userSpaceOnUse" gradientTransform="matrix(-82.0474 0 0 -82.024 100.129 -19.094)"><stop stop-color="#CA9E67"/><stop offset="1"/></radialGradient><radialGradient id="paint28_radial_41_1298" cx="0" cy="0" r="1" gradientUnits="userSpaceOnUse" gradientTransform="matrix(-134.259 0 0 -134.221 198.111 275.221)"><stop stop-color="#1DE4E7"/><stop offset="1"/></radialGradient><linearGradient id="paint9_linear_41_1298" x1="118.549" y1="147.44" x2="94.829" y2="307.423" gradientUnits="userSpaceOnUse"><stop stop-color="#fff"/><stop offset="1"/></linearGradient><linearGradient id="paint16_linear_41_1298" x1="315.192" y1="322.786" x2="214.625" y2="382.917" gradientUnits="userSpaceOnUse"><stop stop-color="#fff"/><stop offset="1"/></linearGradient><linearGradient id="paint21_linear_41_1298" x1="99.337" y1="63.721" x2="111.878" y2="51.29" gradientUnits="userSpaceOnUse"><stop stop-color="#B07A38"/><stop offset="1" stop-color="#704824"/></linearGradient><linearGradient id="paint22_linear_41_1298" x1="65.885" y1="74.341" x2="76.618" y2="63.718" gradientUnits="userSpaceOnUse"><stop stop-color="#B07A38"/><stop offset="1" stop-color="#704824"/></linearGradient><linearGradient id="paint24_linear_41_1298" x1="98.998" y1="13.671" x2="78.317" y2="13.671" gradientUnits="userSpaceOnUse"><stop stop-color="#6B4E35"/><stop offset="1" stop-color="#87643A"/></linearGradient><linearGradient id="paint25_linear_41_1298" x1="83.742" y1="35.024" x2="68.825" y2="35.024" gradientUnits="userSpaceOnUse"><stop stop-color="#6B4E35"/><stop offset="1" stop-color="#87643A"/></linearGradient><linearGradient id="paint26_linear_41_1298" x1="64.755" y1="42.933" x2="48.029" y2="42.933" gradientUnits="userSpaceOnUse"><stop stop-color="#6B4E35"/><stop offset="1" stop-color="#87643A"/></linearGradient><linearGradient id="paint27_linear_41_1298" x1="92.556" y1="33.555" x2="105.436" y2="20.672" gradientUnits="userSpaceOnUse"><stop stop-color="#B07A38"/><stop offset="1" stop-color="#704824"/></linearGradient><clipPath id="clip0_41_1298"><path fill="#fff" transform="matrix(-1 0 0 1 416 0)" d="M0 0h416v423H0z"/></clipPath></defs></svg>