<svg aria-hidden="true" style="width:0;height:0;position:absolute;overflow:hidden" xmlns="http://www.w3.org/2000/svg"><defs><symbol id="icon-star-02" viewBox="0 0 32 32"><path fill="#fff" style="fill:var(--color1,#fff)" opacity=".05" d="m17.204 3.923 2.027 6.232c.187.577.724.968 1.331.968h6.552c1.227 0 1.737 1.569.744 2.291l-5.3 3.852a1.4 1.4 0 0 0-.507 1.575l-.003-.01 2.025 6.232c.379 1.167-.957 2.137-1.949 1.416l-5.301-3.852c-.228-.167-.514-.267-.823-.267s-.595.1-.827.27l.004-.003-5.301 3.853c-.992.72-2.328-.249-1.949-1.416l2.025-6.232a1.397 1.397 0 0 0-.506-1.562l-.004-.003-5.3-3.853c-.993-.72-.483-2.291.744-2.291h6.552c.607 0 1.144-.391 1.332-.968l2.025-6.231c.379-1.168 2.029-1.168 2.408 0z"/><path fill="#fff" style="fill:var(--color1,#fff)" d="M0 0h16v32H0z"/></symbol><symbol id="icon-star-none" viewBox="0 0 32 32"><path fill="#fff" style="fill:var(--color1,#fff)" d="M0 0h16v32H0z"/></symbol><symbol id="icon-healthicons_ui-user-profile" viewBox="0 0 32 32"><path fill="#f3feff" style="fill:var(--color2,#f3feff)" opacity=".8" d="M16 28C9.373 28 4 22.627 4 16S9.373 4 16 4s12 5.373 12 12-5.373 12-12 12zm0 1.333c7.364 0 13.333-5.969 13.333-13.333S23.364 2.667 16 2.667 2.667 8.636 2.667 16 8.636 29.333 16 29.333z"/><path fill="#f3feff" style="fill:var(--color2,#f3feff)" opacity=".8" d="M8 23.753c0-.689.515-1.271 1.2-1.347 5.143-.569 8.48-.519 13.612.013a1.328 1.328 0 0 1 .74 2.312l-.001.001c-6.057 5.28-9.519 5.207-15.124.007A1.343 1.343 0 0 1 8 23.756v-.003z"/><path fill="#f3feff" style="fill:var(--color2,#f3feff)" opacity=".8" d="M22.744 23.081c-5.092-.527-8.38-.575-13.472-.012a.686.686 0 0 0-.392 1.181c2.779 2.577 4.884 3.741 6.943 3.749 2.064.008 4.283-1.148 7.289-3.768a.66.66 0 0 0-.365-1.15h-.003zM9.127 21.744c5.197-.575 8.583-.524 13.755.012a1.996 1.996 0 0 1 1.786 1.983c0 .596-.261 1.13-.676 1.496l-.002.002c-3.051 2.66-5.591 4.107-8.172 4.097-2.588-.009-5.016-1.481-7.843-4.105a2.007 2.007 0 0 1-.641-1.473v-.005a2.02 2.02 0 0 1 1.784-2.005l.009-.001zM21.333 13.333a5.333 5.333 0 1 1-10.666 0 5.333 5.333 0 1 1 10.666 0z"/><path fill="#f3feff" style="fill:var(--color2,#f3feff)" opacity=".8" d="M16 17.333a4 4 0 0 1 0-8 4 4 0 0 1 0 8zm0 1.334a5.333 5.333 0 1 0 0-10.666 5.333 5.333 0 1 0 0 10.666z"/></symbol><symbol id="icon-ic_outline-filter-alt" viewBox="0 0 32 32"><path fill="#f3feff" style="fill:var(--color2,#f3feff)" d="M9.333 8h13.333l-6.68 8.4L9.333 8zm-3.666-.52c2.693 3.453 7.667 9.853 7.667 9.853v8c0 .733.6 1.333 1.333 1.333h2.667c.733 0 1.333-.6 1.333-1.333v-8s4.96-6.4 7.653-9.853a1.332 1.332 0 0 0-1.053-2.147H6.72A1.33 1.33 0 0 0 5.667 7.48z"/></symbol><symbol id="icon-mdi_basket-outline" viewBox="0 0 32 32"><path fill="#f3feff" style="fill:var(--color2,#f3feff)" opacity=".8" d="M29.333 12h-6.387l-5.84-8.747a1.328 1.328 0 0 0-2.21.009l-.003.005L9.053 12H2.666c-.733 0-1.333.6-1.333 1.333 0 .12 0 .24.053.36l3.387 12.36A2.652 2.652 0 0 0 7.333 28h17.333a2.68 2.68 0 0 0 2.573-1.947l3.387-12.36.04-.36c0-.733-.6-1.333-1.333-1.333zM16 6.4l3.733 5.6h-7.467l3.733-5.6zm8.667 18.933H7.334l-2.92-10.667h23.187l-2.933 10.667zm-8.667-8c-1.467 0-2.667 1.2-2.667 2.667s1.2 2.667 2.667 2.667 2.667-1.2 2.667-2.667-1.2-2.667-2.667-2.667z"/></symbol><symbol id="icon-mdi_heart-multiple-outline" viewBox="0 0 32 32"><path fill="#f3feff" style="fill:var(--color2,#f3feff)" opacity=".8" d="m16 28.133-2 1.733C5.2 21.999.667 17.866.667 12.799c0-1.6.533-3.067 1.333-4.267v.8c0 6.267 5.2 10.933 14 18.8zm2.133-5.466C24.4 16.934 28.666 13.2 28.8 9.334c0-2.667-2-4.667-4.667-4.667C22 4.667 20 6 19.333 7.867H16.8C16 6 14 4.667 12 4.667c-2.667 0-4.667 2-4.667 4.667 0 3.867 4.133 7.6 10.533 13.333l.133.133zM24 2c4.133 0 7.333 3.2 7.333 7.333C31.333 14.266 26.8 18.4 18 26.4 9.2 18.533 4.667 14.4 4.667 9.333 4.667 5.2 7.867 2 12 2c2.267 0 4.533 1.067 6 2.8C19.467 3.067 21.733 2 24 2z"/></symbol><symbol id="icon-Star-1" viewBox="0 0 32 32"><path fill="#f3feff" style="fill:var(--color2,#f3feff)" d="M14.478 3.083c.48-1.474 2.565-1.474 3.043 0l2.43 7.478a1.603 1.603 0 0 0 1.52 1.104h7.864c1.55 0 2.194 1.984.941 2.896l-6.362 4.621a1.6 1.6 0 0 0-.577 1.8l-.003-.011 2.429 7.478c.48 1.475-1.208 2.701-2.462 1.789l-6.36-4.621c-.26-.191-.587-.306-.941-.306s-.68.115-.945.309l.004-.003-6.362 4.621c-1.253.912-2.941-.315-2.461-1.789l2.429-7.478a1.598 1.598 0 0 0-.577-1.786l-.004-.003-6.362-4.621c-1.253-.912-.608-2.896.941-2.896h7.862c.706 0 1.306-.458 1.518-1.093l.003-.011 2.432-7.478z"/></symbol><symbol id="icon-uil_sort-amount-down" viewBox="0 0 32 32"><path fill="#f3feff" style="fill:var(--color2,#f3feff)" d="m8.387 19.053-.387.4V9.333a1.333 1.333 0 0 0-2.666 0v10.12l-.387-.4a1.339 1.339 0 0 0-1.894 1.894l2.667 2.667c.123.118.269.213.431.277l.009.003a1.245 1.245 0 0 0 1.022-.003l-.008.003a1.33 1.33 0 0 0 .44-.28l2.667-2.667a1.339 1.339 0 0 0-1.894-1.894zm6.28-8.386H28a1.333 1.333 0 0 0 0-2.666H14.667a1.333 1.333 0 0 0 0 2.666zm13.333 4H14.667a1.333 1.333 0 0 0 0 2.666H28a1.333 1.333 0 0 0 0-2.666zm0 6.666H14.667a1.333 1.333 0 0 0 0 2.666H28a1.333 1.333 0 0 0 0-2.666z"/></symbol><symbol id="icon-Vector" viewBox="0 0 32 32"><path fill="#f3feff" style="fill:var(--color2,#f3feff)" d="M30.933 19.196h-12.8v12.8h-4.267v-12.8h-12.8v-4.267h12.8v-12.8h4.267v12.8h12.8v4.267z"/></symbol></defs></svg>