<svg aria-hidden="true" style="width:0;height:0;position:absolute;overflow:hidden" xmlns="http://www.w3.org/2000/svg"><defs><symbol id="icon-modal-two" viewBox="0 0 69 32"><path fill="#78f0fd" style="fill:var(--color1,#78f0fd)" d="M19.692 16a3.692 3.692 0 1 1-7.384 0 3.692 3.692 0 0 1 7.384 0zM32 16a3.692 3.692 0 1 1-7.384 0A3.692 3.692 0 0 1 32 16z"/><path fill="#78f0fd" style="fill:var(--color1,#78f0fd)" opacity=".5" d="M44.308 16a3.692 3.692 0 1 1-7.384 0 3.692 3.692 0 0 1 7.384 0zM56.615 16a3.692 3.692 0 1 1-7.384 0 3.692 3.692 0 0 1 7.384 0zM68.923 16a3.692 3.692 0 1 1-7.384 0 3.692 3.692 0 0 1 7.384 0z"/></symbol><symbol id="icon-modal-five" viewBox="0 0 81 32"><path fill="#78f0fd" style="fill:var(--color1,#78f0fd)" d="M19.692 16a3.692 3.692 0 1 1-7.384 0 3.692 3.692 0 0 1 7.384 0zM32 16a3.692 3.692 0 1 1-7.384 0A3.692 3.692 0 0 1 32 16zM44.308 16a3.692 3.692 0 1 1-7.384 0 3.692 3.692 0 0 1 7.384 0zM56.615 16a3.692 3.692 0 1 1-7.384 0 3.692 3.692 0 0 1 7.384 0zM68.923 16a3.692 3.692 0 1 1-7.384 0 3.692 3.692 0 0 1 7.384 0z"/></symbol><symbol id="icon-modal-four" viewBox="0 0 70 32"><path fill="#78f0fd" style="fill:var(--color1,#78f0fd)" d="M20.308 16a3.692 3.692 0 1 1-7.384 0 3.692 3.692 0 0 1 7.384 0zM32.615 16a3.692 3.692 0 1 1-7.384 0 3.692 3.692 0 0 1 7.384 0zM44.923 16a3.692 3.692 0 1 1-7.384 0 3.692 3.692 0 0 1 7.384 0zM57.231 16a3.692 3.692 0 1 1-7.384 0 3.692 3.692 0 0 1 7.384 0z"/><path fill="#78f0fd" style="fill:var(--color1,#78f0fd)" opacity=".5" d="M69.538 16a3.692 3.692 0 1 1-7.384 0 3.692 3.692 0 0 1 7.384 0z"/></symbol><symbol id="icon-modal-shield" viewBox="0 0 33 32"><path fill="#191838" style="fill:var(--color2,#191838)" d="M14.909.84c.9-.52 2.009-.52 2.909 0l10.947 6.32a2.91 2.91 0 0 1 1.455 2.519V22.32c0 1.039-.554 2-1.455 2.519l-10.947 6.32c-.9.52-2.009.52-2.909 0l-10.947-6.32a2.91 2.91 0 0 1-1.455-2.519V9.679c0-1.039.554-2 1.455-2.519L14.909.84z"/><path fill="none" stroke="#16dcf2" style="stroke:var(--color3,#16dcf2)" stroke-width=".727" d="M15.091 2.155a2.543 2.543 0 0 1 2.545 0l10.081 5.82a2.545 2.545 0 0 1 1.273 2.204V21.82c0 .909-.485 1.75-1.273 2.204l-10.081 5.82a2.543 2.543 0 0 1-2.545 0L5.01 24.024a2.545 2.545 0 0 1-1.273-2.204V10.179c0-.909.485-1.75 1.273-2.204l10.081-5.82z"/><path fill="#16dcf2" style="fill:var(--color3,#16dcf2)" d="M22.364 15.333c0 3.7-2.56 7.16-6 8-3.44-.84-6-4.3-6-8v-4l6-2.667 6 2.667v4zm-6 6.667c2.5-.667 4.667-3.64 4.667-6.52V12.2l-4.667-2.08-4.667 2.08v3.28c0 2.88 2.167 5.853 4.667 6.52zm-2-4.447c1.173 1.447 3.42 1.493 4.647.047a.301.301 0 0 0-.173-.493 2.985 2.985 0 0 1-2.12-1.466 3.017 3.017 0 0 1-.213-2.574.3.3 0 0 0-.054-.299.3.3 0 0 0-.287-.101c-2.227.413-3.26 3.073-1.8 4.887z"/></symbol><symbol id="icon-modal-libra" viewBox="0 0 32 32"><path fill="#191838" style="fill:var(--color2,#191838)" d="M14.545.84c.9-.52 2.009-.52 2.909 0l10.947 6.32a2.91 2.91 0 0 1 1.455 2.519V22.32c0 1.039-.554 2-1.455 2.519l-10.947 6.32c-.9.52-2.009.52-2.909 0l-10.947-6.32a2.91 2.91 0 0 1-1.455-2.519V9.679c0-1.039.554-2 1.455-2.519L14.545.84z"/><path fill="none" stroke="#16dcf2" style="stroke:var(--color3,#16dcf2)" stroke-width=".727" d="M14.727 2.155a2.543 2.543 0 0 1 2.545 0l10.081 5.82a2.545 2.545 0 0 1 1.273 2.204V21.82c0 .909-.485 1.75-1.273 2.204l-10.081 5.82a2.543 2.543 0 0 1-2.545 0l-10.081-5.82a2.545 2.545 0 0 1-1.273-2.204V10.179c0-.909.485-1.75 1.273-2.204l10.081-5.82z"/><path fill="#16dcf2" style="fill:var(--color3,#16dcf2)" d="m22.962 16.313-2-5-.031-.056-.038-.05c-.006-.006-.006-.006-.006-.012l-.05-.05h-.006l-.044-.031-.012-.012-.056-.031h-.006l-.056-.019h-.012l-.063-.012h-.188l-3.894.837v-1.375a.498.498 0 0 0-.5-.5.5.5 0 0 0-.5.5v1.6l-4.106.912h-.044l-.062.025h-.012l-.05.025-.001.002-.001.002-.002.001h-.002l-.056.044-.002.004a.008.008 0 0 1-.004.002l-.037.044h-.006a.164.164 0 0 0-.038.056l-.012.012-.025.056h-.006L9.04 18.312a.521.521 0 0 0-.038.188c0 1.456 1.531 2 2.5 2s2.5-.544 2.5-2a.49.49 0 0 0-.038-.188l-1.781-4.45 3.319-.737V21h-1a.498.498 0 0 0-.5.5.5.5 0 0 0 .5.5h3a.498.498 0 0 0 .5-.5.5.5 0 0 0-.5-.5h-1v-8.1l3.181-.706-1.644 4.119a.521.521 0 0 0-.038.188c0 1.456 1.531 2 2.5 2s2.5-.544 2.5-2a.49.49 0 0 0-.038-.188zM11.5 19.5c-.469 0-1.425-.225-1.494-.913l1.494-3.744 1.494 3.744c-.069.688-1.025.913-1.494.913zm9-2c-.469 0-1.425-.225-1.494-.913l1.494-3.744 1.494 3.744c-.069.688-1.025.913-1.494.913z"/></symbol><symbol id="icon-modal-sword" viewBox="0 0 32 32"><path fill="#191838" style="fill:var(--color2,#191838)" d="M14.545.84c.9-.52 2.009-.52 2.909 0l10.947 6.32a2.91 2.91 0 0 1 1.455 2.519V22.32c0 1.039-.554 2-1.455 2.519l-10.947 6.32c-.9.52-2.009.52-2.909 0l-10.947-6.32a2.91 2.91 0 0 1-1.455-2.519V9.679c0-1.039.554-2 1.455-2.519L14.545.84z"/><path fill="none" stroke="#16dcf2" style="stroke:var(--color3,#16dcf2)" stroke-width=".727" d="M14.727 2.155a2.543 2.543 0 0 1 2.545 0l10.081 5.82a2.545 2.545 0 0 1 1.273 2.204V21.82c0 .909-.485 1.75-1.273 2.204l-10.081 5.82a2.543 2.543 0 0 1-2.545 0l-10.081-5.82a2.545 2.545 0 0 1-1.273-2.204V10.179c0-.909.485-1.75 1.273-2.204l10.081-5.82z"/><path fill="#16dcf2" style="fill:var(--color3,#16dcf2)" d="M16 24.282a.512.512 0 0 0 .354-.15l2.811-2.828a.514.514 0 0 0 .146-.402l-.654-6.877h.734a1.007 1.007 0 0 0 .999-.999v-1.123a.987.987 0 0 0-.291-.708.988.988 0 0 0-.708-.291h-1.847l.004-2.647a1.015 1.015 0 0 0-1.003-1.003h-1.087a1.019 1.019 0 0 0-1.003 1.003l.004 2.647h-1.847a1.007 1.007 0 0 0-.999.999v1.123a.987.987 0 0 0 .291.708.988.988 0 0 0 .708.291h.734l-.654 6.877a.499.499 0 0 0 .146.402l2.811 2.828c.094.095.22.149.354.15zm-3.39-12.379h1.847a.987.987 0 0 0 .708-.291.988.988 0 0 0 .291-.708l.004-2.647h1.078l.004 2.647a1.007 1.007 0 0 0 .999.999h1.847v1.123h-1.282l-2.108-.004-3.39.004v-1.123zm1.101 8.861.641-6.74h1.149l-.004 4.804a.508.508 0 0 0 .844.326.508.508 0 0 0 .164-.326l-.004-4.804h1.149l.641 6.74-2.289 2.307-2.289-2.307z"/></symbol><symbol id="icon-profil" viewBox="0 0 32 32"><path fill="#f3feff" style="fill:var(--color4,#f3feff)" opacity=".8" d="M16 30.4C8.047 30.4 1.6 23.953 1.6 16S8.047 1.6 16 1.6 30.4 8.047 30.4 16 23.953 30.4 16 30.4zm0 1.6c8.837 0 16-7.163 16-16S24.837 0 16 0 0 7.163 0 16s7.163 16 16 16z"/><path fill="#f3feff" style="fill:var(--color4,#f3feff)" opacity=".8" d="M6.4 25.304c0-.826.618-1.525 1.44-1.616 6.172-.683 10.176-.622 16.334.015a1.601 1.601 0 0 1 1.351 1.1 1.587 1.587 0 0 1-.464 1.678c-7.268 6.335-11.422 6.248-18.149.006a1.617 1.617 0 0 1-.512-1.183z"/><path fill="#f3feff" style="fill:var(--color4,#f3feff)" opacity=".8" d="M24.092 24.498c-6.11-.632-10.056-.691-16.165-.015a.827.827 0 0 0-.472 1.418c3.334 3.093 5.861 4.49 8.33 4.499 2.478.009 5.141-1.378 8.749-4.522a.794.794 0 0 0-.026-1.206.791.791 0 0 0-.416-.174zm-16.34-1.605c6.237-.69 10.299-.628 16.506.014a2.387 2.387 0 0 1 2.031 1.653 2.389 2.389 0 0 1-.702 2.523c-3.66 3.19-6.708 4.928-9.806 4.916-3.106-.011-6.02-1.778-9.413-4.926a2.403 2.403 0 0 1-.769-1.77 2.423 2.423 0 0 1 2.152-2.411zM22.4 12.8a6.402 6.402 0 0 1-10.926 4.525 6.397 6.397 0 0 1 0-9.051A6.401 6.401 0 0 1 22.4 12.8z"/><path fill="#f3feff" style="fill:var(--color4,#f3feff)" opacity=".8" d="M16 17.6A4.8 4.8 0 1 1 16 8a4.8 4.8 0 0 1 0 9.6zm0 1.6a6.402 6.402 0 0 0 4.525-10.926A6.4 6.4 0 1 0 16 19.2z"/></symbol><symbol id="icon-ic_outline-filter-alt" viewBox="0 0 32 32"><path fill="#f3feff" style="fill:var(--color4,#f3feff)" d="M9.334 8h13.333l-6.68 8.4L9.334 8zm-3.666-.52c2.693 3.453 7.667 9.853 7.667 9.853v8c0 .733.6 1.333 1.333 1.333h2.667c.733 0 1.333-.6 1.333-1.333v-8s4.96-6.4 7.653-9.853a1.337 1.337 0 0 0 .144-1.403 1.331 1.331 0 0 0-1.197-.745H6.721a1.33 1.33 0 0 0-1.053 2.147z"/></symbol><symbol id="icon-basket" viewBox="0 0 32 32"><path fill="#f3feff" style="fill:var(--color4,#f3feff)" opacity=".8" d="M29.333 12h-6.387l-5.84-8.747a1.339 1.339 0 0 0-1.738-.425 1.334 1.334 0 0 0-.476.438l-5.84 8.733H2.665c-.733 0-1.333.6-1.333 1.333 0 .12 0 .24.053.36l3.387 12.36a2.652 2.652 0 0 0 2.56 1.947h17.333a2.68 2.68 0 0 0 2.573-1.947l3.387-12.36.04-.36c0-.733-.6-1.333-1.333-1.333zM16 6.4l3.733 5.6h-7.467l3.733-5.6zm8.667 18.933H7.334l-2.92-10.667h23.187l-2.933 10.667zm-8.667-8c-1.467 0-2.667 1.2-2.667 2.667s1.2 2.667 2.667 2.667c1.467 0 2.667-1.2 2.667-2.667s-1.2-2.667-2.667-2.667z"/></symbol><symbol id="icon-selected" viewBox="0 0 32 32"><path fill="#f3feff" style="fill:var(--color4,#f3feff)" opacity=".8" d="m16 28.133-2 1.733C5.2 21.999.667 17.866.667 12.799c0-1.6.533-3.067 1.333-4.267v.8c0 6.267 5.2 10.933 14 18.8zm2.133-5.466C24.4 16.934 28.666 13.2 28.8 9.334c0-2.667-2-4.667-4.667-4.667C22 4.667 20 6 19.333 7.867H16.8C16 6 14 4.667 12 4.667c-2.667 0-4.667 2-4.667 4.667 0 3.867 4.133 7.6 10.533 13.333l.133.133zM24 2c4.133 0 7.333 3.2 7.333 7.333C31.333 14.266 26.8 18.4 18 26.4 9.2 18.533 4.667 14.4 4.667 9.333 4.667 5.2 7.867 2 12 2c2.267 0 4.533 1.067 6 2.8C19.467 3.067 21.733 2 24 2z"/></symbol><symbol id="icon-cross" viewBox="0 0 32 32"><path fill="#efe3cc" style="fill:var(--color5,#efe3cc)" d="M25.135 8.602a1.215 1.215 0 0 0 .36-.868 1.22 1.22 0 0 0-.757-1.134 1.22 1.22 0 0 0-.94-.001 1.23 1.23 0 0 0-.398.266l-7.401 7.401-7.398-7.401a1.23 1.23 0 0 0-1.736 0 1.23 1.23 0 0 0 0 1.736l7.4 7.398-7.4 7.398a1.23 1.23 0 0 0 0 1.736 1.23 1.23 0 0 0 1.736.001l7.398-7.401 7.401 7.401a1.229 1.229 0 0 0 2.094-.869c0-.325-.13-.637-.36-.867L17.733 16l7.401-7.398z"/></symbol><symbol id="icon-list" viewBox="0 0 32 32"><path fill="#f3feff" style="fill:var(--color4,#f3feff)" d="m8.387 19.053-.387.4V9.333a1.335 1.335 0 0 0-2.277-.943c-.25.251-.391.589-.391.943v10.12l-.387-.4a1.34 1.34 0 0 0-1.894 1.894l2.667 2.667c.127.121.276.217.44.28a1.247 1.247 0 0 0 1.014 0 1.33 1.33 0 0 0 .44-.28l2.667-2.667a1.339 1.339 0 0 0-1.892-1.892zm6.28-8.386H28a1.335 1.335 0 0 0 .943-2.277A1.334 1.334 0 0 0 28 7.999H14.667a1.335 1.335 0 0 0-.943 2.277c.25.25.589.391.943.391zm13.333 4H14.667a1.334 1.334 0 0 0 0 2.668H28a1.334 1.334 0 0 0 0-2.668zm0 6.666H14.667a1.334 1.334 0 0 0 0 2.668H28a1.334 1.334 0 0 0 0-2.668z"/></symbol><symbol id="icon-search" viewBox="0 0 32 32"><path fill="#f3feff" style="fill:var(--color4,#f3feff)" opacity=".8" d="M28.267 30.756 18.311 20.8c-.889.711-1.911 1.274-3.067 1.689s-2.385.622-3.689.622c-3.23 0-5.963-1.119-8.199-3.356S.001 14.784 0 11.556c0-3.23 1.119-5.963 3.356-8.199S8.327.002 11.555.001c3.23 0 5.963 1.119 8.199 3.356s3.355 4.971 3.356 8.199c0 1.304-.207 2.533-.622 3.689s-.978 2.178-1.689 3.067l10 10c.326.326.489.726.489 1.2s-.178.889-.533 1.244c-.326.326-.741.489-1.244.489s-.919-.163-1.244-.489zm-16.711-11.2c2.222 0 4.111-.778 5.668-2.334s2.334-3.445 2.332-5.666c0-2.222-.778-4.111-2.334-5.668s-3.445-2.334-5.666-2.332c-2.222 0-4.111.778-5.668 2.334s-2.334 3.445-2.332 5.666c0 2.222.778 4.111 2.334 5.668s3.445 2.334 5.666 2.332z"/></symbol><symbol id="icon-plus" viewBox="0 0 32 32"><path fill="#f3feff" style="fill:var(--color4,#f3feff)" d="M30.933 19.196h-12.8v12.8h-4.267v-12.8h-12.8v-4.267h12.8v-12.8h4.267v12.8h12.8v4.267z"/></symbol></defs></svg>