<svg width="1920" height="1030" fill="none" xmlns="http://www.w3.org/2000/svg"><g clip-path="url('#clip0_119_186')"><path d="M1411 741.5c9.2 0 23.17 3.667 29 5.5l-12.5 54-82.5 118-203.5 79.5-174-28-160.5-98c-17.833-24.833-51.8-75.6-45-80L714 766c3.333-1.167 13.2-3.4 26-3 12.8.4 34.334 12.833 43.5 19 2.8-.4 16.834 4.5 23.5 7 1.5-.5 5.3-1.5 8.5-1.5s11.334 2 15 3c13.5-1.167 42.3-3.4 49.5-3 9 .5 21 5 22.5 6.5s11-2 13.5-1.5c2 .4 4.5 2.833 5.5 4 13.834 6.5 42.4 20.1 46 22.5 4.5 3 15.5-7 20.5-6.5 4 .4 6 2.5 6.5 3.5l4-9h4l29-10.5c10-11.5 30.7-35.2 33.5-38 3.5-3.5 13-4.5 21-4s15-5.5 19-8c3.2-2 11-3.167 14.5-3.5 19-17.833 61.2-53.5 78-53.5 21 0 63.5 24 71.5 24s.5-3 10-2.5 8.5 7 20.5 11.5 8.5.5 18 2.5 8.5 1 15 4.5 17-3 18.5 0c5.5 4 38.5 16 44 17.5s4.5-5.5 16-5.5Z" fill="#021024"/><path d="M17.5 757c-5.6-.4-17 2.167-22 3.5l-27 43.5 3.5 76v104.5l4 85.5 79.5 59.5 316-28.5 160 58.5 273.5 5 329.5-54.5 4-91.5L971 921l-158.5-92.5-77-60.5c-8-6.667-24.6-20.1-27-20.5-3-.5-2 3.5-4.5 3.5-2 0-6.167-3.333-8-5-5.167-.333-17.7-1-26.5-1-11 0-18.5 12.5-20.5 13s-2.5-6-5.5-7-11 11-13 12.5-3.5-2.5-8-1.5-19 11.5-26 15.5-8 11.5-9.5 16.5-10 4.5-23 4.5-13-3.5-23-7c-8-2.8-26-6.5-34-8-13 1.833-40.4 5.5-46 5.5-7 0-12.5 6.5-16.5 6s-5.5 7.5-9 9c-2.8 1.2-4.833-1.5-5.5-3l-13 3c-13.667 3.5-42.9 10.7-50.5 11.5-9.5 1-62 27.5-70.5 27s-29-36-35-37.5-20 18.5-24 19-3-10.5-5-11-.5 5.5-3.5 6-12-10-19-11.5-14.5 3-18 1.5-.5-5-2-7c-1.2-1.6-4.833-1.333-6.5-1-8.5-9.5-28-29.7-38-34.5-12.5-6-58-2.5-72-2.5H47.5c-5.5 0-23-6.5-30-7Z" fill="#011126"/><path d="M768.5 836c-70-54.4-95.833-58.333-100-53.5-11.333 2-34 7.5-34 13.5 0 7.5-44.5 25-74.5 44s-110 41-134.5 49-34.5 31-97.5 60c-50.4 23.2-186.667 40.667-248.5 46.5l147 133.5 147.5 8.5c66.833 8 212.5 24 260.5 24h182c28 0 161.5-6.5 167-7s182-38.5 189-41.5c5.6-2.4 14.33-28.33 18-41l-41-82c-12.5-9-41.5-28.5-57.5-34.5-20-7.5-51.5-14-75.5-12.5s-82-17.5-96.5-17.5-48.5-51-65-63-63.5-6.5-86.5-26.5Z" fill="#050A1D"/><path d="M148 909c-12.8 11.2-54 25.333-73 31l90.5 196.5c70.833-2.17 214.1-6.6 220.5-7 6.4-.4 292.667-32.17 435-48l-19.5-51.5L633 887.5c-27.833-21.667-86.8-64.1-100-60.5-16.5 4.5-48.5 5-85 7.5s-132 63-158.5 68-55-24-68.5-24-57 16.5-73 30.5Z" fill="#0A0312"/><path d="M13.5 921.5c-18.4.8-29.333-12-32.5-18.5l-47 171.5 79.5 13.5c102.5-2.83 304.6-12.3 293-27.5-14.5-19-79.5-49-121.5-57.5s-62.5-50-85.5-70-63-12.5-86-11.5ZM1051 987c-54 2.8-166.5 39.5-216 57.5h1085.5v-389c-28.67 2.167-93.2 6.8-122 8-28.8 1.2-32 8.833-30 12.5-49.83-3.5-154.6-10.1-175-8.5-25.5 2-28 15-56 33.5s-78.5 30.5-110.5 39-36.5 43.5-86.5 84c-40 32.4-88 53.167-107 59.5C1195.17 916.833 1105 984.2 1051 987Z" fill="#0D000D"/></g><defs><clipPath id="clip0_119_186"><path fill="#fff" transform="translate(-2 -55)" d="M0 0h1922v1093H0z"/></clipPath></defs></svg>