<svg width="266" height="266" fill="none" xmlns="http://www.w3.org/2000/svg"><mask id="mask0_1292_14926" style="mask-type:alpha" maskUnits="userSpaceOnUse" x="0" y="0" width="266" height="266"><circle cx="133" cy="133" r="133" fill="#1C1919"/></mask><g mask="url('#mask0_1292_14926')"><mask id="path-2-inside-1_1292_14926" fill="#fff"><path d="M132.257 15.793a1 1 0 0 0 1.276 0L150.454 1.77c.721-.598.299-1.77-.638-1.77h-33.841c-.937 0-1.36 1.172-.638 1.77l16.92 14.023Z"/></mask><path d="M132.257 15.793a1 1 0 0 0 1.276 0L150.454 1.77c.721-.598.299-1.77-.638-1.77h-33.841c-.937 0-1.36 1.172-.638 1.77l16.92 14.023Z" fill="url('#paint0_diamond_1292_14926')"/><path d="m115.337 1.77-.319.385.319-.385Zm35.117 0 .319.385-.319-.385Zm-16.921 14.023-.319-.385.319.385Zm-1.276 0 .319-.385-.319.385Zm1.596.385 16.92-14.023-.638-.77-16.921 14.023.639.77ZM149.816-.5h-33.841v1h33.841v-1Zm-34.798 2.655 16.92 14.023.638-.77-16.92-14.023-.638.77Zm.957-2.655c-1.405 0-2.039 1.758-.957 2.655l.638-.77a.5.5 0 0 1 .319-.885v-1Zm34.798 2.655c1.082-.897.448-2.655-.957-2.655v1a.5.5 0 0 1 .319.885l.638.77Zm-17.559 13.253a.5.5 0 0 1-.638 0l-.638.77c.555.46 1.359.46 1.915 0l-.639-.77Z" fill="url('#paint1_linear_1292_14926')" mask="url('#path-2-inside-1_1292_14926')"/><mask id="path-4-inside-2_1292_14926" fill="#fff"><path d="M132.614 250.37a.999.999 0 0 1 1.276 0l16.614 13.768c.721.598.298 1.77-.638 1.77h-33.227c-.937 0-1.36-1.172-.638-1.77l16.613-13.768Z"/></mask><path d="M132.614 250.37a.999.999 0 0 1 1.276 0l16.614 13.768c.721.598.298 1.77-.638 1.77h-33.227c-.937 0-1.36-1.172-.638-1.77l16.613-13.768Z" fill="url('#paint2_diamond_1292_14926')"/><path d="m116.001 264.138-.319-.385.319.385Zm34.503 0-.319.385.319-.385ZM133.89 250.37l.319-.385-.319.385Zm-1.276 0 .319.385-.319-.385Zm.957.385 16.614 13.768.638-.77-16.614-13.768-.638.77Zm16.295 14.653h-33.227v1h33.227v-1Zm-33.546-.885 16.613-13.768-.638-.77-16.613 13.768.638.77Zm.319.885a.5.5 0 0 1-.319-.885l-.638-.77c-1.082.897-.448 2.655.957 2.655v-1Zm33.546-.885a.5.5 0 0 1-.319.885v1c1.405 0 2.039-1.758.957-2.655l-.638.77Zm-15.976-14.538a1.5 1.5 0 0 0-1.914 0l.638.77a.5.5 0 0 1 .638 0l.638-.77Z" fill="url('#paint3_linear_1292_14926')" mask="url('#path-4-inside-2_1292_14926')"/></g><circle cx="133" cy="133" r="132.25" stroke="url('#paint4_linear_1292_14926')" stroke-width="1.5"/><circle cx="133.331" cy="132.668" r="129.092" fill="url('#paint5_linear_1292_14926')" fill-opacity=".2" stroke="url('#paint6_linear_1292_14926')" stroke-width=".5"/><ellipse cx="58.807" cy="58.809" rx="25.855" ry="7.156" transform="rotate(-45 58.807 58.809)" fill="url('#paint7_radial_1292_14926')" fill-opacity=".5"/><ellipse cx="229.765" cy="172.009" rx="25.855" ry="7.156" transform="rotate(-66.267 229.765 172.009)" fill="url('#paint8_radial_1292_14926')" fill-opacity=".5"/><ellipse cx="27.74" cy="105.007" rx="13.3" ry="4.433" transform="rotate(-75 27.74 105.007)" fill="url('#paint9_radial_1292_14926')" fill-opacity=".5"/><defs><radialGradient id="paint0_diamond_1292_14926" cx="0" cy="0" r="1" gradientUnits="userSpaceOnUse" gradientTransform="matrix(0 8.01131 -17.9227 0 132.895 8.011)"><stop stop-color="#EBB760"/><stop offset="1" stop-color="#8F630B"/></radialGradient><radialGradient id="paint2_diamond_1292_14926" cx="0" cy="0" r="1" gradientUnits="userSpaceOnUse" gradientTransform="matrix(0 7.88399 -17.6155 0 133.252 258.024)"><stop stop-color="#EBB760"/><stop offset="1" stop-color="#8F630B"/></radialGradient><radialGradient id="paint7_radial_1292_14926" cx="0" cy="0" r="1" gradientUnits="userSpaceOnUse" gradientTransform="matrix(0 7.15599 -25.8546 0 58.807 58.809)"><stop stop-color="#AFDFD9"/><stop offset="1" stop-color="#D7E9E8" stop-opacity="0"/></radialGradient><radialGradient id="paint8_radial_1292_14926" cx="0" cy="0" r="1" gradientUnits="userSpaceOnUse" gradientTransform="matrix(0 7.15599 -25.8546 0 229.765 172.009)"><stop stop-color="#AFDFD9"/><stop offset="1" stop-color="#D7E9E8" stop-opacity="0"/></radialGradient><radialGradient id="paint9_radial_1292_14926" cx="0" cy="0" r="1" gradientUnits="userSpaceOnUse" gradientTransform="matrix(0 4.43333 -13.3 0 27.74 105.007)"><stop stop-color="#AFDFD9"/><stop offset="1" stop-color="#D7E9E8" stop-opacity="0"/></radialGradient><linearGradient id="paint1_linear_1292_14926" x1="108.162" y1="1.779" x2="110.899" y2="-10.938" gradientUnits="userSpaceOnUse"><stop stop-color="#CC9C3C"/><stop offset="1" stop-color="#EBB760"/></linearGradient><linearGradient id="paint3_linear_1292_14926" x1="108.943" y1="251.891" x2="111.639" y2="239.377" gradientUnits="userSpaceOnUse"><stop stop-color="#CC9C3C"/><stop offset="1" stop-color="#EBB760"/></linearGradient><linearGradient id="paint4_linear_1292_14926" x1="0" y1="0" x2="266" y2="266" gradientUnits="userSpaceOnUse"><stop stop-color="#EBB760"/><stop offset="1" stop-color="#CC9C3C"/></linearGradient><linearGradient id="paint5_linear_1292_14926" x1="233.805" y1="214.543" x2="57.429" y2="32.288" gradientUnits="userSpaceOnUse"><stop stop-color="#35D1BD" stop-opacity=".5"/><stop offset="1" stop-color="#8DDFD8" stop-opacity="0"/></linearGradient><linearGradient id="paint6_linear_1292_14926" x1="262.673" y1="3.325" x2="3.988" y2="262.01" gradientUnits="userSpaceOnUse"><stop stop-color="#CC9C3C"/><stop offset="1" stop-color="#EBB760"/></linearGradient></defs></svg>