<svg aria-hidden="true" style="width:0;height:0;position:absolute;overflow:hidden" xmlns="http://www.w3.org/2000/svg"><defs><symbol id="icon-Discord" viewBox="0 0 32 32"><path fill="#ddd" style="fill:var(--color1,#ddd)" d="M22.049 10.451a13.956 13.956 0 0 0-3.465-1.089l-.087-.013-.011-.001a.053.053 0 0 0-.047.028 10 10 0 0 0-.442.909 13.457 13.457 0 0 0-4.065.009l.075-.01a9.031 9.031 0 0 0-.472-.954l.024.045a.056.056 0 0 0-.048-.028l-.01.001a14.372 14.372 0 0 0-3.553 1.102.051.051 0 0 0-.022.019c-2.264 3.381-2.884 6.679-2.579 9.935.001.017.01.031.022.041a14.341 14.341 0 0 0 4.256 2.176l.102.028.016.002a.058.058 0 0 0 .045-.022c.312-.419.608-.894.865-1.393l.027-.058a.053.053 0 0 0 .006-.026.054.054 0 0 0-.035-.051 9.49 9.49 0 0 1-1.407-.673l.045.024a.055.055 0 0 1-.028-.045v-.004c0-.018.009-.034.022-.044.108-.08.196-.15.282-.222l-.011.009a.05.05 0 0 1 .034-.012.05.05 0 0 1 .022.005c2.857 1.304 5.949 1.304 8.772 0a.06.06 0 0 1 .023-.005c.013 0 .025.005.035.013.087.071.178.144.271.212.014.01.022.026.022.045 0 .02-.011.038-.026.048-.384.23-.833.448-1.3.628l-.061.021a.058.058 0 0 0-.033.032.065.065 0 0 0-.004.02c0 .01.002.019.007.026.262.508.561.991.89 1.449.01.014.026.023.044.023a14.413 14.413 0 0 0 4.42-2.234l-.038.027a.055.055 0 0 0 .023-.039c.364-3.765-.609-7.036-2.58-9.935a.043.043 0 0 0-.023-.021zm-8.944 7.971c-.86 0-1.568-.789-1.568-1.759s.695-1.759 1.568-1.759c.88 0 1.583.797 1.569 1.76 0 .969-.695 1.759-1.569 1.759zm5.801 0c-.86 0-1.569-.789-1.569-1.759s.695-1.759 1.569-1.759c.88 0 1.583.797 1.569 1.76 0 .969-.689 1.759-1.569 1.759z"/><path fill="none" stroke="#ddd" style="stroke:var(--color1,#ddd)" stroke-width="1.454" d="M16 2.182c7.632 0 13.818 6.187 13.818 13.818S23.631 29.818 16 29.818C8.368 29.818 2.182 23.631 2.182 16S8.369 2.182 16 2.182z"/></symbol><symbol id="icon-Facebook" viewBox="0 0 32 32"><path fill="#ddd" style="fill:var(--color1,#ddd)" d="M24.727 16a8.727 8.727 0 1 0-10.09 8.621v-6.098h-2.216v-2.524h2.216v-1.921c0-2.187 1.303-3.396 3.297-3.396.954 0 1.953.171 1.953.171v2.148h-1.101c-1.084 0-1.423.673-1.423 1.363V16h2.42l-.387 2.524h-2.033v6.098A8.73 8.73 0 0 0 24.727 16z"/><path fill="none" stroke="#ddd" style="stroke:var(--color1,#ddd)" stroke-width="1.454" d="M16 2.182c7.632 0 13.818 6.187 13.818 13.818S23.631 29.818 16 29.818C8.368 29.818 2.182 23.631 2.182 16S8.369 2.182 16 2.182z"/></symbol><symbol id="icon-Hide-hover" viewBox="0 0 32 32"><path fill="#ddd" style="fill:var(--color1,#ddd)" d="M20.284 13.3a.69.69 0 0 1 .2.486v.025-.001.023a.69.69 0 0 1-.2.486l-4.073 4.073a.629.629 0 0 1-.236.154.824.824 0 0 1-.551-.001l.006.002a.64.64 0 0 1-.236-.154l-4.073-4.073a.711.711 0 0 1-.209-.5l-.001-.029a.67.67 0 0 1 .21-.488.69.69 0 0 1 .485-.2h.025-.001a.69.69 0 0 1 .509.199l3.564 3.545 3.564-3.545a.709.709 0 0 1 .499-.209l.029-.001c.193 0 .366.081.49.21z"/><path fill="none" stroke="#ddd" style="stroke:var(--color1,#ddd)" stroke-width="1.454" d="M16 2.182c7.632 0 13.818 6.187 13.818 13.818S23.631 29.818 16 29.818C8.368 29.818 2.182 23.631 2.182 16S8.369 2.182 16 2.182z"/></symbol><symbol id="icon-Instagram" viewBox="0 0 32 32"><path fill="#ddd" style="fill:var(--color1,#ddd)" d="M16 7.273c2.371 0 2.667.009 3.597.052s1.562.189 2.119.406a4.289 4.289 0 0 1 1.546 1.006l.001.001c.433.425.775.941.997 1.517l.01.029c.215.556.362 1.19.406 2.119.041.93.052 1.226.052 3.597s-.009 2.667-.052 3.597c-.044.929-.191 1.562-.406 2.119a4.289 4.289 0 0 1-1.006 1.546l-.001.001a4.285 4.285 0 0 1-1.517.997l-.029.01c-.556.215-1.19.362-2.119.406-.93.041-1.226.052-3.597.052s-2.667-.009-3.597-.052c-.929-.044-1.562-.191-2.119-.406a4.289 4.289 0 0 1-1.546-1.006l-.001-.001a4.285 4.285 0 0 1-.997-1.517l-.01-.029c-.217-.556-.362-1.19-.406-2.119-.041-.93-.052-1.226-.052-3.597s.009-2.667.052-3.597c.044-.931.189-1.562.406-2.119a4.238 4.238 0 0 1 1.007-1.546 4.285 4.285 0 0 1 1.517-.997l.029-.01c.557-.217 1.188-.362 2.119-.406.93-.041 1.226-.052 3.597-.052zm0 4.363a4.364 4.364 0 0 0 0 8.728 4.364 4.364 0 0 0 0-8.728zm5.673-.218a1.09 1.09 0 1 0-2.182 0 1.09 1.09 0 1 0 2.182 0zM16 13.382a2.618 2.618 0 1 1 0 5.236 2.618 2.618 0 1 1 0-5.236z"/><path fill="none" stroke="#ddd" style="stroke:var(--color1,#ddd)" stroke-width="1.454" d="M16 2.182c7.632 0 13.818 6.187 13.818 13.818S23.631 29.818 16 29.818C8.368 29.818 2.182 23.631 2.182 16S8.369 2.182 16 2.182z"/></symbol><symbol id="icon-Itch" viewBox="0 0 32 32"><path fill="#ddd" style="fill:var(--color1,#ddd)" d="M9.549 8.097c-.764.452-2.262 2.175-2.276 2.627v.749c0 .948.887 1.782 1.691 1.782.967 0 1.772-.801 1.772-1.753 0 .951.778 1.753 1.745 1.753.966 0 1.718-.801 1.718-1.753 0 .951.827 1.753 1.793 1.753h.017c.967 0 1.793-.801 1.793-1.753 0 .951.752 1.753 1.719 1.753s1.745-.801 1.745-1.753c0 .951.804 1.753 1.771 1.753.802 0 1.689-.835 1.689-1.782v-.749c-.015-.451-1.514-2.175-2.276-2.627C20.084 8.014 18.444 8 15.999 8s-5.778.039-6.451.097zm4.637 4.71c-.097.167-.21.311-.34.437h-.001c-.365.357-.865.578-1.417.578s-1.052-.221-1.417-.578a1.87 1.87 0 0 1-.319-.42l-.005-.01a1.996 1.996 0 0 1-.352.428l-.001.001a2.019 2.019 0 0 1-1.418.578.6.6 0 0 1-.196-.039l.004.001a27.781 27.781 0 0 0-.122 2.114l-.001.031v.004l-.004.849c.015 1.697-.167 5.501.749 6.436 1.42.33 4.033.481 6.655.482s5.235-.153 6.655-.483c.916-.934.735-4.737.749-6.435l-.004-.849v-.003a29.815 29.815 0 0 0-.131-2.264l.009.118a.605.605 0 0 1-.19.038h-.001a2.02 2.02 0 0 1-1.418-.579 1.956 1.956 0 0 1-.349-.421l-.005-.008c-.092.16-.193.3-.325.429a2.02 2.02 0 0 1-1.417.577h-.007a2.019 2.019 0 0 1-1.747-1.005l-.005-.01a2.02 2.02 0 0 1-1.753 1.015H15.943c-.551 0-1.051-.22-1.416-.577a2.03 2.03 0 0 1-.332-.428l-.005-.01-.001-.003zm-1.457 1.885c.578.001 1.091 0 1.726.693.454-.05.981-.078 1.514-.078h.033H16c.524 0 1.046.025 1.545.078.635-.693 1.148-.691 1.725-.693.273 0 1.364 0 2.124 2.134l.817 2.929c.605 2.178-.193 2.231-1.19 2.233-1.476-.055-2.295-1.127-2.295-2.2-.817.134-1.772.201-2.726.201s-1.908-.068-2.726-.201c0 1.073-.818 2.145-2.295 2.201-.996-.003-1.795-.056-1.19-2.234l.816-2.929c.76-2.134 1.851-2.134 2.124-2.134zM16 16.37c-.001.001-1.556 1.428-1.835 1.936l1.018-.041v.887c0 .041.407.024.817.005.409.019.817.036.817-.006v-.887l1.018.04c-.281-.507-1.836-1.935-1.836-1.935z"/><path fill="none" stroke="#ddd" style="stroke:var(--color1,#ddd)" stroke-width="1.454" d="M16 2.182c7.632 0 13.818 6.187 13.818 13.818S23.631 29.818 16 29.818C8.368 29.818 2.182 23.631 2.182 16S8.369 2.182 16 2.182z"/></symbol><symbol id="icon-More" viewBox="0 0 32 32"><path fill="#ddd" style="fill:var(--color1,#ddd)" d="M11.636 17.455c-.4 0-.743-.143-1.028-.428a1.397 1.397 0 0 1-.427-1.006v-.022V16c0-.4.143-.743.428-1.028a1.397 1.397 0 0 1 1.006-.427h.022-.001c.4 0 .743.143 1.028.428s.428.628.427 1.027c0 .4-.143.743-.428 1.028a1.397 1.397 0 0 1-1.006.427h-.022.001zm4.364 0c-.4 0-.743-.143-1.028-.428a1.397 1.397 0 0 1-.427-1.006v-.022V16c0-.4.143-.743.428-1.028a1.397 1.397 0 0 1 1.006-.427h.022H16c.4 0 .743.143 1.028.428s.428.628.427 1.027c0 .4-.143.743-.428 1.028a1.397 1.397 0 0 1-1.006.427h-.022H16zm4.364 0c-.4 0-.743-.143-1.028-.428a1.397 1.397 0 0 1-.427-1.006v-.022V16c0-.4.143-.743.428-1.028a1.397 1.397 0 0 1 1.006-.427h.022-.001c.4 0 .743.143 1.028.428s.428.628.427 1.027c0 .4-.143.743-.428 1.028a1.397 1.397 0 0 1-1.006.427h-.022.001z"/><path fill="none" stroke="#ddd" style="stroke:var(--color1,#ddd)" stroke-width="1.454" d="M16 2.182c7.632 0 13.818 6.187 13.818 13.818S23.631 29.818 16 29.818C8.368 29.818 2.182 23.631 2.182 16S8.369 2.182 16 2.182z"/></symbol><symbol id="icon-Steam" viewBox="0 0 32 32"><path fill="#ddd" style="fill:var(--color1,#ddd)" d="M15.969 7.273c-4.583 0-8.34 3.535-8.696 8.027l4.678 1.933c.389-.269.87-.429 1.389-.429h.001c.046 0 .091.003.137.004l2.081-3.012v-.043a3.293 3.293 0 0 1 3.29-3.29 3.294 3.294 0 0 1 3.29 3.292 3.295 3.295 0 0 1-3.29 3.291h-.077l-2.964 2.117c0 .038.003.076.003.116v.003a2.467 2.467 0 0 1-2.465 2.467 2.483 2.483 0 0 1-2.42-1.967l-.003-.016-3.349-1.387c1.037 3.663 4.4 6.349 8.395 6.349a8.727 8.727 0 0 0 0-17.454zM12.74 20.516l-1.071-.444a1.851 1.851 0 0 0 1.666 1.05 1.855 1.855 0 0 0 1.712-2.571l.005.012a1.856 1.856 0 0 0-2.38-1.023l.013-.004 1.108.458a1.367 1.367 0 1 1-1.061 2.518l.009.003zm8.302-6.765a2.193 2.193 0 1 0-4.386 0 2.193 2.193 0 0 0 4.386 0zm-3.835-.004a1.648 1.648 0 0 1 3.296 0 1.648 1.648 0 0 1-3.296 0z"/><path fill="none" stroke="#ddd" style="stroke:var(--color1,#ddd)" stroke-width="1.454" d="M16 2.182c7.632 0 13.818 6.187 13.818 13.818S23.631 29.818 16 29.818C8.368 29.818 2.182 23.631 2.182 16S8.369 2.182 16 2.182z"/></symbol><symbol id="icon-Telegram" viewBox="0 0 32 32"><path fill="#ddd" style="fill:var(--color1,#ddd)" d="M15.959 7.273a8.727 8.727 0 0 0 .04 17.454h.043-.002A8.727 8.727 0 0 0 16 7.273h-.043.002zm3.609 5.254a.575.575 0 0 1 .338.102c.07.06.114.145.124.236.012.068.026.223.015.343-.131 1.38-.7 4.729-.989 6.274-.122.655-.363.873-.596.895-.506.047-.891-.335-1.382-.656-.768-.504-1.202-.817-1.948-1.309-.862-.567-.303-.88.188-1.389.129-.134 2.361-2.165 2.405-2.349.005-.023.01-.109-.041-.154s-.127-.03-.181-.017c-.077.017-1.304.829-3.681 2.433-.349.24-.664.356-.947.349-.311-.006-.911-.175-1.356-.32-.547-.178-.981-.272-.943-.574.02-.157.236-.318.649-.482a419.172 419.172 0 0 1 5.089-2.192c2.423-1.008 2.927-1.183 3.255-1.189z"/><path fill="none" stroke="#ddd" style="stroke:var(--color1,#ddd)" stroke-width="1.454" d="M16 2.182c7.632 0 13.818 6.187 13.818 13.818S23.631 29.818 16 29.818C8.368 29.818 2.182 23.631 2.182 16S8.369 2.182 16 2.182z"/></symbol><symbol id="icon-Twitch" viewBox="0 0 32 32"><path fill="#ddd" style="fill:var(--color1,#ddd)" d="M15.896 10.701h1.247v3.74h-1.248l.001-3.74zm3.429 0h1.247v3.74h-1.247v-3.74zm-7.481-3.428L8.727 10.39v11.22h3.74v3.117l3.117-3.117h2.493L23.688 16V7.273H11.844zm10.597 8.104-2.493 2.493h-2.494l-2.182 2.182V17.87h-2.805V8.519h9.974v6.857z"/><path fill="none" stroke="#ddd" style="stroke:var(--color1,#ddd)" stroke-width="1.454" d="M16 2.182c7.632 0 13.818 6.187 13.818 13.818S23.631 29.818 16 29.818C8.368 29.818 2.182 23.631 2.182 16S8.369 2.182 16 2.182z"/></symbol><symbol id="icon-Twitter" viewBox="0 0 32 32"><path fill="#ddd" style="fill:var(--color1,#ddd)" d="M24.693 10.417a7.071 7.071 0 0 1-2.019.56l-.035.004a3.625 3.625 0 0 0 1.566-1.955l.007-.025a7.368 7.368 0 0 1-2.274.861 3.578 3.578 0 0 0-6.092 3.284l-.005-.024a10.136 10.136 0 0 1-7.375-3.728 3.473 3.473 0 0 0-.484 1.778v.023-.001c0 1.244.633 2.337 1.591 2.978a3.556 3.556 0 0 1-1.638-.457l.018.009v.046a3.583 3.583 0 0 0 2.847 3.506l.023.004a3.663 3.663 0 0 1-1.631.058l.023.004a3.598 3.598 0 0 0 3.345 2.484h.004a7.13 7.13 0 0 1-4.43 1.531h-.008c-.284 0-.567-.017-.851-.049a10.08 10.08 0 0 0 5.49 1.607h.007c6.584 0 10.18-5.452 10.18-10.172 0-.153 0-.305-.011-.458a7.3 7.3 0 0 0 1.773-1.826l.016-.026-.034-.015z"/><path fill="none" stroke="#ddd" style="stroke:var(--color1,#ddd)" stroke-width="1.454" d="M16 2.182c7.632 0 13.818 6.187 13.818 13.818S23.631 29.818 16 29.818C8.368 29.818 2.182 23.631 2.182 16S8.369 2.182 16 2.182z"/></symbol><symbol id="icon-Youtube" viewBox="0 0 32 32"><path fill="#ddd" style="fill:var(--color1,#ddd)" d="M24.362 12.103a2.204 2.204 0 0 0-1.528-1.55l-.015-.004c-1.361-.367-6.819-.367-6.819-.367s-5.458 0-6.82.367a2.202 2.202 0 0 0-1.539 1.538l-.004.015c-.365 1.37-.365 4.228-.365 4.228s0 2.858.365 4.228a2.204 2.204 0 0 0 1.528 1.55l.015.004c1.361.367 6.819.367 6.819.367s5.458 0 6.82-.367a2.2 2.2 0 0 0 1.54-1.538l.004-.015c.364-1.37.364-4.228.364-4.228s0-2.858-.365-4.228zm-10.147 6.823v-5.19l4.562 2.595-4.562 2.595z"/><path fill="none" stroke="#ddd" style="stroke:var(--color1,#ddd)" stroke-width="1.454" d="M16 2.182c7.632 0 13.818 6.187 13.818 13.818S23.631 29.818 16 29.818C8.368 29.818 2.182 23.631 2.182 16S8.369 2.182 16 2.182z"/></symbol></defs></svg>