<svg width="266" height="266" viewBox="0 0 266 266" fill="none" xmlns="http://www.w3.org/2000/svg">
<mask id="mask0_1292_14926" style="mask-type:alpha" maskUnits="userSpaceOnUse" x="0" y="0" width="266" height="266">
<circle cx="133" cy="133" r="133" fill="#1C1919"/>
</mask>
<g mask="url(#mask0_1292_14926)">
<mask id="path-2-inside-1_1292_14926" fill="white">
<path d="M132.257 15.7926C132.627 16.0993 133.163 16.0993 133.533 15.7926L150.454 1.76997C151.175 1.1723 150.753 7.62939e-06 149.816 7.62939e-06H115.975C115.038 7.62939e-06 114.615 1.17231 115.337 1.76997L132.257 15.7926Z"/>
</mask>
<path d="M132.257 15.7926C132.627 16.0993 133.163 16.0993 133.533 15.7926L150.454 1.76997C151.175 1.1723 150.753 7.62939e-06 149.816 7.62939e-06H115.975C115.038 7.62939e-06 114.615 1.17231 115.337 1.76997L132.257 15.7926Z" fill="url(#paint0_diamond_1292_14926)"/>
<path d="M115.337 1.76997L115.018 2.15495L115.337 1.76997ZM150.454 1.76997L150.773 2.15495L150.454 1.76997ZM133.533 15.7926L133.214 15.4076L133.533 15.7926ZM132.257 15.7926L132.576 15.4076L132.257 15.7926ZM133.853 16.1776L150.773 2.15495L150.135 1.38499L133.214 15.4076L133.853 16.1776ZM149.816 -0.499992H115.975V0.500008H149.816V-0.499992ZM115.018 2.15495L131.938 16.1776L132.576 15.4076L115.656 1.38499L115.018 2.15495ZM115.975 -0.499992C114.57 -0.499992 113.936 1.25846 115.018 2.15495L115.656 1.38499C115.295 1.08615 115.506 0.500008 115.975 0.500008V-0.499992ZM150.773 2.15495C151.855 1.25845 151.221 -0.499992 149.816 -0.499992V0.500008C150.284 0.500008 150.496 1.08616 150.135 1.38499L150.773 2.15495ZM133.214 15.4076C133.029 15.561 132.761 15.561 132.576 15.4076L131.938 16.1776C132.493 16.6376 133.297 16.6376 133.853 16.1776L133.214 15.4076Z" fill="url(#paint1_linear_1292_14926)" mask="url(#path-2-inside-1_1292_14926)"/>
<mask id="path-4-inside-2_1292_14926" fill="white">
<path d="M132.614 250.37C132.984 250.063 133.52 250.063 133.89 250.37L150.504 264.138C151.225 264.736 150.802 265.908 149.866 265.908H116.639C115.702 265.908 115.279 264.736 116.001 264.138L132.614 250.37Z"/>
</mask>
<path d="M132.614 250.37C132.984 250.063 133.52 250.063 133.89 250.37L150.504 264.138C151.225 264.736 150.802 265.908 149.866 265.908H116.639C115.702 265.908 115.279 264.736 116.001 264.138L132.614 250.37Z" fill="url(#paint2_diamond_1292_14926)"/>
<path d="M116.001 264.138L115.682 263.753L116.001 264.138ZM150.504 264.138L150.185 264.523L150.504 264.138ZM133.89 250.37L134.209 249.985L133.89 250.37ZM132.614 250.37L132.933 250.755L132.614 250.37ZM133.571 250.755L150.185 264.523L150.823 263.753L134.209 249.985L133.571 250.755ZM149.866 265.408H116.639V266.408H149.866V265.408ZM116.32 264.523L132.933 250.755L132.295 249.985L115.682 263.753L116.32 264.523ZM116.639 265.408C116.17 265.408 115.959 264.822 116.32 264.523L115.682 263.753C114.6 264.65 115.234 266.408 116.639 266.408V265.408ZM150.185 264.523C150.545 264.822 150.334 265.408 149.866 265.408V266.408C151.271 266.408 151.905 264.65 150.823 263.753L150.185 264.523ZM134.209 249.985C133.654 249.525 132.85 249.525 132.295 249.985L132.933 250.755C133.118 250.602 133.386 250.602 133.571 250.755L134.209 249.985Z" fill="url(#paint3_linear_1292_14926)" mask="url(#path-4-inside-2_1292_14926)"/>
</g>
<circle cx="133" cy="133" r="132.25" stroke="url(#paint4_linear_1292_14926)" stroke-width="1.5"/>
<circle cx="133.331" cy="132.668" r="129.092" fill="url(#paint5_linear_1292_14926)" fill-opacity="0.2" stroke="url(#paint6_linear_1292_14926)" stroke-width="0.5"/>
<ellipse cx="58.8069" cy="58.8089" rx="25.8546" ry="7.15599" transform="rotate(-45 58.8069 58.8089)" fill="url(#paint7_radial_1292_14926)" fill-opacity="0.5"/>
<ellipse cx="229.765" cy="172.009" rx="25.8546" ry="7.15599" transform="rotate(-66.2674 229.765 172.009)" fill="url(#paint8_radial_1292_14926)" fill-opacity="0.5"/>
<ellipse cx="27.7402" cy="105.007" rx="13.3" ry="4.43333" transform="rotate(-75 27.7402 105.007)" fill="url(#paint9_radial_1292_14926)" fill-opacity="0.5"/>
<defs>
<radialGradient id="paint0_diamond_1292_14926" cx="0" cy="0" r="1" gradientUnits="userSpaceOnUse" gradientTransform="translate(132.895 8.01131) rotate(90) scale(8.01131 17.9227)">
<stop stop-color="#EBB760"/>
<stop offset="1" stop-color="#8F630B"/>
</radialGradient>
<linearGradient id="paint1_linear_1292_14926" x1="108.162" y1="1.77922" x2="110.899" y2="-10.9384" gradientUnits="userSpaceOnUse">
<stop stop-color="#CC9C3C"/>
<stop offset="1" stop-color="#EBB760"/>
</linearGradient>
<radialGradient id="paint2_diamond_1292_14926" cx="0" cy="0" r="1" gradientUnits="userSpaceOnUse" gradientTransform="translate(133.252 258.024) rotate(90) scale(7.88399 17.6155)">
<stop stop-color="#EBB760"/>
<stop offset="1" stop-color="#8F630B"/>
</radialGradient>
<linearGradient id="paint3_linear_1292_14926" x1="108.943" y1="251.891" x2="111.639" y2="239.377" gradientUnits="userSpaceOnUse">
<stop stop-color="#CC9C3C"/>
<stop offset="1" stop-color="#EBB760"/>
</linearGradient>
<linearGradient id="paint4_linear_1292_14926" x1="0" y1="0" x2="266" y2="266" gradientUnits="userSpaceOnUse">
<stop stop-color="#EBB760"/>
<stop offset="1" stop-color="#CC9C3C"/>
</linearGradient>
<linearGradient id="paint5_linear_1292_14926" x1="233.805" y1="214.543" x2="57.4293" y2="32.2876" gradientUnits="userSpaceOnUse">
<stop stop-color="#35D1BD" stop-opacity="0.5"/>
<stop offset="1" stop-color="#8DDFD8" stop-opacity="0"/>
</linearGradient>
<linearGradient id="paint6_linear_1292_14926" x1="262.673" y1="3.32502" x2="3.98827" y2="262.01" gradientUnits="userSpaceOnUse">
<stop stop-color="#CC9C3C"/>
<stop offset="1" stop-color="#EBB760"/>
</linearGradient>
<radialGradient id="paint7_radial_1292_14926" cx="0" cy="0" r="1" gradientUnits="userSpaceOnUse" gradientTransform="translate(58.8069 58.8089) rotate(90) scale(7.15599 25.8546)">
<stop stop-color="#AFDFD9"/>
<stop offset="1" stop-color="#D7E9E8" stop-opacity="0"/>
</radialGradient>
<radialGradient id="paint8_radial_1292_14926" cx="0" cy="0" r="1" gradientUnits="userSpaceOnUse" gradientTransform="translate(229.765 172.009) rotate(90) scale(7.15599 25.8546)">
<stop stop-color="#AFDFD9"/>
<stop offset="1" stop-color="#D7E9E8" stop-opacity="0"/>
</radialGradient>
<radialGradient id="paint9_radial_1292_14926" cx="0" cy="0" r="1" gradientUnits="userSpaceOnUse" gradientTransform="translate(27.7402 105.007) rotate(90) scale(4.43333 13.3)">
<stop stop-color="#AFDFD9"/>
<stop offset="1" stop-color="#D7E9E8" stop-opacity="0"/>
</radialGradient>
</defs>
</svg>
