<svg aria-hidden="true" style="position: absolute; width: 0; height: 0; overflow: hidden;" version="1.1" xmlns="http://www.w3.org/2000/svg" xmlns:xlink="http://www.w3.org/1999/xlink">
<defs>
<symbol id="icon-star-02" viewBox="0 0 32 32">
<path fill="#fff" style="fill: var(--color1, #fff)" opacity="0.05" d="M17.204 3.923l2.027 6.232c0.187 0.577 0.724 0.968 1.331 0.968h6.552c1.227 0 1.737 1.569 0.744 2.291l-5.3 3.852c-0.352 0.257-0.578 0.669-0.578 1.133 0 0.154 0.025 0.303 0.071 0.442l-0.003-0.010 2.025 6.232c0.379 1.167-0.957 2.137-1.949 1.416l-5.301-3.852c-0.228-0.167-0.514-0.267-0.823-0.267s-0.595 0.1-0.827 0.27l0.004-0.003-5.301 3.853c-0.992 0.72-2.328-0.249-1.949-1.416l2.025-6.232c0.043-0.129 0.068-0.278 0.068-0.432 0-0.464-0.226-0.876-0.574-1.13l-0.004-0.003-5.3-3.853c-0.993-0.72-0.483-2.291 0.744-2.291h6.552c0.607 0 1.144-0.391 1.332-0.968l2.025-6.231c0.379-1.168 2.029-1.168 2.408 0z"></path>
<path fill="#fff" style="fill: var(--color1, #fff)" d="M0 0h16v32h-16z"></path>
</symbol>
<symbol id="icon-star-none" viewBox="0 0 32 32">
<path fill="#fff" style="fill: var(--color1, #fff)" d="M0 0h16v32h-16z"></path>
</symbol>
<symbol id="icon-healthicons_ui-user-profile" viewBox="0 0 32 32">
<path fill="#f3feff" style="fill: var(--color2, #f3feff)" opacity="0.8" d="M16 28v0c-6.627 0-12-5.373-12-12s5.373-12 12-12v0c6.627 0 12 5.373 12 12s-5.373 12-12 12zM16 29.333c7.364 0 13.333-5.969 13.333-13.333s-5.969-13.333-13.333-13.333-13.333 5.969-13.333 13.333 5.969 13.333 13.333 13.333z"></path>
<path fill="#f3feff" style="fill: var(--color2, #f3feff)" opacity="0.8" d="M8 23.753c0-0.689 0.515-1.271 1.2-1.347 5.143-0.569 8.48-0.519 13.612 0.013 0.67 0.073 1.187 0.636 1.187 1.319 0 0.395-0.173 0.75-0.447 0.993l-0.001 0.001c-6.057 5.28-9.519 5.207-15.124 0.007-0.263-0.246-0.427-0.596-0.427-0.983 0-0.001 0-0.002 0-0.003v0z"></path>
<path fill="#f3feff" style="fill: var(--color2, #f3feff)" opacity="0.8" d="M22.744 23.081c-5.092-0.527-8.38-0.575-13.472-0.012-0.344 0.040-0.609 0.329-0.609 0.681 0 0.197 0.083 0.375 0.217 0.5l0 0c2.779 2.577 4.884 3.741 6.943 3.749 2.064 0.008 4.283-1.148 7.289-3.768 0.136-0.122 0.221-0.298 0.221-0.493 0-0.34-0.256-0.62-0.586-0.657l-0.003-0zM9.127 21.744c5.197-0.575 8.583-0.524 13.755 0.012 1.008 0.109 1.786 0.955 1.786 1.983 0 0.596-0.261 1.13-0.676 1.496l-0.002 0.002c-3.051 2.66-5.591 4.107-8.172 4.097-2.588-0.009-5.016-1.481-7.843-4.105-0.395-0.368-0.641-0.892-0.641-1.473 0-0.001 0-0.001 0-0.002v0c0-0.001 0-0.002 0-0.003 0-1.035 0.78-1.889 1.784-2.005l0.009-0.001z"></path>
<path fill="#f3feff" style="fill: var(--color2, #f3feff)" opacity="0.8" d="M21.333 13.333c0 2.946-2.388 5.333-5.333 5.333s-5.333-2.388-5.333-5.333v0c0-2.946 2.388-5.333 5.333-5.333s5.333 2.388 5.333 5.333v0z"></path>
<path fill="#f3feff" style="fill: var(--color2, #f3feff)" opacity="0.8" d="M16 17.333v0c-2.209 0-4-1.791-4-4s1.791-4 4-4v0c2.209 0 4 1.791 4 4s-1.791 4-4 4zM16 18.667c2.946 0 5.333-2.388 5.333-5.333s-2.388-5.333-5.333-5.333v0c-2.946 0-5.333 2.388-5.333 5.333s2.388 5.333 5.333 5.333v0z"></path>
</symbol>
<symbol id="icon-ic_outline-filter-alt" viewBox="0 0 32 32">
<path fill="#f3feff" style="fill: var(--color2, #f3feff)" d="M9.333 8h13.333l-6.68 8.4-6.653-8.4zM5.667 7.48c2.693 3.453 7.667 9.853 7.667 9.853v8c0 0.733 0.6 1.333 1.333 1.333h2.667c0.733 0 1.333-0.6 1.333-1.333v-8s4.96-6.4 7.653-9.853c0.174-0.223 0.278-0.506 0.278-0.815 0-0.735-0.596-1.332-1.331-1.332h-18.547c-1.107 0-1.733 1.267-1.053 2.147z"></path>
</symbol>
<symbol id="icon-mdi_basket-outline" viewBox="0 0 32 32">
<path fill="#f3feff" style="fill: var(--color2, #f3feff)" opacity="0.8" d="M29.333 12h-6.387l-5.84-8.747c-0.242-0.356-0.645-0.586-1.102-0.586-0.463 0-0.87 0.236-1.108 0.595l-0.003 0.005-5.84 8.733h-6.387c-0.733 0-1.333 0.6-1.333 1.333 0 0.12 0 0.24 0.053 0.36l3.387 12.36c0.307 1.12 1.333 1.947 2.56 1.947h17.333c1.227 0 2.253-0.827 2.573-1.947l3.387-12.36 0.040-0.36c0-0.733-0.6-1.333-1.333-1.333zM16 6.4l3.733 5.6h-7.467l3.733-5.6zM24.667 25.333h-17.333l-2.92-10.667h23.187l-2.933 10.667zM16 17.333c-1.467 0-2.667 1.2-2.667 2.667s1.2 2.667 2.667 2.667 2.667-1.2 2.667-2.667-1.2-2.667-2.667-2.667z"></path>
</symbol>
<symbol id="icon-mdi_heart-multiple-outline" viewBox="0 0 32 32">
<path fill="#f3feff" style="fill: var(--color2, #f3feff)" opacity="0.8" d="M16 28.133l-2 1.733c-8.8-7.867-13.333-12-13.333-17.067 0-1.6 0.533-3.067 1.333-4.267v0.8c0 6.267 5.2 10.933 14 18.8zM18.133 22.667c6.267-5.733 10.533-9.467 10.667-13.333 0-2.667-2-4.667-4.667-4.667-2.133 0-4.133 1.333-4.8 3.2h-2.533c-0.8-1.867-2.8-3.2-4.8-3.2-2.667 0-4.667 2-4.667 4.667 0 3.867 4.133 7.6 10.533 13.333l0.133 0.133zM24 2c4.133 0 7.333 3.2 7.333 7.333 0 4.933-4.533 9.067-13.333 17.067-8.8-7.867-13.333-12-13.333-17.067 0-4.133 3.2-7.333 7.333-7.333 2.267 0 4.533 1.067 6 2.8 1.467-1.733 3.733-2.8 6-2.8z"></path>
</symbol>
<symbol id="icon-Star-1" viewBox="0 0 32 32">
<path fill="#f3feff" style="fill: var(--color2, #f3feff)" d="M14.478 3.083c0.48-1.474 2.565-1.474 3.043 0l2.43 7.478c0.215 0.646 0.814 1.103 1.52 1.104h7.864c1.55 0 2.194 1.984 0.941 2.896l-6.362 4.621c-0.401 0.294-0.659 0.764-0.659 1.294 0 0.177 0.029 0.347 0.082 0.506l-0.003-0.011 2.429 7.478c0.48 1.475-1.208 2.701-2.462 1.789l-6.36-4.621c-0.26-0.191-0.587-0.306-0.941-0.306s-0.68 0.115-0.945 0.309l0.004-0.003-6.362 4.621c-1.253 0.912-2.941-0.315-2.461-1.789l2.429-7.478c0.050-0.148 0.078-0.318 0.078-0.495 0-0.53-0.258-1-0.655-1.291l-0.004-0.003-6.362-4.621c-1.253-0.912-0.608-2.896 0.941-2.896h7.862c0 0 0 0 0 0 0.706 0 1.306-0.458 1.518-1.093l0.003-0.011 2.432-7.478z"></path>
</symbol>
<symbol id="icon-uil_sort-amount-down" viewBox="0 0 32 32">
<path fill="#f3feff" style="fill: var(--color2, #f3feff)" d="M8.387 19.053l-0.387 0.4v-10.12c0-0.736-0.597-1.333-1.333-1.333s-1.333 0.597-1.333 1.333v0 10.12l-0.387-0.4c-0.242-0.242-0.577-0.392-0.947-0.392-0.739 0-1.339 0.599-1.339 1.339 0 0.37 0.15 0.704 0.392 0.947l2.667 2.667c0.123 0.118 0.269 0.213 0.431 0.277l0.009 0.003c0.149 0.068 0.323 0.107 0.507 0.107s0.358-0.039 0.515-0.11l-0.008 0.003c0.171-0.067 0.317-0.162 0.44-0.28l-0 0 2.667-2.667c0.242-0.242 0.392-0.577 0.392-0.947 0-0.739-0.599-1.339-1.339-1.339-0.37 0-0.704 0.15-0.947 0.392v0zM14.667 10.667h13.333c0.736 0 1.333-0.597 1.333-1.333s-0.597-1.333-1.333-1.333v0h-13.333c-0.736 0-1.333 0.597-1.333 1.333s0.597 1.333 1.333 1.333v0zM28 14.667h-13.333c-0.736 0-1.333 0.597-1.333 1.333s0.597 1.333 1.333 1.333v0h13.333c0.736 0 1.333-0.597 1.333-1.333s-0.597-1.333-1.333-1.333v0zM28 21.333h-13.333c-0.736 0-1.333 0.597-1.333 1.333s0.597 1.333 1.333 1.333v0h13.333c0.736 0 1.333-0.597 1.333-1.333s-0.597-1.333-1.333-1.333v0z"></path>
</symbol>
<symbol id="icon-Vector" viewBox="0 0 32 32">
<path fill="#f3feff" style="fill: var(--color2, #f3feff)" d="M30.933 19.196h-12.8v12.8h-4.267v-12.8h-12.8v-4.267h12.8v-12.8h4.267v12.8h12.8v4.267z"></path>
</symbol>
</defs>
</svg>
