<svg aria-hidden="true" style="position: absolute; width: 0; height: 0; overflow: hidden;" version="1.1" xmlns="http://www.w3.org/2000/svg" xmlns:xlink="http://www.w3.org/1999/xlink">
<defs>
<symbol id="icon-modal-shield" viewBox="0 0 33 32">
<path fill="#191838" style="fill: var(--color1, #191838)" d="M14.909 0.84c0.9-0.52 2.009-0.52 2.909 0l10.947 6.32c0.9 0.52 1.455 1.48 1.455 2.519v12.641c0 1.039-0.554 2-1.455 2.519l-10.947 6.32c-0.9 0.52-2.009 0.52-2.909 0l-10.947-6.32c-0.9-0.52-1.455-1.48-1.455-2.519v-12.641c0-1.039 0.554-2 1.455-2.519l10.947-6.32z"></path>
<path fill="none" stroke="#16dcf2" style="stroke: var(--color2, #16dcf2)" stroke-linejoin="miter" stroke-linecap="butt" stroke-miterlimit="4" stroke-width="0.7273" d="M15.091 2.155c0.788-0.455 1.758-0.455 2.545 0l10.081 5.82c0.788 0.455 1.273 1.295 1.273 2.204v11.641c0 0.909-0.485 1.75-1.273 2.204l-10.081 5.82c-0.788 0.455-1.758 0.455-2.545 0l-10.081-5.82c-0.788-0.455-1.273-1.295-1.273-2.204v-11.641c0-0.909 0.485-1.75 1.273-2.204l10.081-5.82z"></path>
<path fill="#16dcf2" style="fill: var(--color2, #16dcf2)" d="M22.364 15.333c0 3.7-2.56 7.16-6 8-3.44-0.84-6-4.3-6-8v-4l6-2.667 6 2.667v4zM16.364 22c2.5-0.667 4.667-3.64 4.667-6.52v-3.28l-4.667-2.080-4.667 2.080v3.28c0 2.88 2.167 5.853 4.667 6.52zM14.364 17.553c1.173 1.447 3.42 1.493 4.647 0.047 0.153-0.18 0.053-0.453-0.173-0.493-0.44-0.071-0.859-0.24-1.226-0.493s-0.672-0.586-0.894-0.973c-0.225-0.386-0.361-0.817-0.397-1.263s0.026-0.893 0.184-1.311c0.018-0.050 0.023-0.104 0.013-0.157s-0.033-0.102-0.067-0.142c-0.035-0.041-0.079-0.071-0.13-0.089s-0.104-0.022-0.157-0.012c-2.227 0.413-3.26 3.073-1.8 4.887z"></path>
</symbol>
<symbol id="icon-modal-libra" viewBox="0 0 32 32">
<path fill="#191838" style="fill: var(--color1, #191838)" d="M14.545 0.84c0.9-0.52 2.009-0.52 2.909 0l10.947 6.32c0.9 0.52 1.455 1.48 1.455 2.519v12.641c0 1.039-0.554 2-1.455 2.519l-10.947 6.32c-0.9 0.52-2.009 0.52-2.909 0l-10.947-6.32c-0.9-0.52-1.455-1.48-1.455-2.519v-12.641c0-1.039 0.554-2 1.455-2.519l10.947-6.32z"></path>
<path fill="none" stroke="#16dcf2" style="stroke: var(--color2, #16dcf2)" stroke-linejoin="miter" stroke-linecap="butt" stroke-miterlimit="4" stroke-width="0.7273" d="M14.727 2.155c0.788-0.455 1.758-0.455 2.545 0l10.081 5.82c0.788 0.455 1.273 1.295 1.273 2.204v11.641c0 0.909-0.485 1.75-1.273 2.204l-10.081 5.82c-0.788 0.455-1.758 0.455-2.545 0l-10.081-5.82c-0.788-0.455-1.273-1.295-1.273-2.204v-11.641c0-0.909 0.485-1.75 1.273-2.204l10.081-5.82z"></path>
<path fill="#16dcf2" style="fill: var(--color2, #16dcf2)" d="M22.962 16.313l-2-5-0.031-0.056-0.038-0.050c-0.006-0.006-0.006-0.006-0.006-0.012l-0.050-0.050h-0.006l-0.044-0.031-0.012-0.012-0.056-0.031h-0.006l-0.056-0.019h-0.012l-0.063-0.012h-0.188l-3.894 0.837v-1.375c0-0.133-0.053-0.26-0.146-0.354s-0.221-0.146-0.354-0.146-0.26 0.053-0.354 0.146c-0.094 0.094-0.146 0.221-0.146 0.354v1.6l-4.106 0.912h-0.044l-0.062 0.025h-0.012l-0.050 0.025c0 0.001-0 0.002-0.001 0.002s-0.001 0.001-0.001 0.002-0.001 0.001-0.002 0.001-0.002 0-0.002 0l-0.056 0.044c0 0.002-0.001 0.003-0.002 0.004s-0.003 0.002-0.004 0.002l-0.037 0.044h-0.006c-0.017 0.016-0.029 0.035-0.038 0.056l-0.012 0.012-0.025 0.056h-0.006l-1.994 5.025c-0.024 0.059-0.037 0.123-0.038 0.188 0 1.456 1.531 2 2.5 2s2.5-0.544 2.5-2c-0-0.064-0.013-0.128-0.038-0.188l-1.781-4.45 3.319-0.737v7.875h-1c-0.133 0-0.26 0.053-0.354 0.146s-0.146 0.221-0.146 0.354 0.053 0.26 0.146 0.354c0.094 0.094 0.221 0.146 0.354 0.146h3c0.133 0 0.26-0.053 0.354-0.146s0.146-0.221 0.146-0.354-0.053-0.26-0.146-0.354c-0.094-0.094-0.221-0.146-0.354-0.146h-1v-8.1l3.181-0.706-1.644 4.119c-0.024 0.059-0.037 0.123-0.038 0.188 0 1.456 1.531 2 2.5 2s2.5-0.544 2.5-2c-0-0.064-0.013-0.128-0.038-0.188zM11.5 19.5c-0.469 0-1.425-0.225-1.494-0.913l1.494-3.744 1.494 3.744c-0.069 0.688-1.025 0.913-1.494 0.913zM20.5 17.5c-0.469 0-1.425-0.225-1.494-0.913l1.494-3.744 1.494 3.744c-0.069 0.688-1.025 0.913-1.494 0.913z"></path>
</symbol>
<symbol id="icon-modal-sword" viewBox="0 0 32 32">
<path fill="#191838" style="fill: var(--color1, #191838)" d="M14.545 0.84c0.9-0.52 2.009-0.52 2.909 0l10.947 6.32c0.9 0.52 1.455 1.48 1.455 2.519v12.641c0 1.039-0.554 2-1.455 2.519l-10.947 6.32c-0.9 0.52-2.009 0.52-2.909 0l-10.947-6.32c-0.9-0.52-1.455-1.48-1.455-2.519v-12.641c0-1.039 0.554-2 1.455-2.519l10.947-6.32z"></path>
<path fill="none" stroke="#16dcf2" style="stroke: var(--color2, #16dcf2)" stroke-linejoin="miter" stroke-linecap="butt" stroke-miterlimit="4" stroke-width="0.7273" d="M14.727 2.155c0.788-0.455 1.758-0.455 2.545 0l10.081 5.82c0.788 0.455 1.273 1.295 1.273 2.204v11.641c0 0.909-0.485 1.75-1.273 2.204l-10.081 5.82c-0.788 0.455-1.758 0.455-2.545 0l-10.081-5.82c-0.788-0.455-1.273-1.295-1.273-2.204v-11.641c0-0.909 0.485-1.75 1.273-2.204l10.081-5.82z"></path>
<path fill="#16dcf2" style="fill: var(--color2, #16dcf2)" d="M16 24.282c0.133-0.002 0.26-0.056 0.354-0.15l2.811-2.828c0.052-0.052 0.092-0.115 0.118-0.185s0.035-0.144 0.028-0.217l-0.654-6.877h0.734c0.264-0.002 0.517-0.108 0.704-0.295s0.293-0.44 0.295-0.704v-1.123c0.001-0.131-0.025-0.262-0.075-0.383s-0.123-0.232-0.216-0.325-0.203-0.166-0.325-0.216c-0.122-0.050-0.252-0.075-0.383-0.075h-1.847l0.004-2.647c-0.002-0.265-0.109-0.519-0.296-0.707s-0.441-0.294-0.707-0.296h-1.087c-0.265 0.004-0.518 0.111-0.705 0.298s-0.294 0.44-0.298 0.705l0.004 2.647h-1.847c-0.264 0.002-0.517 0.108-0.704 0.295s-0.293 0.44-0.295 0.704v1.123c-0.001 0.131 0.025 0.262 0.075 0.383s0.123 0.232 0.216 0.325 0.203 0.166 0.325 0.216c0.122 0.050 0.252 0.075 0.383 0.075h0.734l-0.654 6.877c-0.007 0.074 0.003 0.148 0.028 0.217s0.065 0.133 0.118 0.185l2.811 2.828c0.094 0.095 0.22 0.149 0.354 0.15zM12.61 11.903h1.847c0.131 0.001 0.262-0.025 0.383-0.075s0.232-0.123 0.325-0.216 0.166-0.203 0.216-0.325c0.050-0.121 0.075-0.252 0.075-0.383l0.004-2.647h1.078l0.004 2.647c0.002 0.264 0.108 0.517 0.295 0.704s0.44 0.293 0.704 0.295h1.847v1.123h-1.282l-2.108-0.004-3.39 0.004v-1.123zM13.711 20.764l0.641-6.74h1.149l-0.004 4.804c0.012 0.125 0.071 0.241 0.164 0.326s0.214 0.131 0.34 0.131 0.247-0.047 0.34-0.131c0.093-0.084 0.151-0.2 0.164-0.326l-0.004-4.804h1.149l0.641 6.74-2.289 2.307-2.289-2.307z"></path>
</symbol>
<symbol id="icon-profil" viewBox="0 0 32 32">
<path fill="#f3feff" style="fill: var(--color3, #f3feff)" opacity="0.8" d="M16 30.4c-7.953 0-14.4-6.447-14.4-14.4s6.447-14.4 14.4-14.4c7.953 0 14.4 6.447 14.4 14.4s-6.447 14.4-14.4 14.4zM16 32c8.837 0 16-7.163 16-16s-7.163-16-16-16c-8.837 0-16 7.163-16 16s7.163 16 16 16z"></path>
<path fill="#f3feff" style="fill: var(--color3, #f3feff)" opacity="0.8" d="M6.4 25.304c0-0.826 0.618-1.525 1.44-1.616 6.172-0.683 10.176-0.622 16.334 0.015 0.308 0.032 0.599 0.153 0.839 0.349s0.417 0.456 0.512 0.751c0.094 0.295 0.1 0.61 0.018 0.908s-0.25 0.566-0.482 0.77c-7.268 6.335-11.422 6.248-18.149 0.006-0.328-0.304-0.512-0.737-0.512-1.183z"></path>
<path fill="#f3feff" style="fill: var(--color3, #f3feff)" opacity="0.8" d="M24.092 24.498c-6.11-0.632-10.056-0.691-16.165-0.015-0.201 0.024-0.386 0.12-0.521 0.272s-0.208 0.347-0.207 0.55c0 0.229 0.095 0.446 0.256 0.596 3.334 3.093 5.861 4.49 8.33 4.499 2.478 0.009 5.141-1.378 8.749-4.522 0.115-0.102 0.197-0.235 0.238-0.383s0.037-0.305-0.010-0.451c-0.047-0.146-0.135-0.275-0.254-0.372s-0.264-0.158-0.416-0.174zM7.752 22.893c6.237-0.69 10.299-0.628 16.506 0.014 0.463 0.048 0.901 0.23 1.262 0.524s0.628 0.686 0.769 1.129c0.141 0.443 0.15 0.918 0.025 1.366s-0.377 0.85-0.727 1.157c-3.66 3.19-6.708 4.928-9.806 4.916-3.106-0.011-6.020-1.778-9.413-4.926-0.243-0.226-0.437-0.5-0.569-0.805s-0.2-0.633-0.2-0.965c-0.001-0.596 0.218-1.172 0.615-1.617s0.944-0.727 1.537-0.794z"></path>
<path fill="#f3feff" style="fill: var(--color3, #f3feff)" opacity="0.8" d="M22.4 12.8c0 1.697-0.674 3.325-1.875 4.525s-2.828 1.875-4.525 1.875c-1.697 0-3.325-0.674-4.526-1.875s-1.874-2.828-1.874-4.525 0.674-3.325 1.874-4.526c1.2-1.2 2.828-1.875 4.526-1.875s3.325 0.674 4.525 1.875c1.2 1.2 1.875 2.828 1.875 4.526z"></path>
<path fill="#f3feff" style="fill: var(--color3, #f3feff)" opacity="0.8" d="M16 17.6c-1.273 0-2.494-0.506-3.394-1.406s-1.406-2.121-1.406-3.394c0-1.273 0.506-2.494 1.406-3.394s2.121-1.406 3.394-1.406c1.273 0 2.494 0.506 3.394 1.406s1.406 2.121 1.406 3.394c0 1.273-0.506 2.494-1.406 3.394s-2.121 1.406-3.394 1.406zM16 19.2c1.697 0 3.325-0.674 4.525-1.875s1.875-2.828 1.875-4.525-0.674-3.325-1.875-4.526c-1.2-1.2-2.828-1.875-4.525-1.875s-3.325 0.674-4.526 1.875-1.874 2.828-1.874 4.526c0 1.697 0.674 3.325 1.874 4.525s2.828 1.875 4.526 1.875z"></path>
</symbol>
<symbol id="icon-ic_outline-filter-alt" viewBox="0 0 32 32">
<path fill="#f3feff" style="fill: var(--color3, #f3feff)" d="M9.334 8h13.333l-6.68 8.4-6.653-8.4zM5.668 7.48c2.693 3.453 7.667 9.853 7.667 9.853v8c0 0.733 0.6 1.333 1.333 1.333h2.667c0.733 0 1.333-0.6 1.333-1.333v-8c0 0 4.96-6.4 7.653-9.853 0.153-0.197 0.247-0.433 0.273-0.681s-0.019-0.498-0.129-0.722-0.28-0.412-0.492-0.544c-0.212-0.132-0.456-0.201-0.705-0.201h-18.547c-1.107 0-1.733 1.267-1.053 2.147z"></path>
</symbol>
<symbol id="icon-basket" viewBox="0 0 32 32">
<path fill="#f3feff" style="fill: var(--color3, #f3feff)" opacity="0.8" d="M29.333 12h-6.387l-5.84-8.747c-0.122-0.182-0.288-0.33-0.482-0.432s-0.41-0.155-0.629-0.154-0.434 0.057-0.627 0.161c-0.192 0.105-0.356 0.255-0.476 0.438l-5.84 8.733h-6.387c-0.733 0-1.333 0.6-1.333 1.333 0 0.12 0 0.24 0.053 0.36l3.387 12.36c0.307 1.12 1.333 1.947 2.56 1.947h17.333c1.227 0 2.253-0.827 2.573-1.947l3.387-12.36 0.040-0.36c0-0.733-0.6-1.333-1.333-1.333zM16 6.4l3.733 5.6h-7.467l3.733-5.6zM24.667 25.333h-17.333l-2.92-10.667h23.187l-2.933 10.667zM16 17.333c-1.467 0-2.667 1.2-2.667 2.667s1.2 2.667 2.667 2.667c1.467 0 2.667-1.2 2.667-2.667s-1.2-2.667-2.667-2.667z"></path>
</symbol>
<symbol id="icon-selected" viewBox="0 0 32 32">
<path fill="#f3feff" style="fill: var(--color3, #f3feff)" opacity="0.8" d="M16 28.133l-2 1.733c-8.8-7.867-13.333-12-13.333-17.067 0-1.6 0.533-3.067 1.333-4.267v0.8c0 6.267 5.2 10.933 14 18.8zM18.133 22.667c6.267-5.733 10.533-9.467 10.667-13.333 0-2.667-2-4.667-4.667-4.667-2.133 0-4.133 1.333-4.8 3.2h-2.533c-0.8-1.867-2.8-3.2-4.8-3.2-2.667 0-4.667 2-4.667 4.667 0 3.867 4.133 7.6 10.533 13.333l0.133 0.133zM24 2c4.133 0 7.333 3.2 7.333 7.333 0 4.933-4.533 9.067-13.333 17.067-8.8-7.867-13.333-12-13.333-17.067 0-4.133 3.2-7.333 7.333-7.333 2.267 0 4.533 1.067 6 2.8 1.467-1.733 3.733-2.8 6-2.8z"></path>
</symbol>
<symbol id="icon-cross" viewBox="0 0 32 32">
<path fill="#efe3cc" style="fill: var(--color4, #efe3cc)" d="M25.135 8.602c0.114-0.114 0.205-0.249 0.266-0.398s0.094-0.308 0.094-0.47-0.031-0.321-0.093-0.47c-0.062-0.149-0.152-0.284-0.266-0.398s-0.249-0.205-0.398-0.266c-0.149-0.062-0.308-0.094-0.47-0.094s-0.321 0.032-0.47 0.093c-0.149 0.062-0.284 0.152-0.398 0.266l-7.401 7.401-7.398-7.401c-0.23-0.23-0.543-0.36-0.868-0.36s-0.638 0.129-0.868 0.36c-0.23 0.23-0.36 0.543-0.36 0.868s0.129 0.638 0.36 0.868l7.4 7.398-7.4 7.398c-0.114 0.114-0.204 0.249-0.266 0.398s-0.093 0.309-0.093 0.47c0 0.161 0.032 0.321 0.093 0.47s0.152 0.284 0.266 0.398c0.23 0.23 0.543 0.36 0.868 0.36 0.161 0 0.321-0.032 0.47-0.093s0.284-0.152 0.398-0.266l7.398-7.401 7.401 7.401c0.23 0.23 0.543 0.359 0.868 0.359s0.637-0.13 0.867-0.36 0.359-0.543 0.359-0.868c-0-0.325-0.13-0.637-0.36-0.867l-7.401-7.398 7.401-7.398z"></path>
</symbol>
<symbol id="icon-list" viewBox="0 0 32 32">
<path fill="#f3feff" style="fill: var(--color3, #f3feff)" d="M8.387 19.053l-0.387 0.4v-10.12c0-0.354-0.14-0.693-0.391-0.943s-0.589-0.391-0.943-0.391c-0.354 0-0.693 0.14-0.943 0.391s-0.391 0.589-0.391 0.943v10.12l-0.387-0.4c-0.251-0.251-0.592-0.392-0.947-0.392s-0.696 0.141-0.947 0.392c-0.251 0.251-0.392 0.592-0.392 0.947s0.141 0.696 0.392 0.947l2.667 2.667c0.127 0.121 0.276 0.217 0.44 0.28 0.16 0.071 0.332 0.107 0.507 0.107s0.347-0.036 0.507-0.107c0.164-0.063 0.313-0.159 0.44-0.28l2.667-2.667c0.124-0.124 0.223-0.272 0.29-0.434s0.102-0.336 0.102-0.512-0.035-0.35-0.102-0.512c-0.067-0.163-0.166-0.31-0.29-0.434s-0.272-0.223-0.434-0.29c-0.162-0.067-0.337-0.102-0.512-0.102s-0.35 0.035-0.512 0.102c-0.162 0.067-0.31 0.166-0.434 0.29zM14.667 10.667h13.333c0.354 0 0.693-0.14 0.943-0.391s0.391-0.589 0.391-0.943c0-0.354-0.141-0.693-0.391-0.943s-0.589-0.391-0.943-0.391h-13.333c-0.354 0-0.693 0.14-0.943 0.391s-0.391 0.589-0.391 0.943 0.14 0.693 0.391 0.943c0.25 0.25 0.589 0.391 0.943 0.391zM28 14.667h-13.333c-0.354 0-0.693 0.141-0.943 0.391s-0.391 0.589-0.391 0.943 0.14 0.693 0.391 0.943c0.25 0.25 0.589 0.391 0.943 0.391h13.333c0.354 0 0.693-0.141 0.943-0.391s0.391-0.589 0.391-0.943c0-0.354-0.141-0.693-0.391-0.943s-0.589-0.391-0.943-0.391zM28 21.333h-13.333c-0.354 0-0.693 0.141-0.943 0.391s-0.391 0.589-0.391 0.943 0.14 0.693 0.391 0.943c0.25 0.25 0.589 0.391 0.943 0.391h13.333c0.354 0 0.693-0.141 0.943-0.391s0.391-0.589 0.391-0.943c0-0.354-0.141-0.693-0.391-0.943s-0.589-0.391-0.943-0.391z"></path>
</symbol>
<symbol id="icon-search" viewBox="0 0 32 32">
<path fill="#f3feff" style="fill: var(--color3, #f3feff)" opacity="0.8" d="M28.267 30.756l-9.956-9.956c-0.889 0.711-1.911 1.274-3.067 1.689s-2.385 0.622-3.689 0.622c-3.23 0-5.963-1.119-8.199-3.356s-3.355-4.971-3.356-8.199c0-3.23 1.119-5.963 3.356-8.199s4.971-3.355 8.199-3.356c3.23 0 5.963 1.119 8.199 3.356s3.355 4.971 3.356 8.199c0 1.304-0.207 2.533-0.622 3.689s-0.978 2.178-1.689 3.067l10 10c0.326 0.326 0.489 0.726 0.489 1.2s-0.178 0.889-0.533 1.244c-0.326 0.326-0.741 0.489-1.244 0.489s-0.919-0.163-1.244-0.489zM11.556 19.556c2.222 0 4.111-0.778 5.668-2.334s2.334-3.445 2.332-5.666c0-2.222-0.778-4.111-2.334-5.668s-3.445-2.334-5.666-2.332c-2.222 0-4.111 0.778-5.668 2.334s-2.334 3.445-2.332 5.666c0 2.222 0.778 4.111 2.334 5.668s3.445 2.334 5.666 2.332z"></path>
</symbol>
<symbol id="icon-plus" viewBox="0 0 32 32">
<path fill="#f3feff" style="fill: var(--color3, #f3feff)" d="M30.933 19.196h-12.8v12.8h-4.267v-12.8h-12.8v-4.267h12.8v-12.8h4.267v12.8h12.8v4.267z"></path>
</symbol>
</defs>
</svg>
