<svg width="385" height="670" viewBox="0 0 385 670" fill="none" xmlns="http://www.w3.org/2000/svg">
<path style="mix-blend-mode:screen" opacity="0.33" d="M339.99 270.778C339.99 270.778 347.421 286.88 342.379 297.179C337.337 307.477 328.313 291.68 316.893 282.876C305.474 274.072 290.886 255.926 308.667 247.921C326.449 239.916 335.206 259.124 335.206 259.124C333.616 242.309 315.036 228.176 308.667 220.437C302.299 212.697 304.676 200.158 317.692 190.285C330.708 180.413 332.022 170.275 324.327 154.265C316.632 138.255 287.173 117.442 287.173 117.442C287.173 117.442 300.972 144.658 288.5 158.809C276.027 172.96 224.54 196.416 216.845 182.814C209.15 169.213 230.113 155.864 230.113 155.864C230.113 155.864 188.712 165.743 188.967 157.466C189.222 149.19 215.242 140.657 231.955 137.453C248.668 134.248 238.324 151.064 238.324 151.064C238.324 151.064 257.699 147.859 266.72 132.118C275.742 116.377 261.414 83.8206 246.817 82.7525C232.219 81.6843 210.722 83.5551 201.434 79.2857C192.145 75.0162 199.84 64.8752 206.74 68.345C213.639 71.8149 230.362 77.418 242.57 73.6826C254.779 69.9472 247.898 42.4629 247.898 42.4629C237.811 61.3867 224.807 57.1389 211.536 49.6651C198.265 42.1912 174.382 67.0114 174.646 79.3011C174.91 91.5908 185.528 97.4439 201.716 94.2426C217.904 91.0413 224.54 94.2426 222.108 103.047C219.676 111.851 170.664 116.939 143.594 119.325C116.523 121.712 95.2905 126.53 92.963 144.139C90.6355 161.748 121.034 183.882 125.017 188.152C128.999 192.421 123.156 211.901 109.357 222.573C95.5576 233.245 92.963 244.985 92.963 244.985C92.963 244.985 114.399 235.915 119.176 249.14C123.954 262.365 96.3529 296.746 88.3909 311.746C80.4289 326.747 79.3665 311.16 70.8733 292.483C62.3801 273.806 81.4883 258.862 81.4883 258.862C81.4883 258.862 49.6465 277.004 49.6465 298.7C49.6465 320.397 61.3146 351.718 77.2478 363.458C93.181 375.199 118.651 380.002 131.391 392.823C144.131 405.643 130.329 447.245 109.627 466.4C88.9252 485.556 94.7654 508.076 105.912 512.883C117.058 517.689 126.767 550.28 117.546 564.616L325.73 534.177C325.73 534.177 319.826 492.872 332.114 481.932C344.403 470.991 329.114 471.79 343.168 455.139C357.222 438.487 339.984 433.103 336.536 420.295C333.087 407.486 346.362 383.203 362.811 363.458C379.26 343.713 376.078 327.704 369.179 311.746C362.279 295.789 339.99 270.778 339.99 270.778ZM100.599 334.1C96.9424 328.543 114.93 310.975 121.298 317.025C127.667 323.076 107.499 344.596 100.599 334.1ZM173.32 186.994C161.995 194.094 146.956 179.702 130.501 165.116C114.045 150.529 125.017 149.64 145.715 154.62C166.414 159.599 179.86 182.885 173.32 186.994Z" fill="url(#paint0_linear_37_961)"/>
<path style="mix-blend-mode:screen" opacity="0.33" d="M339.99 270.778C339.99 270.778 347.421 286.88 342.379 297.179C337.337 307.477 328.313 291.68 316.893 282.876C305.474 274.072 290.886 255.926 308.667 247.921C326.449 239.916 335.206 259.124 335.206 259.124C333.616 242.309 315.036 228.176 308.667 220.437C302.299 212.697 304.676 200.158 317.692 190.285C330.708 180.413 332.022 170.275 324.327 154.265C316.632 138.255 287.173 117.442 287.173 117.442C287.173 117.442 300.972 144.658 288.5 158.809C276.027 172.96 224.54 196.416 216.845 182.814C209.15 169.213 230.113 155.864 230.113 155.864C230.113 155.864 188.712 165.743 188.967 157.466C189.222 149.19 215.242 140.657 231.955 137.453C248.668 134.248 238.324 151.064 238.324 151.064C238.324 151.064 257.699 147.859 266.72 132.118C275.742 116.377 261.414 83.8206 246.817 82.7525C232.219 81.6843 210.722 83.5551 201.434 79.2857C192.145 75.0162 199.84 64.8752 206.74 68.345C213.639 71.8149 230.362 77.418 242.57 73.6826C254.779 69.9472 247.898 42.4629 247.898 42.4629C237.811 61.3867 224.807 57.1389 211.536 49.6651C198.265 42.1912 174.382 67.0114 174.646 79.3011C174.91 91.5908 185.528 97.4439 201.716 94.2426C217.904 91.0413 224.54 94.2426 222.108 103.047C219.676 111.851 170.664 116.939 143.594 119.325C116.523 121.712 95.2905 126.53 92.963 144.139C90.6355 161.748 121.034 183.882 125.017 188.152C128.999 192.421 123.156 211.901 109.357 222.573C95.5576 233.245 92.963 244.985 92.963 244.985C92.963 244.985 114.399 235.915 119.176 249.14C123.954 262.365 96.3529 296.746 88.3909 311.746C80.4289 326.747 79.3665 311.16 70.8733 292.483C62.3801 273.806 81.4883 258.862 81.4883 258.862C81.4883 258.862 49.6465 277.004 49.6465 298.7C49.6465 320.397 61.3146 351.718 77.2478 363.458C93.181 375.199 118.651 380.002 131.391 392.823C144.131 405.643 130.329 447.245 109.627 466.4C88.9252 485.556 94.7654 508.076 105.912 512.883C117.058 517.689 126.767 550.28 117.546 564.616L325.73 534.177C325.73 534.177 319.826 492.872 332.114 481.932C344.403 470.991 329.114 471.79 343.168 455.139C357.222 438.487 339.984 433.103 336.536 420.295C333.087 407.486 346.362 383.203 362.811 363.458C379.26 343.713 376.078 327.704 369.179 311.746C362.279 295.789 339.99 270.778 339.99 270.778ZM100.599 334.1C96.9424 328.543 114.93 310.975 121.298 317.025C127.667 323.076 107.499 344.596 100.599 334.1ZM173.32 186.994C161.995 194.094 146.956 179.702 130.501 165.116C114.045 150.529 125.017 149.64 145.715 154.62C166.414 159.599 179.86 182.885 173.32 186.994Z" fill="url(#paint1_linear_37_961)"/>
<path d="M245.044 259.272C245.044 259.272 243.969 256.509 245.993 258.988C248.016 261.467 249.22 261.458 248.142 249.492L253.712 252.366C253.712 252.366 252.34 266.876 251.928 268.32C251.517 269.765 170.012 531.211 170.012 531.211L139.788 513.614L138.6 506.668C138.6 506.668 146.73 508.545 149.823 508.891C152.915 509.237 155.598 509.434 151.189 507.005C146.78 504.575 153.523 486.59 156.381 487.247C159.24 487.905 152.472 461.084 152.472 461.084L206.914 374.066L245.044 259.272Z" fill="url(#paint2_linear_37_961)"/>
<mask id="mask0_37_961" style="mask-type:luminance" maskUnits="userSpaceOnUse" x="112" y="249" width="221" height="373">
<path d="M314.503 487.902C308.319 482.515 306.67 444.8 293.479 369.79C280.288 294.78 273.968 257.753 260.228 251.122C257.464 249.789 252.671 248.498 248.13 249.492L250.586 252.922C251.345 257.889 251.507 262.492 249.358 262.162C246.757 261.757 243.892 255.518 241.915 250.258C228.444 252.468 211.937 258.408 198.546 260.924L184.934 254.784H179.162V265.193C170.073 268.722 165.958 273.973 160.738 280.409C160.738 280.409 143.426 301.402 147.535 307.622C151.643 313.843 171.464 356.945 171.464 356.945C169.403 389.55 161.269 428.367 152.472 461.094L154.548 461.838C158.027 473.732 161.632 487.667 159.51 487.905C157.388 488.143 151.198 485.179 146.211 482.571C144.274 489.001 142.318 495.252 140.377 501.281C170.3 516.346 154.428 512.596 141.243 509.104L138.599 506.668C125.061 547.44 112.104 577.826 112.104 577.826L228.76 606.844C228.76 606.844 236.594 614.719 241.129 617.621C245.664 620.523 262.564 623.836 288.532 617.621C305.322 613.608 318.839 603.692 326.3 597.188C328.319 595.431 329.892 593.216 330.891 590.726C331.889 588.236 332.284 585.543 332.042 582.87C329.401 553.283 320.098 492.776 314.503 487.902Z" fill="white"/>
</mask>
<g mask="url(#mask0_37_961)">
<path d="M332.039 582.87C329.401 553.277 320.098 492.776 314.503 487.902C308.319 482.515 306.67 444.8 293.479 369.79C280.288 294.78 273.968 257.753 260.228 251.122C247.39 244.93 219.242 257.04 198.568 260.936L184.956 254.796H179.183V265.206C170.094 268.734 165.98 273.985 160.76 280.422C160.76 280.422 143.448 301.414 147.556 307.635C151.665 313.855 171.464 356.945 171.464 356.945C165.28 454.75 112.104 577.838 112.104 577.838L228.761 606.857C228.761 606.857 236.594 614.732 241.129 617.634C245.664 620.536 262.564 623.848 288.532 617.634C305.322 613.62 318.839 603.705 326.3 597.2C328.32 595.441 329.894 593.224 330.892 590.732C331.89 588.24 332.283 585.545 332.039 582.87Z" fill="url(#paint3_linear_37_961)"/>
<g style="mix-blend-mode:multiply" opacity="0.31">
<path d="M147.556 307.622C151.677 313.84 171.464 356.941 171.464 356.941C165.28 454.747 112.104 577.835 112.104 577.835L228.76 606.854C228.76 606.854 236.594 614.729 241.129 617.631C245.664 620.533 262.564 623.845 288.532 617.631C305.322 613.617 318.839 603.702 326.3 597.197C328.319 595.44 329.892 593.225 330.891 590.735C331.889 588.246 332.284 585.553 332.042 582.879C329.404 553.286 320.101 492.786 314.506 487.911C309.523 483.571 307.481 458.223 299.976 409.302C302.245 431.529 303.753 452.688 303.375 467.604C302.147 516.507 310.797 491.64 310.797 491.64C310.797 491.64 325.228 531.106 321.925 541.373C318.621 551.641 310.797 617.624 281.117 612.657C251.437 607.69 226.703 583.639 227.115 581.573C227.526 579.508 231.65 497.03 230.434 493.283C229.218 489.535 228.352 483.753 226.703 482.922C225.398 482.268 228.739 473.828 229.986 469.512C230.317 468.373 255.078 472.908 254.992 472.562C254.906 472.216 228.932 463.968 226.642 459.334C216.312 438.462 191.533 381.4 185.496 370.197C177.7 355.759 175.879 347.816 192.918 332.899C209.956 317.982 236.888 292.56 236.888 292.56C236.888 292.56 197.315 328.201 186.872 324.049C176.429 319.896 145.702 309.422 147.959 300.587C146.853 303.504 146.506 306.042 147.556 307.622Z" fill="#AE2A4C"/>
</g>
<g style="mix-blend-mode:multiply" opacity="0.31">
<path d="M223.813 592.755C224.228 589.646 228.348 500.76 228.76 495.638C229.171 490.517 225.327 483.342 223.951 482.101C222.576 480.86 225.179 468.561 224.777 467.32C224.375 466.079 171.463 356.945 171.463 356.945C170.207 376.804 166.995 397.694 162.703 418.402C162.703 418.402 172.7 385.127 175.172 388.025C177.644 390.924 213.508 535.567 206.913 541.367C200.317 547.168 137.662 569.151 132.298 563.749C127.818 559.241 126.817 550.054 130.938 529.01C120.467 558.454 112.1 577.838 112.1 577.838L228.757 606.857C225.668 603.529 223.402 595.864 223.813 592.755Z" fill="#AE2A4C"/>
</g>
<path style="mix-blend-mode:screen" opacity="0.74" d="M171.463 356.945C171.285 359.723 171.061 362.557 170.809 365.388C170.72 366.4 170.612 367.419 170.502 368.438C170.327 370.234 170.146 372.031 169.943 373.84C169.798 375.129 169.646 376.418 169.489 377.708C169.306 379.186 169.117 380.667 168.92 382.151C168.718 383.666 168.515 385.182 168.306 386.704C168.162 387.72 167.999 388.742 167.849 389.76C166.418 399.269 164.68 408.848 162.703 418.393C154.234 459.245 141.516 499.275 130.928 529.034C122.472 552.805 115.419 569.957 113.015 575.683L112.889 575.977C112.748 576.316 112.631 576.594 112.526 576.838C112.465 576.986 112.422 577.085 112.373 577.199L112.21 577.582L112.1 577.838L115.17 578.604C119.091 570.639 123.175 559.248 126.743 550.283C148.63 495.299 163.802 425.296 171.162 386.806C172.974 377.329 174.309 369.781 175.154 364.82C171.853 357.936 171.463 356.945 171.463 356.945Z" fill="url(#paint4_linear_37_961)"/>
<g style="mix-blend-mode:multiply" opacity="0.43">
<path d="M233.705 254.784C214.333 260.377 200.141 264.523 188.068 265.764C175.994 267.005 168.812 279.857 170.446 291.254C172.079 302.652 179.089 300.577 196.607 291.254C214.124 281.931 230.822 271.775 232.471 267.422C234.12 263.069 193.103 277.162 193.103 277.162C193.103 277.162 221.546 264.523 234.12 263.072C246.694 261.621 234.734 272.189 205.057 290.838C175.38 309.487 165.072 305.137 165.898 290.838C166.724 276.538 174.554 270.108 174.554 270.108C174.554 270.108 167.958 274.884 159.714 289.18C151.469 303.476 154.562 303.072 164.866 309.28C175.171 315.488 185.27 318.813 191.866 318.606C198.461 318.399 250.888 278.048 259.418 268.614C260.615 266.956 261.696 265.215 262.652 263.406C265.728 254.098 250.262 250.002 233.705 254.784Z" fill="#951631"/>
</g>
<g style="mix-blend-mode:multiply" opacity="0.31">
<path d="M184.949 254.784L185.582 262.14C189.942 262.247 194.3 261.843 198.567 260.936L184.949 254.784Z" fill="#AE2A4C"/>
</g>
<g style="mix-blend-mode:multiply" opacity="0.31">
<path d="M179.176 265.193C180.634 263.693 183.625 262.106 185.581 262.14C187.537 262.174 195.259 262.193 198.56 260.924L184.948 254.784H179.176V265.193Z" fill="#AE2A4C"/>
</g>
<g style="mix-blend-mode:multiply" opacity="0.43">
<path d="M166.718 297.867C165.999 295.947 165.738 293.582 165.898 290.838C166.721 276.541 174.554 270.108 174.554 270.108C174.554 270.108 167.958 274.884 159.714 289.18C151.469 303.476 154.562 303.072 164.866 309.28C167.627 310.947 170.482 312.453 173.415 313.79L166.718 297.885V297.867Z" fill="#951631"/>
</g>
<g style="mix-blend-mode:multiply" opacity="0.43">
<path d="M261.836 257.593C258.108 252.635 246.228 251.169 233.706 254.784C223.058 257.871 214.015 260.47 205.988 262.427C226.34 258.377 235.235 260.72 238.398 263.387C238.576 263.49 238.726 263.634 238.837 263.807C238.871 263.844 238.914 263.878 238.948 263.915C240.919 266.11 244.705 275.683 246.422 280.187C252.529 275.158 257.316 270.941 259.422 268.614C260.618 266.955 261.698 265.215 262.653 263.406C263.402 261.143 263.049 259.189 261.836 257.593Z" fill="#951631"/>
</g>
<g style="mix-blend-mode:multiply" opacity="0.43">
<path d="M193.103 277.162C193.103 277.162 217.975 266.104 231.485 263.489C203.353 268.141 179.166 280.187 179.166 280.187L191.313 293.993C192.965 293.162 194.709 292.258 196.598 291.254C207.612 285.389 218.294 279.215 225.123 274.331C221.503 277.069 197.629 286.679 197.629 286.679L193.103 277.162Z" fill="#951631"/>
</g>
<g style="mix-blend-mode:multiply" opacity="0.43">
<path d="M225.158 274.312C229.178 271.448 231.861 269.037 232.472 267.422C233.004 266.017 229.07 266.542 223.516 267.891C223.519 267.891 228.714 271.593 225.158 274.312Z" fill="#951631"/>
</g>
<g style="mix-blend-mode:multiply" opacity="0.31">
<path d="M166.719 297.867C166.719 297.885 173.416 313.79 173.416 313.79C172.074 313.173 170.714 312.509 169.344 311.793C178.037 316.371 186.232 318.782 191.867 318.606C196.832 318.452 227.792 295.527 246.421 280.187C245.5 277.764 243.965 273.893 242.463 270.478C244.515 275.658 211.58 302.238 208.012 304.584C204.444 306.931 182.13 310.882 179.176 310.385C176.222 309.888 171.761 303.612 175.375 303.245C175.439 303.245 175.454 303.211 175.51 303.198C170.852 303.248 168.011 301.315 166.719 297.867Z" fill="#AE2A4C"/>
</g>
<path style="mix-blend-mode:screen" opacity="0.74" d="M260.226 251.122C247.388 244.93 219.24 257.04 198.566 260.936C195.265 262.205 187.543 262.171 185.587 262.152C183.631 262.134 180.64 263.696 179.182 265.206C170.093 268.734 165.978 273.985 160.758 280.422C160.758 280.422 151.138 292.097 147.954 300.611C145.697 309.45 176.433 319.933 186.867 324.073C197.301 328.213 236.884 292.585 236.884 292.585C250.818 281.333 272.634 267.271 267.012 257.726C264.924 254.506 262.695 252.314 260.226 251.122ZM262.652 263.415C261.697 265.221 260.617 266.958 259.422 268.614C250.889 278.048 198.459 318.399 191.869 318.606C185.28 318.813 175.175 315.497 164.87 309.28C154.565 303.063 151.473 303.479 159.717 289.18C167.962 274.88 174.557 270.108 174.557 270.108C174.557 270.108 166.724 276.541 165.901 290.838C165.079 305.134 175.38 309.49 205.06 290.838C234.74 272.185 246.694 261.621 234.123 263.072C221.552 264.523 193.107 277.162 193.107 277.162C193.107 277.162 234.123 263.072 232.474 267.422C230.826 271.772 214.131 281.931 196.61 291.254C179.09 300.577 172.082 302.649 170.449 291.254C168.815 279.86 176.001 267.008 188.071 265.764C200.141 264.52 214.337 260.377 233.709 254.784C250.262 250.002 265.729 254.098 262.652 263.406V263.415Z" fill="url(#paint5_linear_37_961)"/>
<path style="mix-blend-mode:screen" opacity="0.71" d="M310.792 491.631C310.792 491.631 302.133 516.498 303.371 467.595C303.749 452.678 302.241 431.504 299.972 409.292C302.462 425.533 304.347 439.12 305.941 450.258C303.177 431.041 299.563 404.393 293.478 369.79C282.089 305.023 275.819 268.598 265.474 255.583C265.993 256.235 266.5 256.938 267.009 257.707C272.631 267.24 250.815 281.314 236.881 292.566C260.524 278.752 270.657 340.478 283.185 414.547C295.713 488.615 299.812 524.373 299.812 524.373C299.812 524.373 308.511 510.459 310.528 514.426C313.482 520.227 312.81 578.601 307.74 591.838C315.165 572.448 319.983 547.436 321.932 541.364C325.218 531.096 310.792 491.631 310.792 491.631Z" fill="url(#paint6_linear_37_961)"/>
<path style="mix-blend-mode:multiply" opacity="0.43" d="M263.049 591.838C262.297 584.29 269.985 497.021 267.907 492.462C265.828 487.902 260.504 480.857 267.907 478.369C275.31 475.881 263.39 468.839 259.681 465.937C255.971 463.035 216.386 342.022 218.458 332.489C220.531 322.956 231.216 297.481 236.882 292.566C236.882 292.566 197.308 328.207 186.865 324.055C176.422 319.903 145.695 309.428 147.952 300.593C146.865 303.498 146.518 306.035 147.568 307.616C151.689 313.833 171.476 356.935 171.476 356.935C171.476 356.935 224.36 466.076 224.778 467.32C225.195 468.564 222.579 480.857 223.952 482.101C225.324 483.345 229.172 490.526 228.76 495.638C228.349 500.75 224.228 589.646 223.813 592.755C223.399 595.864 225.656 603.529 228.76 606.844C228.76 606.844 236.593 614.719 241.128 617.621C245.664 620.523 262.564 623.836 288.532 617.621C302.656 614.241 314.41 606.708 322.243 600.525C306.927 612.111 263.798 599.358 263.049 591.838Z" fill="url(#paint7_linear_37_961)"/>
<g style="mix-blend-mode:multiply" opacity="0.31">
<path d="M214.745 467.771C212.685 472.507 220.515 485 221.706 492.048C222.898 499.096 223.813 592.755 223.813 592.755C224.227 589.646 228.348 500.76 228.759 495.638C229.171 490.517 225.327 483.342 223.951 482.101C222.575 480.86 225.179 468.561 224.777 467.32C224.43 466.28 187.442 389.915 175.295 364.851L175.172 364.817C175.172 364.817 216.806 463.035 214.745 467.771Z" fill="#AE2A4C"/>
</g>
</g>
<g style="mix-blend-mode:multiply" opacity="0.22">
<path d="M261.515 283.987L277.951 377.347C278.037 377.823 277.995 378.313 277.829 378.767L275.547 385.018C275.386 385.449 275.34 385.914 275.412 386.368C276.818 395.32 291.79 490.05 300.671 520.529L271.34 382.746C271.235 382.253 271.268 381.74 271.436 381.265L273.763 374.618C273.941 374.103 273.965 373.547 273.831 373.019L252.868 291.927C252.705 291.291 252.773 290.616 253.061 290.026L256.381 283.253C256.633 282.731 257.043 282.304 257.552 282.032C258.061 281.76 258.643 281.657 259.214 281.739C259.785 281.821 260.315 282.082 260.729 282.486C261.142 282.89 261.417 283.416 261.515 283.987Z" fill="#F56B6F"/>
</g>
<g style="mix-blend-mode:multiply" opacity="0.22">
<path d="M251.189 307.613L263.656 365.033C263.708 365.277 263.727 365.527 263.711 365.777L263.14 375.624L245.893 308.891C245.8 308.538 245.779 308.17 245.83 307.809C245.881 307.447 246.003 307.1 246.189 306.787C246.376 306.474 246.623 306.201 246.915 305.985C247.208 305.769 247.541 305.614 247.894 305.53C248.247 305.445 248.613 305.432 248.971 305.491C249.329 305.551 249.672 305.682 249.979 305.877C250.286 306.071 250.551 306.326 250.759 306.625C250.967 306.924 251.113 307.262 251.189 307.619V307.613Z" fill="#F56B6F"/>
</g>
<g style="mix-blend-mode:multiply" opacity="0.22">
<path d="M287.676 575.961L290.009 612.315C290.041 612.831 290.217 613.328 290.517 613.748C290.818 614.168 291.231 614.494 291.708 614.688C292.185 614.882 292.707 614.936 293.213 614.844C293.72 614.751 294.19 614.517 294.569 614.167L295.951 612.892C296.282 612.587 296.534 612.205 296.682 611.779C296.83 611.352 296.871 610.896 296.801 610.45L292.503 582.833C292.429 582.384 292.247 581.96 291.972 581.598L287.676 575.961Z" fill="#F56B6F"/>
</g>
<g style="mix-blend-mode:multiply" opacity="0.22">
<path d="M282.274 570.793H285.842L285.71 610.113L283.036 607.644C282.756 607.386 282.534 607.073 282.382 606.723C282.23 606.374 282.153 605.997 282.154 605.616L282.274 570.793Z" fill="#F56B6F"/>
</g>
<g style="mix-blend-mode:multiply" opacity="0.22">
<path d="M250.178 502.217L254.713 513.268C254.852 513.603 254.922 513.962 254.919 514.324L254.67 588.133L252.214 573.485C252.189 573.331 252.177 573.175 252.177 573.019L252.324 529.201C252.327 528.83 252.254 528.462 252.109 528.12L249.539 522.023C249.38 521.645 249.308 521.236 249.327 520.826L250.178 502.217Z" fill="#F56B6F"/>
</g>
<g style="mix-blend-mode:multiply" opacity="0.22">
<path d="M171.354 584.114L178.497 548.4C178.598 547.894 178.554 547.369 178.372 546.887C178.189 546.404 177.875 545.983 177.464 545.673C177.054 545.363 176.565 545.175 176.053 545.132C175.542 545.089 175.028 545.192 174.572 545.43L172.908 546.3C172.509 546.508 172.167 546.811 171.914 547.184C171.66 547.557 171.503 547.988 171.456 548.437L168.471 576.221C168.422 576.676 168.487 577.137 168.662 577.56L171.354 584.114Z" fill="#F56B6F"/>
</g>
<g style="mix-blend-mode:multiply" opacity="0.22">
<path d="M181.373 564.616L177.928 563.671L188.22 525.734L190.164 528.821C190.366 529.143 190.5 529.503 190.556 529.88C190.612 530.256 190.589 530.64 190.489 531.007L181.373 564.616Z" fill="#F56B6F"/>
</g>
<g style="mix-blend-mode:multiply" opacity="0.22">
<path d="M170.853 489.856L169.318 477.999C169.271 477.64 169.296 477.276 169.391 476.927L188.72 405.721L187.311 420.508C187.296 420.663 187.268 420.817 187.228 420.968L175.76 463.242C175.661 463.6 175.637 463.974 175.689 464.341L176.61 470.901C176.667 471.308 176.633 471.723 176.509 472.115L170.853 489.856Z" fill="#F56B6F"/>
</g>
<path style="mix-blend-mode:screen" opacity="0.33" d="M314.504 487.902C314.316 487.734 314.142 487.55 313.985 487.352C313.93 487.288 313.878 487.21 313.826 487.139C313.709 486.985 313.592 486.831 313.479 486.636C313.42 486.544 313.362 486.445 313.307 486.346C313.196 486.155 313.086 485.948 312.978 485.729C312.926 485.624 312.874 485.525 312.821 485.42C312.686 485.13 312.551 484.803 312.422 484.494C312.401 484.441 312.379 484.398 312.358 484.346C312.207 483.957 312.051 483.54 311.913 483.111C311.867 482.975 311.82 482.827 311.774 482.685C311.673 482.376 311.572 482.03 311.467 481.681C311.418 481.502 311.363 481.317 311.314 481.132C311.216 480.786 311.12 480.425 311.025 480.051C310.976 479.863 310.927 479.675 310.878 479.477C310.761 479.008 310.644 478.517 310.528 478.008C310.503 477.9 310.479 477.801 310.454 477.699C310.313 477.067 310.172 476.407 310.03 475.717C309.993 475.544 309.957 475.362 309.923 475.186C309.815 474.655 309.708 474.109 309.6 473.541C309.557 473.312 309.511 473.075 309.468 472.837C309.364 472.275 309.262 471.699 309.161 471.108C309.121 470.886 309.085 470.67 309.045 470.444C308.916 469.708 308.786 468.947 308.655 468.163C308.655 468.083 308.627 468.006 308.615 467.922C308.458 466.996 308.308 466.027 308.145 465.033C307.982 464.039 307.838 463.045 307.675 462.023L307.62 461.646C307.469 460.665 307.313 459.652 307.162 458.615C307.162 458.565 307.147 458.519 307.141 458.47C306.951 457.181 306.755 455.844 306.554 454.456C306.349 453.043 306.146 451.626 305.94 450.172C305.531 447.327 305.104 444.327 304.66 441.17C304.455 439.797 304.251 438.392 304.046 436.956C304.024 436.814 304.003 436.672 303.984 436.53C303.78 435.034 303.56 433.504 303.324 431.942L303.269 431.547C303.171 430.856 303.072 430.18 302.962 429.473L302.879 428.898C302.771 428.17 302.661 427.414 302.553 426.673L302.507 426.364C302.428 425.811 302.351 425.274 302.268 424.712C302.21 424.308 302.148 423.894 302.087 423.478C301.976 422.718 301.86 421.934 301.746 421.168L301.709 420.912C301.648 420.508 301.592 420.116 301.531 419.708C301.454 419.193 301.374 418.665 301.298 418.143C301.166 417.266 301.034 416.371 300.898 415.479C300.898 415.386 300.871 415.294 300.855 415.201C300.822 414.979 300.791 414.763 300.757 414.54C300.662 413.923 300.567 413.275 300.469 412.639C300.305 411.552 300.137 410.452 299.965 409.339C299.833 408.48 299.719 407.736 299.603 406.986C299.435 405.891 299.263 404.782 299.087 403.658C298.961 402.865 298.838 402.069 298.709 401.263C298.528 400.111 298.344 398.944 298.156 397.771C298.027 396.981 297.902 396.191 297.773 395.388C297.579 394.184 297.38 392.955 297.18 391.727C297.045 390.909 296.913 390.094 296.778 389.257C296.566 387.97 296.348 386.655 296.127 385.34C295.998 384.555 295.869 383.796 295.737 382.987C295.488 381.515 295.23 380.008 294.972 378.502C294.859 377.829 294.748 377.171 294.631 376.492C294.253 374.294 293.865 372.064 293.468 369.802C292.94 366.799 292.427 363.875 291.932 360.995C291.717 359.779 291.506 358.568 291.294 357.377C291.109 356.315 290.925 355.271 290.741 354.225C290.575 353.299 290.416 352.373 290.253 351.474C290.047 350.304 289.841 349.15 289.639 348.001C289.507 347.248 289.372 346.504 289.239 345.76C289.018 344.525 288.8 343.29 288.582 342.056C288.484 341.509 288.386 340.969 288.291 340.429C288.048 339.08 287.809 337.737 287.572 336.415C287.535 336.212 287.499 336.017 287.462 335.817C286.602 331.052 285.766 326.498 284.953 322.153C284.925 321.999 284.895 321.844 284.867 321.687C284.628 320.415 284.391 319.168 284.155 317.927L283.961 316.911C283.732 315.705 283.503 314.516 283.273 313.343C283.212 313.034 283.151 312.725 283.092 312.416C282.857 311.212 282.622 310.028 282.389 308.863L282.26 308.221C281.589 304.858 280.922 301.648 280.261 298.589C279.6 295.531 278.945 292.625 278.296 289.871C278.029 288.745 277.777 287.71 277.525 286.686L277.452 286.398C277.203 285.395 276.954 284.41 276.705 283.45L276.65 283.25C275.658 279.443 274.657 276.017 273.641 272.886C273.027 271.009 272.413 269.213 271.799 267.573C271.492 266.799 271.224 266.104 270.948 265.434C270.546 264.477 270.168 263.634 269.787 262.822C269.646 262.514 269.505 262.236 269.361 261.946C269.121 261.458 268.879 260.982 268.633 260.526C268.461 260.201 268.289 259.868 268.111 259.559C267.779 258.971 267.443 258.409 267.101 257.874C267.042 257.775 267.03 257.741 267.009 257.707C266.987 257.673 266.963 257.642 266.941 257.611C266.462 256.88 265.98 256.201 265.486 255.58L265.384 255.453C264.888 254.826 264.353 254.231 263.781 253.672C263.298 253.204 262.785 252.768 262.246 252.366C262.123 252.274 261.997 252.184 261.875 252.098C261.357 251.731 260.812 251.405 260.244 251.122C257.481 249.789 252.687 248.498 248.146 249.492C249.236 261.458 248.033 261.464 246.015 258.994C244.859 257.078 243.86 255.07 243.027 252.99C242.647 252.064 242.281 251.138 241.947 250.258C232.839 251.752 222.353 254.941 212.368 257.633C211.677 257.818 210.989 258.006 210.304 258.186C209.561 258.383 208.827 258.568 208.094 258.757C207.034 259.028 205.987 259.285 204.946 259.535C204.387 259.667 203.822 259.806 203.27 259.93C201.676 260.297 200.101 260.637 198.578 260.924L184.966 254.784H179.193V265.193C170.105 268.722 165.99 273.973 160.77 280.409C160.69 280.505 160.663 280.542 160.638 280.573C160.491 280.752 160.233 281.076 159.87 281.533C159.683 281.768 159.487 282.021 159.275 282.293L158.952 282.712L158.59 283.185L158.148 283.765L157.81 284.219C157.451 284.697 157.076 285.207 156.68 285.763L156.511 285.994C156.315 286.266 156.112 286.55 155.897 286.837C155.78 286.997 155.667 287.146 155.553 287.321L154.939 288.223C154.825 288.39 154.712 288.559 154.595 288.726C153.898 289.748 153.195 290.816 152.507 291.912L152.093 292.576C151.905 292.884 151.724 293.193 151.543 293.483C151.399 293.724 151.257 293.965 151.116 294.206C150.947 294.514 150.775 294.795 150.61 295.089C150.401 295.462 150.201 295.833 149.995 296.203C149.79 296.573 149.633 296.895 149.461 297.24C149.289 297.586 149.154 297.858 149.01 298.166C148.896 298.41 148.786 298.651 148.678 298.892C148.543 299.201 148.414 299.494 148.294 299.793C148.202 300.013 148.11 300.232 148.027 300.448C148.006 300.506 147.978 300.565 147.96 300.621C147.886 300.812 147.837 300.991 147.772 301.176C147.671 301.485 147.56 301.794 147.465 302.072C147.37 302.349 147.342 302.556 147.281 302.797C147.22 303.038 147.143 303.328 147.1 303.581C147.057 303.834 147.035 304.094 147.008 304.347C146.98 304.6 146.946 304.77 146.94 304.964C146.925 305.377 146.95 305.791 147.017 306.199C147.057 306.429 147.118 306.656 147.198 306.875C147.213 306.915 147.22 306.962 147.235 307.002C147.322 307.219 147.432 307.426 147.564 307.619C151.684 313.836 171.471 356.938 171.471 356.938C171.342 358.966 171.192 361.006 171.02 363.06C171.02 363.103 171.02 363.147 171.02 363.19C171.02 363.282 171.001 363.375 170.995 363.468C170.967 363.795 170.931 364.128 170.903 364.455C170.771 365.94 170.636 367.431 170.482 368.935C170.445 369.311 170.405 369.691 170.366 370.068C168.014 392.517 163.328 416.951 157.862 439.87C157.279 442.272 156.72 444.692 156.115 447.072C154.93 451.839 153.72 456.528 152.492 461.088C152.492 461.088 159.201 487.683 156.431 487.247C153.783 486.266 151.197 485.123 148.687 483.824C147.849 483.401 147.02 482.978 146.231 482.561C146.139 482.836 146.053 483.105 145.97 483.386C145.09 486.302 144.205 489.183 143.317 492.029C143.292 492.103 143.268 492.178 143.246 492.252C142.377 495.03 141.511 497.741 140.642 500.426C140.553 500.704 140.464 500.994 140.375 501.272C141.373 501.775 142.31 502.251 143.203 502.711C147.112 504.717 150.072 506.338 152.268 507.65C155.065 509.4 152.624 509.218 149.833 508.906C146.741 508.561 138.61 506.684 138.61 506.684L137.996 508.536C124.685 548.359 112.123 577.829 112.123 577.829L228.78 606.847C228.78 606.847 236.613 614.723 241.148 617.624C245.684 620.526 262.584 623.839 288.552 617.624C290.155 617.239 291.714 616.788 293.253 616.306C293.52 616.223 293.793 616.143 294.057 616.056C295.525 615.579 296.958 615.064 298.356 614.513L299.121 614.204C302.01 613.031 304.834 611.702 307.58 610.222L307.866 610.07C309.243 609.321 310.574 608.556 311.857 607.774C312.828 607.184 313.73 606.607 314.621 606.026L314.98 605.792C318.943 603.183 322.728 600.31 326.31 597.194C328.329 595.437 329.903 593.222 330.901 590.732C331.899 588.242 332.294 585.55 332.052 582.876C329.403 553.283 320.099 492.776 314.504 487.902Z" fill="url(#paint8_radial_37_961)"/>
<g opacity="0.65">
<g style="mix-blend-mode:screen">
<path d="M224.903 402.664C224.903 402.738 224.881 402.809 224.841 402.87C224.8 402.931 224.743 402.979 224.675 403.007C224.608 403.035 224.534 403.042 224.463 403.028C224.391 403.013 224.325 402.978 224.274 402.926C224.222 402.874 224.187 402.808 224.173 402.737C224.159 402.665 224.166 402.59 224.194 402.523C224.222 402.455 224.269 402.397 224.33 402.356C224.39 402.316 224.462 402.294 224.534 402.294C224.583 402.293 224.631 402.303 224.676 402.321C224.721 402.34 224.762 402.367 224.796 402.401C224.83 402.436 224.857 402.477 224.876 402.522C224.894 402.567 224.903 402.616 224.903 402.664Z" fill="#FFFF7E"/>
</g>
<path style="mix-blend-mode:screen" opacity="0.69" d="M224.534 412.179C229.76 412.179 233.997 407.919 233.997 402.664C233.997 397.41 229.76 393.15 224.534 393.15C219.307 393.15 215.07 397.41 215.07 402.664C215.07 407.919 219.307 412.179 224.534 412.179Z" fill="url(#paint9_radial_37_961)"/>
</g>
<g opacity="0.65">
<g style="mix-blend-mode:screen">
<path d="M220.911 357.979C220.911 358.052 220.89 358.124 220.85 358.186C220.81 358.247 220.752 358.295 220.685 358.323C220.617 358.352 220.543 358.359 220.471 358.345C220.399 358.331 220.333 358.296 220.282 358.244C220.23 358.192 220.195 358.126 220.181 358.053C220.167 357.981 220.174 357.906 220.202 357.839C220.231 357.771 220.278 357.713 220.339 357.673C220.401 357.632 220.472 357.611 220.545 357.611C220.593 357.611 220.641 357.621 220.685 357.639C220.73 357.658 220.77 357.685 220.804 357.719C220.838 357.753 220.865 357.794 220.883 357.838C220.901 357.883 220.911 357.931 220.911 357.979Z" fill="#FFFF7E"/>
</g>
<path style="mix-blend-mode:screen" opacity="0.69" d="M220.542 367.496C225.768 367.496 230.005 363.236 230.005 357.982C230.005 352.727 225.768 348.467 220.542 348.467C215.315 348.467 211.078 352.727 211.078 357.982C211.078 363.236 215.315 367.496 220.542 367.496Z" fill="url(#paint10_radial_37_961)"/>
</g>
<g opacity="0.65">
<g style="mix-blend-mode:screen">
<path d="M287.923 474.155C287.915 474.247 287.872 474.333 287.804 474.395C287.736 474.457 287.648 474.492 287.556 474.492C287.464 474.492 287.375 474.457 287.308 474.395C287.24 474.333 287.197 474.247 287.189 474.155C287.184 474.104 287.19 474.052 287.207 474.003C287.223 473.955 287.249 473.91 287.284 473.872C287.318 473.834 287.36 473.803 287.407 473.782C287.454 473.762 287.505 473.751 287.556 473.751C287.607 473.751 287.658 473.762 287.705 473.782C287.752 473.803 287.794 473.834 287.828 473.872C287.863 473.91 287.889 473.955 287.905 474.003C287.922 474.052 287.928 474.104 287.923 474.155Z" fill="#FFFF7E"/>
</g>
<path style="mix-blend-mode:screen" opacity="0.69" d="M294.953 480.051C298.214 475.945 297.548 469.958 293.463 466.679C289.379 463.4 283.425 464.071 280.163 468.177C276.902 472.283 277.569 478.27 281.653 481.549C285.737 484.828 291.691 484.157 294.953 480.051Z" fill="url(#paint11_radial_37_961)"/>
</g>
<g opacity="0.65">
<g style="mix-blend-mode:screen">
<path d="M292.909 563.449C292.909 563.522 292.887 563.594 292.847 563.655C292.806 563.716 292.749 563.763 292.681 563.791C292.614 563.819 292.54 563.827 292.468 563.813C292.397 563.798 292.331 563.763 292.28 563.711C292.228 563.659 292.193 563.593 292.179 563.521C292.165 563.45 292.172 563.375 292.2 563.307C292.228 563.24 292.275 563.182 292.336 563.141C292.396 563.1 292.467 563.079 292.54 563.079C292.589 563.078 292.637 563.088 292.682 563.106C292.727 563.125 292.768 563.152 292.802 563.186C292.836 563.221 292.863 563.262 292.882 563.307C292.9 563.352 292.909 563.4 292.909 563.449Z" fill="#FFFF7E"/>
</g>
<path style="mix-blend-mode:screen" opacity="0.69" d="M292.54 572.964C297.766 572.964 302.003 568.704 302.003 563.449C302.003 558.195 297.766 553.935 292.54 553.935C287.313 553.935 283.076 558.195 283.076 563.449C283.076 568.704 287.313 572.964 292.54 572.964Z" fill="url(#paint12_radial_37_961)"/>
</g>
<g opacity="0.65">
<g style="mix-blend-mode:screen">
<path d="M194.27 530.877C194.271 530.951 194.25 531.023 194.209 531.084C194.169 531.146 194.112 531.194 194.044 531.222C193.977 531.25 193.902 531.258 193.831 531.244C193.759 531.23 193.693 531.194 193.641 531.142C193.589 531.09 193.554 531.024 193.54 530.952C193.526 530.88 193.534 530.805 193.562 530.737C193.59 530.669 193.638 530.612 193.699 530.571C193.76 530.531 193.832 530.509 193.905 530.51C193.953 530.51 194 530.519 194.045 530.538C194.089 530.556 194.129 530.583 194.163 530.617C194.197 530.652 194.224 530.692 194.242 530.737C194.261 530.781 194.27 530.829 194.27 530.877Z" fill="#FFFF7E"/>
</g>
<path style="mix-blend-mode:screen" opacity="0.69" d="M203.133 533.081C204.318 527.963 201.153 522.848 196.063 521.656C190.972 520.464 185.885 523.647 184.699 528.764C183.514 533.882 186.679 538.997 191.77 540.189C196.86 541.381 201.947 538.198 203.133 533.081Z" fill="url(#paint13_radial_37_961)"/>
</g>
<g opacity="0.65">
<g style="mix-blend-mode:screen">
<path d="M336.853 487.146C336.844 487.238 336.802 487.323 336.734 487.385C336.666 487.448 336.578 487.482 336.486 487.482C336.394 487.482 336.305 487.448 336.237 487.385C336.169 487.323 336.127 487.238 336.119 487.146C336.114 487.094 336.12 487.043 336.136 486.994C336.153 486.945 336.179 486.9 336.214 486.862C336.248 486.824 336.29 486.794 336.337 486.773C336.384 486.752 336.434 486.741 336.486 486.741C336.537 486.741 336.588 486.752 336.634 486.773C336.681 486.794 336.723 486.824 336.758 486.862C336.792 486.9 336.819 486.945 336.835 486.994C336.851 487.043 336.857 487.094 336.853 487.146Z" fill="#FFFF7E"/>
</g>
<path style="mix-blend-mode:screen" opacity="0.69" d="M336.485 496.66C341.711 496.66 345.948 492.4 345.948 487.146C345.948 481.891 341.711 477.631 336.485 477.631C331.258 477.631 327.021 481.891 327.021 487.146C327.021 492.4 331.258 496.66 336.485 496.66Z" fill="url(#paint14_radial_37_961)"/>
</g>
<g opacity="0.65">
<g style="mix-blend-mode:screen">
<path d="M349.673 431.498C349.665 431.59 349.622 431.675 349.554 431.738C349.486 431.8 349.398 431.834 349.306 431.834C349.214 431.834 349.125 431.8 349.058 431.738C348.99 431.675 348.947 431.59 348.939 431.498C348.934 431.446 348.94 431.395 348.957 431.346C348.973 431.297 348.999 431.252 349.034 431.214C349.068 431.176 349.11 431.146 349.157 431.125C349.204 431.104 349.255 431.094 349.306 431.094C349.357 431.094 349.408 431.104 349.455 431.125C349.502 431.146 349.544 431.176 349.578 431.214C349.613 431.252 349.639 431.297 349.655 431.346C349.672 431.395 349.678 431.446 349.673 431.498Z" fill="#FFFF7E"/>
</g>
<path style="mix-blend-mode:screen" opacity="0.69" d="M352.928 440.289C357.756 438.278 360.049 432.713 358.049 427.858C356.049 423.003 350.513 420.698 345.685 422.709C340.856 424.72 338.563 430.285 340.563 435.14C342.563 439.995 348.099 442.3 352.928 440.289Z" fill="url(#paint15_radial_37_961)"/>
</g>
<g opacity="0.65">
<g style="mix-blend-mode:screen">
<path d="M375.905 329.059C375.91 329.11 375.904 329.162 375.888 329.211C375.871 329.26 375.845 329.304 375.811 329.342C375.776 329.38 375.734 329.411 375.687 329.432C375.64 329.452 375.59 329.463 375.538 329.463C375.487 329.463 375.437 329.452 375.39 329.432C375.343 329.411 375.301 329.38 375.266 329.342C375.232 329.304 375.205 329.26 375.189 329.211C375.173 329.162 375.167 329.11 375.171 329.059C375.18 328.967 375.222 328.881 375.29 328.819C375.358 328.757 375.446 328.722 375.538 328.722C375.63 328.722 375.719 328.757 375.787 328.819C375.855 328.881 375.897 328.967 375.905 329.059Z" fill="#FFFF7E"/>
</g>
<path style="mix-blend-mode:screen" opacity="0.69" d="M375.538 338.576C380.764 338.576 385.001 334.317 385.001 329.062C385.001 323.807 380.764 319.548 375.538 319.548C370.311 319.548 366.074 323.807 366.074 329.062C366.074 334.317 370.311 338.576 375.538 338.576Z" fill="url(#paint16_radial_37_961)"/>
</g>
<g opacity="0.65">
<g style="mix-blend-mode:screen">
<path d="M89.2291 185.438C89.2291 185.512 89.2074 185.583 89.1668 185.644C89.1262 185.705 89.0684 185.753 89.0009 185.781C88.9334 185.809 88.8592 185.816 88.7876 185.801C88.7161 185.787 88.6504 185.751 88.599 185.699C88.5476 185.647 88.5128 185.581 88.4989 185.509C88.485 185.437 88.4928 185.362 88.5211 185.294C88.5495 185.227 88.5972 185.169 88.6582 185.129C88.7192 185.088 88.7907 185.067 88.8637 185.068C88.912 185.068 88.9597 185.077 89.0043 185.096C89.0488 185.115 89.0892 185.142 89.1232 185.177C89.1572 185.211 89.184 185.252 89.2022 185.297C89.2204 185.342 89.2295 185.39 89.2291 185.438Z" fill="#FFFF7E"/>
</g>
<path style="mix-blend-mode:screen" opacity="0.69" d="M88.86 194.953C94.0865 194.953 98.3235 190.693 98.3235 185.438C98.3235 180.184 94.0865 175.924 88.86 175.924C83.6334 175.924 79.3965 180.184 79.3965 185.438C79.3965 190.693 83.6334 194.953 88.86 194.953Z" fill="url(#paint17_radial_37_961)"/>
</g>
<g opacity="0.65">
<g style="mix-blend-mode:screen">
<path d="M102.048 129.79C102.053 129.842 102.047 129.893 102.03 129.942C102.014 129.991 101.988 130.036 101.953 130.074C101.919 130.112 101.877 130.142 101.83 130.163C101.783 130.184 101.732 130.195 101.681 130.195C101.63 130.195 101.579 130.184 101.532 130.163C101.485 130.142 101.443 130.112 101.409 130.074C101.374 130.036 101.348 129.991 101.332 129.942C101.315 129.893 101.309 129.842 101.314 129.79C101.322 129.698 101.365 129.613 101.433 129.551C101.5 129.488 101.589 129.454 101.681 129.454C101.773 129.454 101.861 129.488 101.929 129.551C101.997 129.613 102.04 129.698 102.048 129.79Z" fill="#FFFF7E"/>
</g>
<path style="mix-blend-mode:screen" opacity="0.69" d="M101.68 139.308C106.907 139.308 111.144 135.048 111.144 129.794C111.144 124.539 106.907 120.279 101.68 120.279C96.4537 120.279 92.2168 124.539 92.2168 129.794C92.2168 135.048 96.4537 139.308 101.68 139.308Z" fill="url(#paint18_radial_37_961)"/>
</g>
<g opacity="0.65">
<g style="mix-blend-mode:screen">
<path d="M175.011 79.2857C175.002 79.3777 174.96 79.4633 174.892 79.5255C174.824 79.5878 174.736 79.6224 174.644 79.6224C174.552 79.6224 174.463 79.5878 174.395 79.5255C174.328 79.4633 174.285 79.3777 174.277 79.2857C174.272 79.2344 174.278 79.1827 174.295 79.1339C174.311 79.0851 174.337 79.0402 174.372 79.0022C174.406 78.9642 174.448 78.9338 174.495 78.913C174.542 78.8922 174.593 78.8815 174.644 78.8815C174.695 78.8815 174.746 78.8922 174.793 78.913C174.839 78.9338 174.881 78.9642 174.916 79.0022C174.951 79.0402 174.977 79.0851 174.993 79.1339C175.009 79.1827 175.015 79.2344 175.011 79.2857Z" fill="#FFFF7E"/>
</g>
<path style="mix-blend-mode:screen" opacity="0.69" d="M174.643 88.8001C179.87 88.8001 184.107 84.5404 184.107 79.2857C184.107 74.031 179.87 69.7713 174.643 69.7713C169.417 69.7713 165.18 74.031 165.18 79.2857C165.18 84.5404 169.417 88.8001 174.643 88.8001Z" fill="url(#paint19_radial_37_961)"/>
</g>
<g opacity="0.65">
<g style="mix-blend-mode:screen">
<path d="M157.523 475.18C157.527 475.231 157.521 475.283 157.505 475.332C157.489 475.381 157.462 475.425 157.428 475.463C157.393 475.501 157.351 475.532 157.304 475.553C157.257 475.573 157.207 475.584 157.156 475.584C157.104 475.584 157.054 475.573 157.007 475.553C156.96 475.532 156.918 475.501 156.883 475.463C156.849 475.425 156.823 475.381 156.806 475.332C156.79 475.283 156.784 475.231 156.789 475.18C156.797 475.088 156.839 475.002 156.907 474.94C156.975 474.878 157.064 474.843 157.156 474.843C157.247 474.843 157.336 474.878 157.404 474.94C157.472 475.002 157.514 475.088 157.523 475.18Z" fill="#FFFF7E"/>
</g>
<path style="mix-blend-mode:screen" opacity="0.69" d="M157.155 484.701C162.381 484.701 166.618 480.441 166.618 475.186C166.618 469.932 162.381 465.672 157.155 465.672C151.928 465.672 147.691 469.932 147.691 475.186C147.691 480.441 151.928 484.701 157.155 484.701Z" fill="url(#paint20_radial_37_961)"/>
</g>
<g opacity="0.65">
<g style="mix-blend-mode:screen">
<path d="M67.7315 521.366C67.7231 521.458 67.6808 521.543 67.6129 521.606C67.5451 521.668 67.4565 521.703 67.3646 521.703C67.2726 521.703 67.1841 521.668 67.1162 521.606C67.0483 521.543 67.006 521.458 66.9976 521.366C66.993 521.315 66.999 521.263 67.0153 521.214C67.0316 521.165 67.0579 521.12 67.0924 521.082C67.1269 521.044 67.169 521.014 67.2158 520.993C67.2627 520.972 67.3133 520.962 67.3646 520.962C67.4158 520.962 67.4664 520.972 67.5133 520.993C67.5602 521.014 67.6022 521.044 67.6367 521.082C67.6713 521.12 67.6975 521.165 67.7138 521.214C67.7301 521.263 67.7362 521.315 67.7315 521.366Z" fill="#FFFF7E"/>
</g>
<path style="mix-blend-mode:screen" opacity="0.69" d="M76.6965 522.966C77.5708 517.785 74.1023 512.873 68.9494 511.994C63.7966 511.115 58.9105 514.602 58.0362 519.782C57.1619 524.963 60.6304 529.875 65.7832 530.754C70.9361 531.633 75.8222 528.146 76.6965 522.966Z" fill="url(#paint21_radial_37_961)"/>
</g>
<g opacity="0.65">
<g style="mix-blend-mode:screen">
<path d="M91.9186 547.35C91.9186 547.423 91.897 547.495 91.8565 547.556C91.816 547.617 91.7584 547.664 91.6911 547.692C91.6238 547.72 91.5497 547.728 91.4782 547.713C91.4067 547.699 91.3411 547.664 91.2896 547.612C91.238 547.56 91.2029 547.494 91.1887 547.422C91.1745 547.35 91.1818 547.276 91.2097 547.208C91.2376 547.14 91.2848 547.083 91.3454 547.042C91.406 547.001 91.4772 546.98 91.5501 546.98C91.5986 546.979 91.6467 546.988 91.6916 547.007C91.7365 547.025 91.7773 547.053 91.8116 547.087C91.8459 547.122 91.873 547.163 91.8914 547.208C91.9097 547.253 91.919 547.301 91.9186 547.35Z" fill="#FFFF7E"/>
</g>
<path style="mix-blend-mode:screen" opacity="0.69" d="M91.5494 556.864C96.776 556.864 101.013 552.605 101.013 547.35C101.013 542.095 96.776 537.836 91.5494 537.836C86.3229 537.836 82.0859 542.095 82.0859 547.35C82.0859 552.605 86.3229 556.864 91.5494 556.864Z" fill="url(#paint22_radial_37_961)"/>
</g>
<g opacity="0.65">
<g style="mix-blend-mode:screen">
<path d="M123.339 335.684C123.331 335.776 123.288 335.861 123.22 335.924C123.152 335.986 123.064 336.02 122.972 336.02C122.88 336.02 122.791 335.986 122.724 335.924C122.656 335.861 122.613 335.776 122.605 335.684C122.6 335.632 122.606 335.581 122.623 335.532C122.639 335.483 122.665 335.438 122.7 335.4C122.734 335.362 122.776 335.332 122.823 335.311C122.87 335.29 122.921 335.28 122.972 335.28C123.023 335.28 123.074 335.29 123.121 335.311C123.168 335.332 123.21 335.362 123.244 335.4C123.279 335.438 123.305 335.483 123.321 335.532C123.338 335.581 123.344 335.632 123.339 335.684Z" fill="#FFFF7E"/>
</g>
<path style="mix-blend-mode:screen" opacity="0.69" d="M122.962 345.198C128.188 345.198 132.425 340.938 132.425 335.684C132.425 330.429 128.188 326.169 122.962 326.169C117.735 326.169 113.498 330.429 113.498 335.684C113.498 340.938 117.735 345.198 122.962 345.198Z" fill="url(#paint23_radial_37_961)"/>
</g>
<g opacity="0.65">
<g style="mix-blend-mode:screen">
<path d="M75.8287 368.487C75.8287 368.561 75.807 368.632 75.7664 368.693C75.7258 368.754 75.6681 368.802 75.6006 368.83C75.533 368.858 75.4588 368.865 75.3872 368.85C75.3157 368.836 75.25 368.8 75.1986 368.748C75.1472 368.696 75.1124 368.63 75.0985 368.558C75.0846 368.485 75.0924 368.411 75.1207 368.343C75.1491 368.276 75.1968 368.218 75.2578 368.178C75.3188 368.137 75.3903 368.116 75.4633 368.117C75.5116 368.117 75.5594 368.126 75.6039 368.145C75.6484 368.164 75.6888 368.191 75.7228 368.225C75.7568 368.26 75.7836 368.301 75.8018 368.346C75.82 368.391 75.8291 368.439 75.8287 368.487Z" fill="#FFFF7E"/>
</g>
<path style="mix-blend-mode:screen" opacity="0.69" d="M82.1532 375.215C85.8489 371.499 85.849 365.475 82.1532 361.759C78.4575 358.044 72.4655 358.044 68.7698 361.759C65.0741 365.475 65.0741 371.499 68.7698 375.215C72.4656 378.93 78.4575 378.93 82.1532 375.215Z" fill="url(#paint24_radial_37_961)"/>
</g>
<g opacity="0.65">
<g style="mix-blend-mode:screen">
<path d="M72.3229 338.792C72.3229 338.866 72.3013 338.937 72.2608 338.998C72.2203 339.059 72.1627 339.107 72.0954 339.135C72.0281 339.163 71.954 339.17 71.8825 339.156C71.811 339.142 71.7454 339.106 71.6939 339.054C71.6423 339.003 71.6072 338.937 71.593 338.865C71.5788 338.793 71.5861 338.718 71.614 338.651C71.6419 338.583 71.6891 338.525 71.7497 338.484C71.8103 338.444 71.8815 338.422 71.9544 338.422C72.0029 338.422 72.051 338.431 72.0959 338.449C72.1408 338.468 72.1816 338.495 72.2159 338.53C72.2502 338.564 72.2773 338.605 72.2957 338.65C72.314 338.695 72.3233 338.744 72.3229 338.792Z" fill="#FFFF7E"/>
</g>
<path style="mix-blend-mode:screen" opacity="0.69" d="M71.9537 348.307C77.1803 348.307 81.4172 344.047 81.4172 338.792C81.4172 333.538 77.1803 329.278 71.9537 329.278C66.7272 329.278 62.4902 333.538 62.4902 338.792C62.4902 344.047 66.7272 348.307 71.9537 348.307Z" fill="url(#paint25_radial_37_961)"/>
</g>
<g opacity="0.65">
<g style="mix-blend-mode:screen">
<path d="M9.83263 330.794C9.83323 330.867 9.81214 330.939 9.77203 331C9.73191 331.062 9.67458 331.11 9.60731 331.138C9.54003 331.167 9.46585 331.174 9.39417 331.161C9.3225 331.147 9.25656 331.112 9.20472 331.06C9.15288 331.008 9.11748 330.942 9.10301 330.87C9.08854 330.798 9.09566 330.724 9.12345 330.656C9.15125 330.588 9.19847 330.53 9.25913 330.489C9.31979 330.448 9.39115 330.426 9.46416 330.426C9.56135 330.426 9.65461 330.465 9.72363 330.534C9.79264 330.603 9.83182 330.696 9.83263 330.794Z" fill="#FFFF7E"/>
</g>
<path style="mix-blend-mode:screen" opacity="0.69" d="M13.1342 339.566C17.9481 337.519 20.2005 331.937 18.1651 327.097C16.1296 322.257 10.5771 319.993 5.76322 322.039C0.949314 324.086 -1.30306 329.668 0.732396 334.508C2.76785 339.348 8.32034 341.612 13.1342 339.566Z" fill="url(#paint26_radial_37_961)"/>
</g>
<g opacity="0.65">
<g style="mix-blend-mode:screen">
<path d="M139.286 222.452C139.286 222.526 139.264 222.597 139.224 222.658C139.183 222.719 139.126 222.767 139.058 222.795C138.991 222.823 138.917 222.83 138.845 222.816C138.774 222.802 138.708 222.766 138.657 222.714C138.605 222.663 138.57 222.597 138.556 222.525C138.542 222.453 138.549 222.378 138.577 222.311C138.605 222.243 138.652 222.185 138.713 222.144C138.773 222.104 138.844 222.082 138.917 222.082C138.966 222.082 139.014 222.091 139.059 222.109C139.104 222.128 139.144 222.155 139.179 222.19C139.213 222.224 139.24 222.265 139.259 222.31C139.277 222.355 139.286 222.404 139.286 222.452Z" fill="#FFFF7E"/>
</g>
<path style="mix-blend-mode:screen" opacity="0.69" d="M138.917 231.967C144.143 231.967 148.38 227.707 148.38 222.452C148.38 217.198 144.143 212.938 138.917 212.938C133.69 212.938 129.453 217.198 129.453 222.452C129.453 227.707 133.69 231.967 138.917 231.967Z" fill="url(#paint27_radial_37_961)"/>
</g>
<g opacity="0.65">
<g style="mix-blend-mode:screen">
<path d="M273.29 243.516C273.29 243.589 273.268 243.661 273.227 243.722C273.187 243.783 273.129 243.83 273.061 243.858C272.994 243.886 272.92 243.893 272.848 243.879C272.777 243.864 272.711 243.829 272.66 243.777C272.608 243.724 272.573 243.658 272.559 243.586C272.546 243.514 272.553 243.439 272.582 243.372C272.61 243.304 272.658 243.246 272.719 243.206C272.78 243.166 272.851 243.145 272.924 243.145C272.973 243.145 273.02 243.155 273.065 243.173C273.109 243.192 273.15 243.219 273.184 243.254C273.218 243.288 273.245 243.329 273.263 243.374C273.281 243.419 273.29 243.467 273.29 243.516Z" fill="#FFFF7E"/>
</g>
<path style="mix-blend-mode:screen" opacity="0.69" d="M276.604 252.301C281.417 250.252 283.667 244.668 281.629 239.829C279.591 234.991 274.037 232.729 269.224 234.778C264.411 236.827 262.162 242.41 264.2 247.249C266.238 252.088 271.791 254.35 276.604 252.301Z" fill="url(#paint28_radial_37_961)"/>
</g>
<g opacity="0.65">
<g style="mix-blend-mode:screen">
<path d="M287.081 309.095C287.081 309.168 287.059 309.24 287.019 309.301C286.978 309.361 286.921 309.409 286.853 309.437C286.786 309.465 286.712 309.472 286.64 309.458C286.569 309.444 286.503 309.409 286.452 309.357C286.4 309.305 286.365 309.239 286.351 309.167C286.337 309.095 286.344 309.021 286.372 308.953C286.4 308.885 286.447 308.827 286.508 308.787C286.568 308.746 286.639 308.724 286.712 308.724C286.761 308.724 286.809 308.733 286.854 308.752C286.899 308.77 286.939 308.797 286.974 308.832C287.008 308.866 287.035 308.907 287.053 308.952C287.072 308.998 287.081 309.046 287.081 309.095Z" fill="#FFFF7E"/>
</g>
<path style="mix-blend-mode:screen" opacity="0.69" d="M286.712 318.594C291.938 318.594 296.175 314.334 296.175 309.079C296.175 303.825 291.938 299.565 286.712 299.565C281.485 299.565 277.248 303.825 277.248 309.079C277.248 314.334 281.485 318.594 286.712 318.594Z" fill="url(#paint29_radial_37_961)"/>
</g>
<g opacity="0.65">
<g style="mix-blend-mode:screen">
<path d="M339.506 308.709C339.506 308.782 339.485 308.854 339.444 308.915C339.404 308.976 339.346 309.023 339.278 309.051C339.211 309.079 339.137 309.086 339.065 309.072C338.993 309.057 338.928 309.022 338.876 308.97C338.825 308.918 338.79 308.851 338.776 308.779C338.762 308.707 338.77 308.633 338.798 308.565C338.827 308.497 338.875 308.44 338.936 308.399C338.997 308.359 339.068 308.338 339.141 308.338C339.189 308.338 339.237 308.348 339.282 308.367C339.326 308.385 339.367 308.413 339.401 308.447C339.435 308.482 339.461 308.522 339.48 308.567C339.498 308.612 339.507 308.66 339.506 308.709Z" fill="#FFFF7E"/>
</g>
<path style="mix-blend-mode:screen" opacity="0.69" d="M348.499 310.254C349.337 305.067 345.834 300.18 340.675 299.338C335.516 298.496 330.654 302.018 329.817 307.205C328.98 312.392 332.483 317.279 337.642 318.121C342.801 318.963 347.662 315.441 348.499 310.254Z" fill="url(#paint30_radial_37_961)"/>
</g>
<g opacity="0.65">
<g style="mix-blend-mode:screen">
<path d="M158.083 124.956C158.083 125.029 158.061 125.101 158.021 125.162C157.98 125.223 157.923 125.27 157.855 125.298C157.788 125.326 157.714 125.334 157.642 125.319C157.571 125.305 157.505 125.27 157.454 125.218C157.402 125.166 157.367 125.1 157.353 125.028C157.339 124.956 157.346 124.882 157.374 124.814C157.402 124.747 157.449 124.689 157.509 124.648C157.57 124.607 157.641 124.586 157.714 124.586C157.763 124.585 157.811 124.594 157.856 124.613C157.901 124.631 157.941 124.659 157.976 124.693C158.01 124.728 158.037 124.769 158.055 124.814C158.074 124.859 158.083 124.907 158.083 124.956Z" fill="#FFFF7E"/>
</g>
<path style="mix-blend-mode:screen" opacity="0.69" d="M157.713 134.47C162.94 134.47 167.177 130.211 167.177 124.956C167.177 119.701 162.94 115.442 157.713 115.442C152.487 115.442 148.25 119.701 148.25 124.956C148.25 130.211 152.487 134.47 157.713 134.47Z" fill="url(#paint31_radial_37_961)"/>
</g>
<g opacity="0.65">
<g style="mix-blend-mode:screen">
<path d="M171.87 190.517C171.87 190.59 171.849 190.662 171.809 190.723C171.769 190.785 171.712 190.833 171.644 190.861C171.577 190.89 171.503 190.897 171.431 190.883C171.36 190.869 171.294 190.834 171.242 190.783C171.19 190.731 171.155 190.665 171.14 190.593C171.126 190.521 171.133 190.447 171.161 190.379C171.188 190.311 171.236 190.253 171.296 190.212C171.357 190.171 171.428 190.149 171.501 190.149C171.598 190.149 171.692 190.188 171.761 190.257C171.83 190.325 171.869 190.419 171.87 190.517Z" fill="#FFFF7E"/>
</g>
<path style="mix-blend-mode:screen" opacity="0.69" d="M171.501 200.034C176.727 200.034 180.964 195.774 180.964 190.52C180.964 185.265 176.727 181.005 171.501 181.005C166.274 181.005 162.037 185.265 162.037 190.52C162.037 195.774 166.274 200.034 171.501 200.034Z" fill="url(#paint32_radial_37_961)"/>
</g>
<g opacity="0.65">
<g style="mix-blend-mode:screen">
<path d="M224.307 190.149C224.307 190.222 224.286 190.294 224.245 190.355C224.205 190.416 224.147 190.463 224.08 190.491C224.012 190.52 223.938 190.527 223.867 190.513C223.795 190.498 223.73 190.463 223.678 190.411C223.627 190.359 223.592 190.293 223.577 190.221C223.563 190.15 223.57 190.075 223.598 190.007C223.626 189.94 223.673 189.882 223.734 189.841C223.795 189.8 223.866 189.779 223.939 189.779C223.987 189.778 224.035 189.788 224.08 189.806C224.125 189.825 224.166 189.852 224.2 189.886C224.235 189.921 224.262 189.962 224.28 190.007C224.298 190.052 224.308 190.1 224.307 190.149Z" fill="#FFFF7E"/>
</g>
<path style="mix-blend-mode:screen" opacity="0.69" d="M223.938 199.664C229.165 199.664 233.402 195.404 233.402 190.149C233.402 184.895 229.165 180.635 223.938 180.635C218.712 180.635 214.475 184.895 214.475 190.149C214.475 195.404 218.712 199.664 223.938 199.664Z" fill="url(#paint33_radial_37_961)"/>
</g>
<g opacity="0.65">
<g style="mix-blend-mode:screen">
<path d="M98.692 330.004C98.692 330.077 98.6704 330.148 98.6299 330.209C98.5894 330.27 98.5319 330.318 98.4646 330.346C98.3972 330.374 98.3231 330.381 98.2517 330.367C98.1802 330.353 98.1145 330.317 98.063 330.265C98.0115 330.214 97.9764 330.148 97.9622 330.076C97.9479 330.004 97.9552 329.929 97.9831 329.862C98.011 329.794 98.0582 329.736 98.1188 329.695C98.1794 329.655 98.2507 329.633 98.3235 329.633C98.372 329.633 98.4201 329.642 98.465 329.66C98.5099 329.679 98.5507 329.706 98.585 329.741C98.6193 329.775 98.6464 329.816 98.6648 329.861C98.6832 329.906 98.6924 329.955 98.692 330.004Z" fill="#FFFF7E"/>
</g>
<path style="mix-blend-mode:screen" opacity="0.69" d="M98.3229 339.518C103.549 339.518 107.786 335.258 107.786 330.004C107.786 324.749 103.549 320.489 98.3229 320.489C93.0963 320.489 88.8594 324.749 88.8594 330.004C88.8594 335.258 93.0963 339.518 98.3229 339.518Z" fill="url(#paint34_radial_37_961)"/>
</g>
<g opacity="0.4">
<g style="mix-blend-mode:screen">
<path d="M228.262 15.2039C228.263 15.2775 228.242 15.3495 228.201 15.4109C228.161 15.4723 228.104 15.5202 228.036 15.5487C227.969 15.5771 227.894 15.5847 227.823 15.5705C227.751 15.5563 227.685 15.5209 227.633 15.4689C227.582 15.417 227.546 15.3507 227.532 15.2785C227.518 15.2064 227.526 15.1316 227.554 15.0638C227.582 14.996 227.63 14.9382 227.691 14.8977C227.752 14.8572 227.824 14.836 227.897 14.8366C227.945 14.8366 227.992 14.8461 228.037 14.8645C228.081 14.883 228.121 14.91 228.155 14.9442C228.189 14.9783 228.216 15.0188 228.235 15.0633C228.253 15.1079 228.262 15.1557 228.262 15.2039Z" fill="#FFFF7E"/>
</g>
<path style="mix-blend-mode:screen" opacity="0.69" d="M233.299 22.9921C237.589 19.9909 238.647 14.0614 235.662 9.74811C232.677 5.43482 226.779 4.37114 222.489 7.3723C218.199 10.3735 217.141 16.303 220.126 20.6163C223.111 24.9296 229.009 25.9933 233.299 22.9921Z" fill="url(#paint35_radial_37_961)"/>
</g>
<g opacity="0.4">
<g style="mix-blend-mode:screen">
<path d="M180.76 47.9949C180.761 48.0685 180.74 48.1405 180.7 48.2019C180.659 48.2633 180.602 48.3113 180.534 48.3397C180.467 48.3681 180.393 48.3757 180.321 48.3615C180.249 48.3473 180.183 48.312 180.131 48.26C180.08 48.208 180.044 48.1417 180.03 48.0695C180.016 47.9974 180.024 47.9226 180.052 47.8548C180.08 47.787 180.128 47.7292 180.189 47.6887C180.25 47.6482 180.322 47.627 180.395 47.6276C180.492 47.6276 180.585 47.6663 180.653 47.7352C180.722 47.8041 180.76 47.8975 180.76 47.9949Z" fill="#FFFF7E"/>
</g>
<path style="mix-blend-mode:screen" opacity="0.69" d="M180.391 57.5125C185.618 57.5125 189.855 53.2527 189.855 47.998C189.855 42.7434 185.618 38.4836 180.391 38.4836C175.165 38.4836 170.928 42.7434 170.928 47.998C170.928 53.2527 175.165 57.5125 180.391 57.5125Z" fill="url(#paint36_radial_37_961)"/>
</g>
<g opacity="0.4">
<g style="mix-blend-mode:screen">
<path d="M177.251 18.291C177.256 18.3422 177.25 18.3939 177.233 18.4427C177.217 18.4916 177.191 18.5364 177.156 18.5745C177.122 18.6125 177.08 18.6429 177.033 18.6637C176.986 18.6844 176.935 18.6952 176.884 18.6952C176.833 18.6952 176.782 18.6844 176.735 18.6637C176.688 18.6429 176.646 18.6125 176.612 18.5745C176.577 18.5364 176.551 18.4916 176.535 18.4427C176.518 18.3939 176.512 18.3422 176.517 18.291C176.526 18.1989 176.568 18.1134 176.636 18.0511C176.704 17.9888 176.792 17.9543 176.884 17.9543C176.976 17.9543 177.065 17.9888 177.132 18.0511C177.2 18.1134 177.243 18.1989 177.251 18.291Z" fill="#FFFF7E"/>
</g>
<path style="mix-blend-mode:screen" opacity="0.69" d="M186.228 19.8477C187.074 14.6622 183.578 9.76945 178.42 8.91937C173.263 8.06929 168.396 11.5838 167.55 16.7692C166.705 21.9547 170.201 26.8475 175.358 27.6975C180.516 28.5476 185.383 25.0331 186.228 19.8477Z" fill="url(#paint37_radial_37_961)"/>
</g>
<g opacity="0.4">
<g style="mix-blend-mode:screen">
<path d="M203.622 9.51129C203.627 9.56257 203.621 9.61427 203.604 9.66308C203.588 9.7119 203.562 9.75675 203.527 9.79479C203.493 9.83283 203.451 9.86321 203.404 9.884C203.357 9.90479 203.306 9.91552 203.255 9.91552C203.204 9.91552 203.153 9.90479 203.106 9.884C203.06 9.86321 203.018 9.83283 202.983 9.79479C202.948 9.75675 202.922 9.7119 202.906 9.66308C202.89 9.61427 202.884 9.56257 202.888 9.51129C202.897 9.41928 202.939 9.33373 203.007 9.27144C203.075 9.20915 203.163 9.17462 203.255 9.17462C203.347 9.17462 203.436 9.20915 203.504 9.27144C203.571 9.33373 203.614 9.41928 203.622 9.51129Z" fill="#FFFF7E"/>
</g>
<path style="mix-blend-mode:screen" opacity="0.69" d="M203.255 19.0288C208.481 19.0288 212.718 14.7691 212.718 9.51441C212.718 4.25975 208.481 0 203.255 0C198.028 0 193.791 4.25975 193.791 9.51441C193.791 14.7691 198.028 19.0288 203.255 19.0288Z" fill="url(#paint38_radial_37_961)"/>
</g>
<g style="mix-blend-mode:screen">
<path d="M335.668 368.487C336.214 368.487 336.657 368.042 336.657 367.493C336.657 366.944 336.214 366.499 335.668 366.499C335.122 366.499 334.68 366.944 334.68 367.493C334.68 368.042 335.122 368.487 335.668 368.487Z" fill="#FFFF7E"/>
</g>
<path style="mix-blend-mode:screen" opacity="0.69" d="M353.68 385.604C363.628 375.603 363.628 359.387 353.68 349.386C343.732 339.384 327.603 339.384 317.655 349.386C307.707 359.387 307.707 375.603 317.655 385.604C327.603 395.606 343.732 395.606 353.68 385.604Z" fill="url(#paint39_radial_37_961)"/>
<g style="mix-blend-mode:screen">
<path d="M155.919 389.05C155.919 389.247 155.861 389.439 155.752 389.603C155.644 389.766 155.489 389.893 155.309 389.969C155.128 390.044 154.929 390.064 154.737 390.025C154.545 389.987 154.369 389.892 154.231 389.753C154.093 389.614 153.999 389.437 153.96 389.244C153.922 389.051 153.942 388.851 154.017 388.67C154.092 388.488 154.218 388.333 154.381 388.224C154.543 388.114 154.735 388.056 154.93 388.056C155.06 388.056 155.189 388.082 155.309 388.132C155.428 388.182 155.537 388.255 155.629 388.347C155.721 388.44 155.794 388.549 155.844 388.67C155.893 388.79 155.919 388.92 155.919 389.05Z" fill="#FFFF7E"/>
</g>
<path style="mix-blend-mode:screen" opacity="0.69" d="M180.05 393.226C182.362 379.274 172.987 366.079 159.11 363.754C145.233 361.429 132.108 370.855 129.796 384.807C127.484 398.759 136.859 411.954 150.736 414.278C164.614 416.603 177.738 407.177 180.05 393.226Z" fill="url(#paint40_radial_37_961)"/>
<g style="mix-blend-mode:screen">
<path d="M111.143 503.757C111.689 503.757 112.132 503.312 112.132 502.763C112.132 502.214 111.689 501.769 111.143 501.769C110.597 501.769 110.154 502.214 110.154 502.763C110.154 503.312 110.597 503.757 111.143 503.757Z" fill="#FFFF7E"/>
</g>
<path style="mix-blend-mode:screen" opacity="0.69" d="M111.143 528.374C125.212 528.374 136.617 516.907 136.617 502.763C136.617 488.619 125.212 477.153 111.143 477.153C97.0748 477.153 85.6699 488.619 85.6699 502.763C85.6699 516.907 97.0748 528.374 111.143 528.374Z" fill="url(#paint41_radial_37_961)"/>
<g style="mix-blend-mode:screen">
<path d="M350.811 311.975C351.357 311.975 351.8 311.53 351.8 310.981C351.8 310.432 351.357 309.987 350.811 309.987C350.265 309.987 349.822 310.432 349.822 310.981C349.822 311.53 350.265 311.975 350.811 311.975Z" fill="#FFFF7E"/>
</g>
<path style="mix-blend-mode:screen" opacity="0.69" d="M368.822 329.09C378.77 319.088 378.77 302.873 368.822 292.871C358.874 282.87 342.746 282.87 332.798 292.871C322.85 302.873 322.85 319.088 332.798 329.09C342.746 339.091 358.874 339.091 368.822 329.09Z" fill="url(#paint42_radial_37_961)"/>
<g style="mix-blend-mode:screen">
<path d="M136.616 443.71C137.162 443.71 137.604 443.265 137.604 442.716C137.604 442.167 137.162 441.722 136.616 441.722C136.07 441.722 135.627 442.167 135.627 442.716C135.627 443.265 136.07 443.71 136.616 443.71Z" fill="#FFFF7E"/>
</g>
<path style="mix-blend-mode:screen" opacity="0.69" d="M136.616 468.327C150.685 468.327 162.089 456.86 162.089 442.716C162.089 428.572 150.685 417.106 136.616 417.106C122.547 417.106 111.143 428.572 111.143 442.716C111.143 456.86 122.547 468.327 136.616 468.327Z" fill="url(#paint43_radial_37_961)"/>
<g style="mix-blend-mode:screen">
<path d="M49.9868 301.553C50.5328 301.553 50.9755 301.108 50.9755 300.559C50.9755 300.01 50.5328 299.565 49.9868 299.565C49.4407 299.565 48.998 300.01 48.998 300.559C48.998 301.108 49.4407 301.553 49.9868 301.553Z" fill="#FFFF7E"/>
</g>
<path style="mix-blend-mode:screen" opacity="0.69" d="M68.0002 318.67C77.9482 308.669 77.9482 292.453 68.0002 282.452C58.0522 272.45 41.9233 272.45 31.9753 282.452C22.0273 292.453 22.0273 308.669 31.9753 318.67C41.9233 328.672 58.0522 328.672 68.0002 318.67Z" fill="url(#paint44_radial_37_961)"/>
<g style="mix-blend-mode:screen">
<path d="M153.962 268.805C153.962 269.002 153.904 269.194 153.795 269.358C153.686 269.521 153.532 269.649 153.351 269.724C153.17 269.799 152.971 269.818 152.779 269.78C152.587 269.741 152.411 269.646 152.273 269.507C152.135 269.368 152.041 269.19 152.003 268.997C151.965 268.804 151.985 268.604 152.061 268.423C152.136 268.241 152.263 268.086 152.426 267.977C152.589 267.868 152.78 267.81 152.976 267.811C153.238 267.812 153.489 267.917 153.673 268.103C153.858 268.29 153.962 268.542 153.962 268.805Z" fill="#FFFF7E"/>
</g>
<path style="mix-blend-mode:screen" opacity="0.69" d="M178.091 272.988C180.403 259.036 171.028 245.841 157.151 243.516C143.274 241.191 130.149 250.617 127.837 264.569C125.525 278.521 134.9 291.716 148.777 294.041C162.655 296.365 175.779 286.94 178.091 272.988Z" fill="url(#paint45_radial_37_961)"/>
<g style="mix-blend-mode:screen">
<path d="M203.377 110.049C203.923 110.049 204.366 109.603 204.366 109.054C204.366 108.505 203.923 108.06 203.377 108.06C202.831 108.06 202.389 108.505 202.389 109.054C202.389 109.603 202.831 110.049 203.377 110.049Z" fill="#FFFF7E"/>
</g>
<path style="mix-blend-mode:screen" opacity="0.69" d="M203.376 134.665C217.444 134.665 228.849 123.199 228.849 109.054C228.849 94.9102 217.444 83.444 203.376 83.444C189.307 83.444 177.902 94.9102 177.902 109.054C177.902 123.199 189.307 134.665 203.376 134.665Z" fill="url(#paint46_radial_37_961)"/>
<g style="mix-blend-mode:screen">
<path d="M300.668 164.264C301.214 164.264 301.657 163.819 301.657 163.27C301.657 162.721 301.214 162.276 300.668 162.276C300.122 162.276 299.68 162.721 299.68 163.27C299.68 163.819 300.122 164.264 300.668 164.264Z" fill="#FFFF7E"/>
</g>
<path style="mix-blend-mode:screen" opacity="0.69" d="M300.667 188.88C314.735 188.88 326.14 177.414 326.14 163.27C326.14 149.126 314.735 137.659 300.667 137.659C286.598 137.659 275.193 149.126 275.193 163.27C275.193 177.414 286.598 188.88 300.667 188.88Z" fill="url(#paint47_radial_37_961)"/>
<g style="mix-blend-mode:screen">
<path d="M319.024 520.403C319.57 520.403 320.013 519.958 320.013 519.409C320.013 518.86 319.57 518.415 319.024 518.415C318.478 518.415 318.035 518.86 318.035 519.409C318.035 519.958 318.478 520.403 319.024 520.403Z" fill="#FFFF7E"/>
</g>
<path style="mix-blend-mode:screen" opacity="0.69" d="M344.177 523.542C346.431 509.581 337.001 496.425 323.114 494.159C309.227 491.893 296.142 501.374 293.888 515.335C291.634 529.297 301.064 542.452 314.951 544.718C328.838 546.984 341.923 537.504 344.177 523.542Z" fill="url(#paint48_radial_37_961)"/>
<path d="M170.675 516.442L139.727 558.572L158.076 609.234L167.478 618.686L180.534 616.118L192.31 578.672L181.354 561.325L184.916 538.472L170.675 516.442Z" fill="url(#paint49_linear_37_961)"/>
<g style="mix-blend-mode:multiply" opacity="0.49">
<path d="M184.916 538.471L159.445 566.555L168.755 600.516L181.354 561.325L184.916 538.471Z" fill="#002EAE"/>
</g>
<g style="mix-blend-mode:multiply" opacity="0.49">
<path d="M158.076 609.234L168.756 600.516L180.534 616.118L167.478 618.686L158.076 609.234Z" fill="#002EAE"/>
</g>
<g style="mix-blend-mode:multiply" opacity="0.3">
<path d="M139.727 558.572L159.446 566.555L168.756 600.516L158.076 609.234L139.727 558.572Z" fill="#002EAE"/>
</g>
<g style="mix-blend-mode:multiply" opacity="0.3">
<path d="M192.31 578.672L181.354 561.325L168.756 600.516L180.535 616.118L192.31 578.672Z" fill="#002EAE"/>
</g>
<path style="mix-blend-mode:color-dodge" d="M186.182 598.16C186.182 598.16 191.507 579.771 189.845 576.745C188.184 573.72 182.863 564.493 181.632 565.73C180.4 566.968 170.814 597.691 170.814 599.127C170.814 600.562 179.166 612.679 179.851 612.265C180.535 611.852 183.695 606.073 183.695 606.073L180.535 616.118L168.76 600.516L181.349 561.325L192.305 578.672L186.182 598.16Z" fill="url(#paint50_linear_37_961)"/>
<path style="mix-blend-mode:color-dodge" d="M165.472 600.516C163.967 603.177 159.499 606.826 158.078 606.073C156.656 605.319 142.071 564.903 143.975 562.974C145.878 561.044 158.268 567.203 159.447 569.034C160.626 570.864 161.858 575.344 161.858 575.344L159.447 566.558L184.917 538.465L170.676 516.439L154.494 538.465C154.494 538.465 170.538 520.844 172.184 522.496C173.83 524.147 182.452 535.462 182.317 538.465C182.182 541.469 162.665 562.792 158.901 563.798C156.806 564.357 151.129 562.68 146.495 561.081C145.459 560.725 144.599 559.981 144.093 559.004C143.588 558.027 143.476 556.891 143.781 555.833C145.074 551.28 149.238 545.615 149.238 545.615L139.719 558.559L158.068 609.224L168.76 600.516L162.312 577.02C162.312 577.02 166.979 597.852 165.472 600.516Z" fill="url(#paint51_linear_37_961)"/>
<path style="mix-blend-mode:screen" d="M143.78 555.843C143.475 556.9 143.586 558.036 144.092 559.013C144.597 559.99 145.457 560.734 146.494 561.091C151.128 562.69 156.805 564.366 158.899 563.807C162.667 562.801 182.177 541.494 182.315 538.475C182.454 535.455 173.825 524.157 172.182 522.505C170.54 520.854 154.493 538.465 154.493 538.465L170.675 516.439L139.727 558.568L149.245 545.624C149.245 545.624 145.072 551.289 143.78 555.843Z" fill="url(#paint52_linear_37_961)"/>
<path style="mix-blend-mode:multiply" opacity="0.3" d="M161.857 575.344L162.314 577.017L168.763 600.513L181.352 561.322L184.914 538.478L159.443 566.57L161.857 575.344Z" fill="url(#paint53_linear_37_961)"/>
<path style="mix-blend-mode:multiply" opacity="0.3" d="M158.076 609.234L167.478 618.686L180.531 616.118L168.756 600.516L158.076 609.234Z" fill="url(#paint54_linear_37_961)"/>
<path style="mix-blend-mode:multiply" opacity="0.3" d="M159.446 569.027C158.267 567.197 145.89 561.041 143.974 562.968C142.058 564.894 156.655 605.304 158.077 606.06C159.499 606.816 163.966 603.168 165.471 600.503C166.975 597.839 162.317 577.011 162.314 577.008L161.854 575.328C161.848 575.313 160.626 570.855 159.446 569.027Z" fill="url(#paint55_linear_37_961)"/>
<path style="mix-blend-mode:multiply" opacity="0.3" d="M189.845 576.745C188.202 573.717 182.863 564.493 181.631 565.731C180.4 566.968 170.811 597.691 170.811 599.127C170.811 600.562 179.166 612.679 179.85 612.265C180.535 611.852 183.695 606.073 183.695 606.073L180.535 616.118L186.182 598.16C186.194 598.12 191.488 579.767 189.845 576.745Z" fill="url(#paint56_linear_37_961)"/>
<path style="mix-blend-mode:screen" d="M139.727 558.568C139.727 558.568 158.663 527.216 176.036 548.264L184.916 538.465L170.675 516.439L139.727 558.568Z" fill="url(#paint57_linear_37_961)"/>
<g style="mix-blend-mode:screen">
<path d="M201.187 575.563L183.592 599.642C182.803 600.548 182.093 601.521 181.471 602.55L193.52 619.897L203.861 614.439L209.953 611.222L201.187 575.563Z" fill="white"/>
</g>
<path d="M181.469 602.547L193.521 619.893L209.951 611.222L201.188 575.563L181.469 602.547Z" fill="url(#paint58_linear_37_961)"/>
<g style="mix-blend-mode:multiply" opacity="0.49">
<path d="M181.469 602.547L196.806 611.49L209.951 611.222L193.521 619.893L181.469 602.547Z" fill="#002EAE"/>
</g>
<g style="mix-blend-mode:multiply" opacity="0.3">
<path d="M201.188 575.563L196.807 611.49L209.952 611.222L201.188 575.563Z" fill="#002EAE"/>
</g>
<path style="mix-blend-mode:color-dodge" d="M188.671 592.693C188.671 592.693 182.748 601.17 183.933 602.547C185.119 603.924 195.396 609.403 196.259 609.157C197.121 608.91 200.824 579.52 199.636 580.061C198.448 580.601 191.822 588.396 191.822 588.396L201.187 575.578L207.528 601.368C207.528 601.368 202.191 581.919 201.386 582.737C200.582 583.555 198.009 606.921 199.105 609.178C200.201 611.435 209.969 611.234 209.969 611.234L199.897 616.55C199.897 616.55 209.692 612.188 204.503 611.506H196.827L181.492 602.553L188.671 592.693Z" fill="url(#paint59_linear_37_961)"/>
<path style="mix-blend-mode:screen" d="M183.935 602.547C185.123 603.924 195.397 609.404 196.26 609.157C197.123 608.91 200.826 579.521 199.638 580.061C198.449 580.601 191.814 588.377 191.814 588.377L201.179 575.563L181.463 602.547L188.663 592.693C188.663 592.693 182.749 601.17 183.935 602.547Z" fill="url(#paint60_linear_37_961)"/>
<path style="mix-blend-mode:multiply" opacity="0.3" d="M203.862 614.435C205.805 613.201 207.202 611.845 204.476 611.49H196.799L181.465 602.538L193.514 619.884L203.862 614.435Z" fill="url(#paint61_linear_37_961)"/>
<path style="mix-blend-mode:multiply" opacity="0.3" d="M201.371 582.722C200.548 583.549 197.993 606.906 199.089 609.163C200.186 611.419 209.953 611.219 209.953 611.219L201.187 575.563L207.527 601.352C207.527 601.352 202.191 581.895 201.371 582.722Z" fill="url(#paint62_linear_37_961)"/>
<path style="mix-blend-mode:screen" d="M181.471 602.547C181.471 602.547 189.5 588.615 198.082 599.229L201.187 575.563L181.471 602.547Z" fill="url(#paint63_linear_37_961)"/>
<path style="mix-blend-mode:screen" d="M169.305 670.003C222.612 670.003 265.826 626.557 265.826 572.964C265.826 519.37 222.612 475.924 169.305 475.924C115.999 475.924 72.7852 519.37 72.7852 572.964C72.7852 626.557 115.999 670.003 169.305 670.003Z" fill="url(#paint64_radial_37_961)"/>
<path style="mix-blend-mode:screen" opacity="0.64" d="M198.084 661.859C232.487 661.859 260.376 633.82 260.376 599.232C260.376 564.643 232.487 536.604 198.084 536.604C163.68 536.604 135.791 564.643 135.791 599.232C135.791 633.82 163.68 661.859 198.084 661.859Z" fill="url(#paint65_radial_37_961)"/>
<defs>
<linearGradient id="paint0_linear_37_961" x1="212.221" y1="564.616" x2="212.221" y2="42.4629" gradientUnits="userSpaceOnUse">
<stop stop-color="#16DCF2"/>
<stop offset="1" stop-color="#0D000D"/>
</linearGradient>
<linearGradient id="paint1_linear_37_961" x1="212.221" y1="564.616" x2="212.221" y2="42.4629" gradientUnits="userSpaceOnUse">
<stop stop-color="#16DCF2"/>
<stop offset="1" stop-color="#0D000D"/>
</linearGradient>
<linearGradient id="paint2_linear_37_961" x1="318.305" y1="390.353" x2="433.405" y2="390.353" gradientUnits="userSpaceOnUse">
<stop stop-color="#AF434D"/>
<stop offset="0.11" stop-color="#B85457"/>
<stop offset="0.53" stop-color="#D9937C"/>
<stop offset="0.84" stop-color="#EDBA93"/>
<stop offset="1" stop-color="#F5C99C"/>
</linearGradient>
<linearGradient id="paint3_linear_37_961" x1="386.557" y1="291.477" x2="83.5513" y2="592.861" gradientUnits="userSpaceOnUse">
<stop stop-color="#F4FFBF"/>
<stop offset="0.35" stop-color="#F8D8B0"/>
<stop offset="1" stop-color="#FF8890"/>
</linearGradient>
<linearGradient id="paint4_linear_37_961" x1="143.637" y1="578.601" x2="143.637" y2="356.941" gradientUnits="userSpaceOnUse">
<stop stop-color="#F5C99C"/>
<stop offset="0.09" stop-color="#EEC398"/>
<stop offset="0.22" stop-color="#DBB38B"/>
<stop offset="0.38" stop-color="#BB9977"/>
<stop offset="0.56" stop-color="#8E755B"/>
<stop offset="0.75" stop-color="#554636"/>
<stop offset="0.95" stop-color="#110E0B"/>
<stop offset="1"/>
</linearGradient>
<linearGradient id="paint5_linear_37_961" x1="147.819" y1="286.895" x2="253.833" y2="286.895" gradientUnits="userSpaceOnUse">
<stop/>
<stop offset="0.05" stop-color="#110E0B"/>
<stop offset="0.25" stop-color="#554636"/>
<stop offset="0.44" stop-color="#8E755B"/>
<stop offset="0.62" stop-color="#BB9977"/>
<stop offset="0.78" stop-color="#DBB38B"/>
<stop offset="0.91" stop-color="#EEC398"/>
<stop offset="1" stop-color="#F5C99C"/>
</linearGradient>
<linearGradient id="paint6_linear_37_961" x1="345.413" y1="405.838" x2="270.16" y2="428.462" gradientUnits="userSpaceOnUse">
<stop offset="0.22" stop-color="#F4FFBF"/>
<stop offset="0.45" stop-color="#AAB285"/>
<stop offset="0.83" stop-color="#313326"/>
<stop offset="1"/>
</linearGradient>
<linearGradient id="paint7_linear_37_961" x1="156.328" y1="486.849" x2="340.938" y2="406.866" gradientUnits="userSpaceOnUse">
<stop offset="0.2" stop-color="white"/>
<stop offset="0.5" stop-color="#D8A9B3"/>
<stop offset="1" stop-color="#951631"/>
</linearGradient>
<radialGradient id="paint8_radial_37_961" cx="0" cy="0" r="1" gradientUnits="userSpaceOnUse" gradientTransform="translate(222.123 435.161) rotate(59.4008) scale(152.803 133.9)">
<stop stop-color="#16DCF2"/>
<stop offset="1" stop-color="#011126"/>
</radialGradient>
<radialGradient id="paint9_radial_37_961" cx="0" cy="0" r="1" gradientUnits="userSpaceOnUse" gradientTransform="translate(224.534 402.664) scale(9.46349 9.51441)">
<stop stop-color="#16DCF2"/>
<stop offset="1" stop-color="#011126"/>
</radialGradient>
<radialGradient id="paint10_radial_37_961" cx="0" cy="0" r="1" gradientUnits="userSpaceOnUse" gradientTransform="translate(220.542 357.982) scale(9.46349 9.51441)">
<stop stop-color="#16DCF2"/>
<stop offset="1" stop-color="#011126"/>
</radialGradient>
<radialGradient id="paint11_radial_37_961" cx="0" cy="0" r="1" gradientUnits="userSpaceOnUse" gradientTransform="translate(287.559 474.115) rotate(-6.4241) scale(9.46412 9.51377)">
<stop stop-color="#16DCF2"/>
<stop offset="1" stop-color="#011126"/>
</radialGradient>
<radialGradient id="paint12_radial_37_961" cx="0" cy="0" r="1" gradientUnits="userSpaceOnUse" gradientTransform="translate(292.54 563.449) scale(9.46348 9.51441)">
<stop stop-color="#16DCF2"/>
<stop offset="1" stop-color="#011126"/>
</radialGradient>
<radialGradient id="paint13_radial_37_961" cx="0" cy="0" r="1" gradientUnits="userSpaceOnUse" gradientTransform="translate(193.917 530.923) rotate(-32.028) scale(9.47772 9.50011)">
<stop stop-color="#16DCF2"/>
<stop offset="1" stop-color="#011126"/>
</radialGradient>
<radialGradient id="paint14_radial_37_961" cx="0" cy="0" r="1" gradientUnits="userSpaceOnUse" gradientTransform="translate(336.485 487.146) scale(9.46349 9.51441)">
<stop stop-color="#16DCF2"/>
<stop offset="1" stop-color="#011126"/>
</radialGradient>
<radialGradient id="paint15_radial_37_961" cx="0" cy="0" r="1" gradientUnits="userSpaceOnUse" gradientTransform="translate(349.306 431.5) rotate(22.6088) scale(9.47095 9.50689)">
<stop stop-color="#16DCF2"/>
<stop offset="1" stop-color="#011126"/>
</radialGradient>
<radialGradient id="paint16_radial_37_961" cx="0" cy="0" r="1" gradientUnits="userSpaceOnUse" gradientTransform="translate(375.538 329.062) scale(9.46349 9.51441)">
<stop stop-color="#16DCF2"/>
<stop offset="1" stop-color="#011126"/>
</radialGradient>
<radialGradient id="paint17_radial_37_961" cx="0" cy="0" r="1" gradientUnits="userSpaceOnUse" gradientTransform="translate(88.86 185.438) scale(9.46349 9.51441)">
<stop stop-color="#16DCF2"/>
<stop offset="1" stop-color="#011126"/>
</radialGradient>
<radialGradient id="paint18_radial_37_961" cx="0" cy="0" r="1" gradientUnits="userSpaceOnUse" gradientTransform="translate(101.68 129.794) scale(9.46349 9.51441)">
<stop stop-color="#16DCF2"/>
<stop offset="1" stop-color="#011126"/>
</radialGradient>
<radialGradient id="paint19_radial_37_961" cx="0" cy="0" r="1" gradientUnits="userSpaceOnUse" gradientTransform="translate(174.643 79.2857) scale(9.46349 9.51441)">
<stop stop-color="#16DCF2"/>
<stop offset="1" stop-color="#011126"/>
</radialGradient>
<radialGradient id="paint20_radial_37_961" cx="0" cy="0" r="1" gradientUnits="userSpaceOnUse" gradientTransform="translate(157.155 475.186) scale(9.46349 9.51441)">
<stop stop-color="#16DCF2"/>
<stop offset="1" stop-color="#011126"/>
</radialGradient>
<radialGradient id="paint21_radial_37_961" cx="0" cy="0" r="1" gradientUnits="userSpaceOnUse" gradientTransform="translate(67.3672 521.374) rotate(-35.5152) scale(9.48058 9.49725)">
<stop stop-color="#16DCF2"/>
<stop offset="1" stop-color="#011126"/>
</radialGradient>
<radialGradient id="paint22_radial_37_961" cx="0" cy="0" r="1" gradientUnits="userSpaceOnUse" gradientTransform="translate(91.5494 547.35) scale(9.46349 9.51441)">
<stop stop-color="#16DCF2"/>
<stop offset="1" stop-color="#011126"/>
</radialGradient>
<radialGradient id="paint23_radial_37_961" cx="0" cy="0" r="1" gradientUnits="userSpaceOnUse" gradientTransform="translate(122.962 335.684) scale(9.46349 9.51439)">
<stop stop-color="#16DCF2"/>
<stop offset="1" stop-color="#011126"/>
</radialGradient>
<radialGradient id="paint24_radial_37_961" cx="0" cy="0" r="1" gradientUnits="userSpaceOnUse" gradientTransform="translate(75.4622 368.488) scale(9.46349 9.51441)">
<stop stop-color="#16DCF2"/>
<stop offset="1" stop-color="#011126"/>
</radialGradient>
<radialGradient id="paint25_radial_37_961" cx="0" cy="0" r="1" gradientUnits="userSpaceOnUse" gradientTransform="translate(71.9537 338.792) scale(9.46349 9.51441)">
<stop stop-color="#16DCF2"/>
<stop offset="1" stop-color="#011126"/>
</radialGradient>
<radialGradient id="paint26_radial_37_961" cx="0" cy="0" r="1" gradientUnits="userSpaceOnUse" gradientTransform="translate(9.44913 330.803) rotate(22.1873) scale(9.4707 9.50716)">
<stop stop-color="#16DCF2"/>
<stop offset="1" stop-color="#011126"/>
</radialGradient>
<radialGradient id="paint27_radial_37_961" cx="0" cy="0" r="1" gradientUnits="userSpaceOnUse" gradientTransform="translate(138.917 222.452) scale(9.46349 9.5144)">
<stop stop-color="#16DCF2"/>
<stop offset="1" stop-color="#011126"/>
</radialGradient>
<radialGradient id="paint28_radial_37_961" cx="0" cy="0" r="1" gradientUnits="userSpaceOnUse" gradientTransform="translate(272.915 243.54) rotate(22.1572) scale(9.47068 9.50718)">
<stop stop-color="#16DCF2"/>
<stop offset="1" stop-color="#011126"/>
</radialGradient>
<radialGradient id="paint29_radial_37_961" cx="0" cy="0" r="1" gradientUnits="userSpaceOnUse" gradientTransform="translate(286.712 309.079) scale(9.46349 9.51441)">
<stop stop-color="#16DCF2"/>
<stop offset="1" stop-color="#011126"/>
</radialGradient>
<radialGradient id="paint30_radial_37_961" cx="0" cy="0" r="1" gradientUnits="userSpaceOnUse" gradientTransform="translate(339.159 308.729) rotate(-35.926) scale(9.48092 9.4969)">
<stop stop-color="#16DCF2"/>
<stop offset="1" stop-color="#011126"/>
</radialGradient>
<radialGradient id="paint31_radial_37_961" cx="0" cy="0" r="1" gradientUnits="userSpaceOnUse" gradientTransform="translate(157.713 124.956) scale(9.46349 9.5144)">
<stop stop-color="#16DCF2"/>
<stop offset="1" stop-color="#011126"/>
</radialGradient>
<radialGradient id="paint32_radial_37_961" cx="0" cy="0" r="1" gradientUnits="userSpaceOnUse" gradientTransform="translate(171.501 190.52) scale(9.46348 9.5144)">
<stop stop-color="#16DCF2"/>
<stop offset="1" stop-color="#011126"/>
</radialGradient>
<radialGradient id="paint33_radial_37_961" cx="0" cy="0" r="1" gradientUnits="userSpaceOnUse" gradientTransform="translate(223.938 190.149) scale(9.46349 9.51441)">
<stop stop-color="#16DCF2"/>
<stop offset="1" stop-color="#011126"/>
</radialGradient>
<radialGradient id="paint34_radial_37_961" cx="0" cy="0" r="1" gradientUnits="userSpaceOnUse" gradientTransform="translate(98.3229 330.004) scale(9.46349 9.51441)">
<stop stop-color="#16DCF2"/>
<stop offset="1" stop-color="#011126"/>
</radialGradient>
<radialGradient id="paint35_radial_37_961" cx="0" cy="0" r="1" gradientUnits="userSpaceOnUse" gradientTransform="translate(227.894 15.1828) rotate(10.2235) scale(9.46508 9.51281)">
<stop stop-color="#16DCF2"/>
<stop offset="1" stop-color="#011126"/>
</radialGradient>
<radialGradient id="paint36_radial_37_961" cx="0" cy="0" r="1" gradientUnits="userSpaceOnUse" gradientTransform="translate(180.391 47.998) scale(9.46349 9.51441)">
<stop stop-color="#16DCF2"/>
<stop offset="1" stop-color="#011126"/>
</radialGradient>
<radialGradient id="paint37_radial_37_961" cx="0" cy="0" r="1" gradientUnits="userSpaceOnUse" gradientTransform="translate(176.89 18.3085) rotate(-35.8358) scale(9.48085 9.49699)">
<stop stop-color="#16DCF2"/>
<stop offset="1" stop-color="#011126"/>
</radialGradient>
<radialGradient id="paint38_radial_37_961" cx="0" cy="0" r="1" gradientUnits="userSpaceOnUse" gradientTransform="translate(203.255 9.51441) scale(9.46349 9.51441)">
<stop stop-color="#16DCF2"/>
<stop offset="1" stop-color="#011126"/>
</radialGradient>
<radialGradient id="paint39_radial_37_961" cx="0" cy="0" r="1" gradientUnits="userSpaceOnUse" gradientTransform="translate(335.669 367.497) scale(25.4734 25.6105)">
<stop stop-color="#16DCF2"/>
<stop offset="1" stop-color="#011126"/>
</radialGradient>
<radialGradient id="paint40_radial_37_961" cx="0" cy="0" r="1" gradientUnits="userSpaceOnUse" gradientTransform="translate(154.925 389.016) rotate(-35.6856) scale(25.5198 25.5639)">
<stop stop-color="#16DCF2"/>
<stop offset="1" stop-color="#011126"/>
</radialGradient>
<radialGradient id="paint41_radial_37_961" cx="0" cy="0" r="1" gradientUnits="userSpaceOnUse" gradientTransform="translate(111.143 502.763) scale(25.4734 25.6105)">
<stop stop-color="#16DCF2"/>
<stop offset="1" stop-color="#011126"/>
</radialGradient>
<radialGradient id="paint42_radial_37_961" cx="0" cy="0" r="1" gradientUnits="userSpaceOnUse" gradientTransform="translate(350.812 310.982) scale(25.4734 25.6105)">
<stop stop-color="#16DCF2"/>
<stop offset="1" stop-color="#011126"/>
</radialGradient>
<radialGradient id="paint43_radial_37_961" cx="0" cy="0" r="1" gradientUnits="userSpaceOnUse" gradientTransform="translate(136.616 442.716) scale(25.4734 25.6105)">
<stop stop-color="#16DCF2"/>
<stop offset="1" stop-color="#011126"/>
</radialGradient>
<radialGradient id="paint44_radial_37_961" cx="0" cy="0" r="1" gradientUnits="userSpaceOnUse" gradientTransform="translate(49.9895 300.562) scale(25.4734 25.6105)">
<stop stop-color="#16DCF2"/>
<stop offset="1" stop-color="#011126"/>
</radialGradient>
<radialGradient id="paint45_radial_37_961" cx="0" cy="0" r="1" gradientUnits="userSpaceOnUse" gradientTransform="translate(152.966 268.779) rotate(-35.6856) scale(25.5198 25.5639)">
<stop stop-color="#16DCF2"/>
<stop offset="1" stop-color="#011126"/>
</radialGradient>
<radialGradient id="paint46_radial_37_961" cx="0" cy="0" r="1" gradientUnits="userSpaceOnUse" gradientTransform="translate(203.376 109.054) scale(25.4734 25.6105)">
<stop stop-color="#16DCF2"/>
<stop offset="1" stop-color="#011126"/>
</radialGradient>
<radialGradient id="paint47_radial_37_961" cx="0" cy="0" r="1" gradientUnits="userSpaceOnUse" gradientTransform="translate(300.667 163.27) scale(25.4734 25.6105)">
<stop stop-color="#16DCF2"/>
<stop offset="1" stop-color="#011126"/>
</radialGradient>
<radialGradient id="paint48_radial_37_961" cx="0" cy="0" r="1" gradientUnits="userSpaceOnUse" gradientTransform="translate(319.035 519.439) rotate(-35.926) scale(25.5204 25.5634)">
<stop stop-color="#16DCF2"/>
<stop offset="1" stop-color="#011126"/>
</radialGradient>
<linearGradient id="paint49_linear_37_961" x1="153.765" y1="552.172" x2="264.868" y2="662.68" gradientUnits="userSpaceOnUse">
<stop stop-color="#157EBF"/>
<stop offset="1" stop-color="#16DCF2"/>
</linearGradient>
<linearGradient id="paint50_linear_37_961" x1="164.74" y1="588.72" x2="188.295" y2="588.72" gradientUnits="userSpaceOnUse">
<stop stop-color="#16DCF2"/>
<stop offset="1" stop-color="#011126"/>
</linearGradient>
<linearGradient id="paint51_linear_37_961" x1="139.728" y1="562.838" x2="184.917" y2="562.838" gradientUnits="userSpaceOnUse">
<stop stop-color="#011126"/>
<stop offset="1" stop-color="#16DCF2"/>
</linearGradient>
<linearGradient id="paint52_linear_37_961" x1="181.996" y1="523.527" x2="133.054" y2="572.21" gradientUnits="userSpaceOnUse">
<stop stop-color="#0D000D"/>
<stop offset="1" stop-color="#157EBF"/>
</linearGradient>
<linearGradient id="paint53_linear_37_961" x1="172.183" y1="591.702" x2="172.183" y2="529.658" gradientUnits="userSpaceOnUse">
<stop stop-color="white"/>
<stop offset="1" stop-color="#002EAE"/>
</linearGradient>
<linearGradient id="paint54_linear_37_961" x1="169.305" y1="618.686" x2="169.305" y2="600.516" gradientUnits="userSpaceOnUse">
<stop stop-color="white"/>
<stop offset="1" stop-color="#002EAE"/>
</linearGradient>
<linearGradient id="paint55_linear_37_961" x1="154.785" y1="606.168" x2="154.785" y2="562.606" gradientUnits="userSpaceOnUse">
<stop stop-color="white"/>
<stop offset="1" stop-color="#002EAE"/>
</linearGradient>
<linearGradient id="paint56_linear_37_961" x1="180.486" y1="616.115" x2="180.486" y2="565.613" gradientUnits="userSpaceOnUse">
<stop stop-color="white"/>
<stop offset="1" stop-color="#002EAE"/>
</linearGradient>
<linearGradient id="paint57_linear_37_961" x1="149.476" y1="531.751" x2="168.081" y2="550.254" gradientUnits="userSpaceOnUse">
<stop stop-color="#16DCF2"/>
<stop offset="1" stop-color="#011126"/>
</linearGradient>
<linearGradient id="paint58_linear_37_961" x1="186.277" y1="586.593" x2="231.357" y2="631.435" gradientUnits="userSpaceOnUse">
<stop stop-color="#157EBF"/>
<stop offset="1" stop-color="#16DCF2"/>
</linearGradient>
<linearGradient id="paint59_linear_37_961" x1="181.471" y1="596.049" x2="209.953" y2="596.049" gradientUnits="userSpaceOnUse">
<stop stop-color="#16DCF2"/>
<stop offset="0.57" stop-color="#157EBF"/>
<stop offset="1" stop-color="#011126"/>
</linearGradient>
<linearGradient id="paint60_linear_37_961" x1="211.533" y1="579.487" x2="137.87" y2="652.755" gradientUnits="userSpaceOnUse">
<stop/>
<stop offset="0.39" stop-color="#157EBF"/>
<stop offset="1" stop-color="#16DCF2"/>
</linearGradient>
<linearGradient id="paint61_linear_37_961" x1="193.732" y1="619.893" x2="193.732" y2="602.547" gradientUnits="userSpaceOnUse">
<stop stop-color="white"/>
<stop offset="1" stop-color="#002EAE"/>
</linearGradient>
<linearGradient id="paint62_linear_37_961" x1="204.386" y1="611.225" x2="204.386" y2="575.563" gradientUnits="userSpaceOnUse">
<stop stop-color="white"/>
<stop offset="1" stop-color="#002EAE"/>
</linearGradient>
<linearGradient id="paint63_linear_37_961" x1="190.999" y1="588.723" x2="201.272" y2="598.942" gradientUnits="userSpaceOnUse">
<stop stop-color="#157EBF"/>
<stop offset="1" stop-color="#0D000D"/>
</linearGradient>
<radialGradient id="paint64_radial_37_961" cx="0" cy="0" r="1" gradientUnits="userSpaceOnUse" gradientTransform="translate(169.305 572.964) scale(96.5202 97.0395)">
<stop stop-color="#157EBF"/>
<stop offset="1" stop-color="#011126"/>
</radialGradient>
<radialGradient id="paint65_radial_37_961" cx="0" cy="0" r="1" gradientUnits="userSpaceOnUse" gradientTransform="translate(198.084 599.232) scale(62.2926 62.6278)">
<stop stop-color="#157EBF"/>
<stop offset="1" stop-color="#011126"/>
</radialGradient>
</defs>
</svg>
