<svg width="416" height="423" viewBox="0 0 416 423" fill="none" xmlns="http://www.w3.org/2000/svg">
<g clip-path="url(#clip0_41_1298)">
<path style="mix-blend-mode:screen" d="M5.30145 262.648C-20.8985 150.8 48.5586 38.8958 160.438 12.7033C272.318 -13.4892 384.253 55.9483 410.453 167.796C436.653 279.644 367.196 391.548 255.317 417.741C143.437 443.933 31.5014 374.496 5.30145 262.648Z" fill="url(#paint0_radial_41_1298)"/>
<path fill-rule="evenodd" clip-rule="evenodd" d="M242.072 313.974C211.107 331.824 193.59 359.166 202.97 375.774C212.35 392.382 245.124 390.8 276.202 372.949C307.281 355.099 324.685 327.757 315.305 311.036C305.925 294.315 273.151 296.01 242.072 313.974Z" fill="url(#paint1_radial_41_1298)"/>
<g style="mix-blend-mode:multiply">
<path fill-rule="evenodd" clip-rule="evenodd" d="M201.387 373.627C209.863 388.428 241.959 385.716 273.15 367.752C304.342 349.789 322.763 323.238 314.174 308.551C300.047 335.553 248.287 372.046 201.161 373.627H201.387Z" fill="#5ACCC9"/>
</g>
<path opacity="0.15" fill-rule="evenodd" clip-rule="evenodd" d="M149.854 91.6274L157.877 105.298C169.179 124.279 164.319 119.195 182.288 132.978C192.112 140.593 203.841 145.361 216.192 146.762C255.747 153.88 292.024 169.358 312.931 205.399C321.359 220.246 325.798 237.022 325.814 254.094C325.219 274.638 319.356 294.685 308.786 312.313C298.215 329.941 283.293 344.559 265.449 354.765C247.604 364.972 227.437 370.425 206.879 370.602C186.321 370.779 166.063 365.674 148.045 355.776C133.431 347.174 121.316 334.907 112.899 320.187C91.8783 283.921 96.8508 244.942 110.412 207.207C115.18 195.91 116.857 183.55 115.272 171.392C112.333 148.796 114.142 155.8 103.971 136.481L96.1726 122.584C116.364 116.405 134.878 105.702 150.306 91.2885L149.854 91.6274Z" fill="white"/>
<path fill-rule="evenodd" clip-rule="evenodd" d="M213.028 181.108C152.793 181.108 104.084 203.704 104.084 231.046C104.084 258.387 152.793 280.983 213.028 280.983C273.264 280.983 321.973 258.387 321.973 231.046C321.973 203.704 273.151 181.108 213.028 181.108Z" fill="url(#paint2_radial_41_1298)"/>
<path fill-rule="evenodd" clip-rule="evenodd" d="M213.028 280.983C273.151 280.983 321.972 258.387 321.972 231.046C321.937 228.631 321.556 226.235 320.842 223.928C323.966 233.531 325.642 243.545 325.814 253.642C325.295 274.225 319.486 294.327 308.947 312.016C298.407 329.705 283.492 344.385 265.636 354.645C247.78 364.904 227.583 370.396 206.989 370.595C186.395 370.793 166.096 365.69 148.045 355.777C133.431 347.174 121.316 334.907 112.899 320.188C105.071 305.744 100.299 289.846 98.8796 273.48C97.4603 257.115 99.424 240.632 104.649 225.058C104.233 226.873 104.043 228.732 104.084 230.594C104.084 258.161 152.792 280.531 213.028 280.531V280.983Z" fill="url(#paint3_radial_41_1298)"/>
<path style="mix-blend-mode:screen" fill-rule="evenodd" clip-rule="evenodd" d="M122.393 252.512C122.393 226.752 167.598 205.738 224.104 205.738C268.744 205.738 306.83 218.957 320.617 237.26C313.949 261.889 268.066 280.983 212.577 280.983C181.336 282.182 150.368 274.755 123.071 259.517C122.302 257.262 121.92 254.894 121.941 252.512H122.393Z" fill="url(#paint4_radial_41_1298)"/>
<path style="mix-blend-mode:screen" fill-rule="evenodd" clip-rule="evenodd" d="M150.533 257.822C150.533 235.226 189.522 217.827 237.778 217.827C274.508 217.827 305.586 228.221 318.809 243.022C307.507 264.827 264.11 280.983 213.029 280.983C194.543 281.092 176.12 278.813 158.217 274.204C155.902 272.129 154.029 269.609 152.709 266.795C151.388 263.98 150.648 260.929 150.533 257.822Z" fill="url(#paint5_radial_41_1298)"/>
<path style="mix-blend-mode:screen" fill-rule="evenodd" clip-rule="evenodd" d="M213.028 280.983C264.109 280.983 307.054 264.827 318.808 243.022C319.736 241.305 320.457 239.485 320.955 237.599C321.934 242.588 322.464 247.654 322.537 252.738C322.203 270.858 317.196 288.585 308.002 304.204C298.807 319.823 285.736 332.806 270.052 341.895C254.369 350.984 236.604 355.873 218.477 356.088C200.35 356.303 182.475 351.837 166.58 343.123C153.794 335.541 143.17 324.804 135.727 311.94C126.605 296.115 122.285 277.979 123.296 259.743C133.994 266.474 145.71 271.433 157.991 274.43C175.893 279.039 194.316 281.318 212.802 281.209L213.028 280.983Z" fill="url(#paint6_radial_41_1298)"/>
<path style="mix-blend-mode:screen" fill-rule="evenodd" clip-rule="evenodd" d="M213.029 280.757C264.11 280.757 307.055 264.601 318.809 242.796L318.018 241.892C318.082 241.404 318.082 240.911 318.018 240.423C318.06 241.138 318.06 241.855 318.018 242.57C318.506 245.938 318.77 249.335 318.809 252.738C318.51 267.483 314.412 281.901 306.911 294.6C299.411 307.299 288.761 317.85 275.99 325.233C263.22 332.616 248.761 336.581 234.01 336.746C219.259 336.911 204.715 333.271 191.782 326.175C181.359 319.978 172.686 311.23 166.581 300.755C161.867 292.477 158.725 283.399 157.313 273.978C175.216 278.587 193.639 280.866 212.125 280.757H213.029Z" fill="url(#paint7_radial_41_1298)"/>
<path fill-rule="evenodd" clip-rule="evenodd" d="M94.7031 141.678L85.3232 124.957C87.2609 124.773 89.1855 124.471 91.0866 124.053C93.0725 123.632 95.0344 123.104 96.9635 122.471L104.648 136.142C111.691 146.596 116.019 158.639 117.242 171.184C118.465 183.729 116.545 196.38 111.655 207.998C98.2065 245.394 93.2338 284.034 114.028 319.962C122.357 334.478 134.312 346.584 148.723 355.099C166.621 364.919 186.75 369.957 207.165 369.725C227.579 369.493 247.589 364 265.259 353.776C282.929 343.552 297.661 328.943 308.032 311.362C318.402 293.781 324.06 273.822 324.458 253.416C324.229 236.701 319.716 220.324 311.349 205.851C290.667 169.923 254.842 155.123 215.514 147.779C213.284 147.235 210.965 147.165 208.707 147.573C206.449 147.982 204.301 148.86 202.404 150.152C191.894 157.947 184.096 170.94 167.37 178.623C177.089 171.279 191.555 154.332 191.668 144.728C191.74 143.744 191.572 142.757 191.178 141.852C190.784 140.946 190.177 140.15 189.408 139.531C175.431 131.681 164.072 119.894 156.747 105.637L148.836 92.3054L153.131 87.8991C154.148 86.7693 155.391 85.1876 156.747 83.3799L166.579 99.7621C171.242 109.716 178.372 118.315 187.292 124.741C196.212 131.167 206.627 135.208 217.548 136.481C260.945 144.277 298.917 161.45 321.294 199.976C353.389 255.563 330.787 328.774 270.777 363.346C210.767 397.918 136.292 380.971 104.196 325.385C81.5936 286.745 86.001 245.168 100.919 203.817C105.229 193.781 106.92 182.814 105.833 171.946C104.746 161.077 100.916 150.663 94.7031 141.678Z" fill="url(#paint8_radial_41_1298)"/>
<path style="mix-blend-mode:screen" fill-rule="evenodd" clip-rule="evenodd" d="M109.734 147.44C113.662 161.32 114.625 175.871 112.56 190.147C110.348 205.974 107.254 221.665 103.293 237.147C110.692 221.561 116.668 205.339 121.148 188.678C120.604 174.246 116.737 160.134 109.847 147.44H109.734Z" fill="url(#paint9_linear_41_1298)"/>
<path style="mix-blend-mode:screen" opacity="0.5" fill-rule="evenodd" clip-rule="evenodd" d="M120.697 103.829L94.8173 118.517C115.386 154.106 143.639 176.25 157.878 168.002C172.118 159.755 167.145 124.166 146.577 88.9159L120.697 103.942V103.829Z" fill="url(#paint10_radial_41_1298)"/>
<path style="mix-blend-mode:screen" opacity="0.5" fill-rule="evenodd" clip-rule="evenodd" d="M129.964 97.5024L117.984 105.298C132.111 127.894 148.837 142.921 155.392 139.192C161.946 135.464 155.957 113.094 141.83 90.3846L129.964 98.0673V97.5024Z" fill="url(#paint11_radial_41_1298)"/>
<path style="mix-blend-mode:screen" fill-rule="evenodd" clip-rule="evenodd" d="M254.165 187.435C256.651 184.95 259.816 181.899 263.206 182.125C275.863 182.125 291.007 198.281 297.11 207.885C305.151 218.453 310.401 230.875 312.376 244.005C314.351 257.136 312.988 270.552 308.411 283.017C305.36 289.909 285.809 302.224 284.791 297.704C284.966 285.916 282.209 274.27 276.768 263.81C268.793 250.05 258.058 238.087 245.237 228.673C232.919 219.183 232.128 216.019 236.761 209.24C242.061 201.335 247.875 193.787 254.165 186.644V187.435ZM199.58 170.149C186.696 184.498 187.261 192.745 193.138 199.524C204.439 212.065 221.843 206.19 233.145 192.18C244.446 178.171 246.593 170.714 240.603 164.387C231.675 155.01 212.463 155.914 199.58 170.149Z" fill="url(#paint12_radial_41_1298)"/>
<g style="mix-blend-mode:screen">
<path fill-rule="evenodd" clip-rule="evenodd" d="M207.04 171.279C210.009 167.395 214.334 164.773 219.152 163.936C223.969 163.098 228.925 164.106 233.032 166.76C236.649 170.375 235.067 174.894 227.608 183.594C220.149 192.293 208.848 196.248 202.293 189.017C199.241 185.176 199.129 180.204 207.04 171.279ZM264.45 190.599C265.919 189.695 267.614 189.695 270.327 190.599C278.513 195.63 285.619 202.235 291.234 210.031C297.98 218.429 302.802 228.204 305.36 238.667C307.918 249.13 308.15 260.027 306.039 270.589C305.361 272.623 303.891 276.577 301.744 277.368C299.597 278.159 299.823 277.368 299.258 274.317C297.506 267.14 294.646 260.279 290.782 253.981C281.593 239.307 269.751 226.471 255.861 216.132C251.228 212.63 250.323 210.483 250.775 208.563C254.881 202.093 259.654 196.073 265.015 190.599H264.45Z" fill="url(#paint13_radial_41_1298)"/>
</g>
<path style="mix-blend-mode:screen" opacity="0.5" fill-rule="evenodd" clip-rule="evenodd" d="M132.337 97.5025L126.235 101.683C135.728 117.952 146.238 129.25 149.628 126.878C153.019 124.505 148.046 109.591 138.327 92.9833L132.224 97.1636L132.337 97.5025Z" fill="url(#paint14_radial_41_1298)"/>
<g style="mix-blend-mode:multiply" opacity="0.5">
<path fill-rule="evenodd" clip-rule="evenodd" d="M94.8173 141.904C98.3207 147.892 115.046 139.757 132.111 123.714C149.176 107.671 160.365 89.8197 156.974 83.9447C138.319 105.302 113.061 119.816 85.2111 125.183L94.93 142.017L94.8173 141.904Z" fill="#7F8E99"/>
</g>
<path fill-rule="evenodd" clip-rule="evenodd" d="M67.806 126.313C74.8128 134.108 100.354 128.798 126.46 113.772C152.566 98.7453 169.97 79.1996 166.692 69.1443C162.607 59.1659 156.792 49.9866 149.514 42.0289L101.145 69.8222L52.8883 97.7285C56.1229 108.067 61.1745 117.746 67.806 126.313ZM67.806 96.1467L103.857 75.3583L139.908 54.5698C141.809 56.8845 143.475 59.3824 144.881 62.0265C158.442 85.7525 85.5492 127.781 71.8747 104.281C70.2727 101.7 68.9107 98.9768 67.806 96.1467Z" fill="url(#paint15_radial_41_1298)"/>
<path opacity="0.15" fill-rule="evenodd" clip-rule="evenodd" d="M71.4237 104.959C69.5702 101.978 67.9818 98.8404 66.677 95.5818L103.858 74.0025L141.153 52.649C143.338 55.3649 145.268 58.2772 146.916 61.3486C161.495 86.6563 86.0024 130.267 71.4237 104.959Z" fill="white"/>
<path fill-rule="evenodd" clip-rule="evenodd" d="M81.481 105.524C85.3234 110.043 100.806 106.541 116.967 97.1635C133.128 87.7861 143.073 77.0529 142.056 71.2909C140.095 65.8046 137.793 60.4464 135.162 55.2477L71.4227 91.9664C74.5302 96.6624 77.888 101.188 81.481 105.524Z" fill="#8E633F"/>
<path style="mix-blend-mode:screen" fill-rule="evenodd" clip-rule="evenodd" d="M211.333 374.87C246.819 377.921 296.77 352.274 310.332 318.38C285.712 349.102 250.314 369.301 211.333 374.87Z" fill="url(#paint16_linear_41_1298)"/>
<path fill-rule="evenodd" clip-rule="evenodd" d="M174.152 366.058C155.72 358.741 139.375 346.997 126.562 331.863C113.75 316.729 104.865 298.672 100.694 279.289C101.937 325.498 130.416 360.07 174.152 366.058Z" fill="white"/>
<path style="mix-blend-mode:screen" fill-rule="evenodd" clip-rule="evenodd" d="M158.669 79.6515C160.364 70.9519 147.367 53.3269 142.056 45.7572L149.515 41.5769C156.792 49.5346 162.607 58.7138 166.692 68.6923C169.744 78.0697 155.391 95.3558 132.224 109.817C142.847 102.135 156.634 90.1587 158.669 79.1995V79.6515Z" fill="url(#paint17_radial_41_1298)"/>
<path fill-rule="evenodd" clip-rule="evenodd" d="M92.2174 54.3439C65.5464 69.7092 47.9163 89.1419 52.8889 97.7285C57.8614 106.315 83.4024 100.892 110.186 85.4136C136.97 69.9352 154.375 50.6155 149.515 42.0289C144.655 33.4424 118.888 38.9785 92.2174 54.3439Z" fill="url(#paint18_radial_41_1298)"/>
<path fill-rule="evenodd" clip-rule="evenodd" d="M65.6601 101.683C82.239 100.623 98.2695 95.3332 112.221 86.3174C118.169 82.9586 123.872 79.1831 129.286 75.0193C129.928 75.8834 130.749 76.5984 131.693 77.1153C132.637 77.6322 133.681 77.9387 134.755 78.0138C135.829 78.089 136.906 77.9309 137.913 77.5506C138.919 77.1702 139.832 76.5765 140.588 75.8102C142.519 74.0279 143.842 71.6839 144.37 69.1093C144.897 66.5347 144.602 63.8595 143.526 61.4616C149.742 54.0049 152.341 47.339 149.855 43.0457L149.29 42.2549C152.454 50.7284 134.259 69.5962 107.588 84.9616C94.5909 92.8613 80.3904 98.5857 65.5473 101.909L65.6601 101.683Z" fill="white"/>
<path fill-rule="evenodd" clip-rule="evenodd" d="M68.1456 87.4472C72.327 92.3054 88.9401 88.464 106.118 78.5217C123.296 68.5794 134.145 56.9424 133.015 50.7284C126.481 33.6287 118.661 17.0484 109.621 1.12988L44.9781 56.2645C52.776 66.9977 59.8958 77.7308 67.5807 87.4472H68.1456Z" fill="#8E633F"/>
<path style="mix-blend-mode:screen" fill-rule="evenodd" clip-rule="evenodd" d="M67.8059 81.1202C71.5353 85.4135 86.792 81.7981 102.727 72.5337C118.662 63.2693 128.607 52.7621 127.703 47.226C122.022 32.0547 115.144 17.3586 107.134 3.27649L48.1418 53.5529C55.1486 63.1563 60.3471 72.4207 67.8059 81.1202Z" fill="url(#paint19_radial_41_1298)"/>
<path style="mix-blend-mode:screen" fill-rule="evenodd" clip-rule="evenodd" d="M78.8815 30.7308C91.991 53.327 104.535 64.6251 114.594 56.8294C124.652 49.0337 118.662 28.1323 105.326 5.53613L78.6556 31.2957L78.8815 30.7308Z" fill="url(#paint20_radial_41_1298)"/>
<path fill-rule="evenodd" clip-rule="evenodd" d="M105.327 48.6947C103.239 48.8665 101.294 49.8262 99.8878 51.3789C98.4816 52.9316 97.7189 54.961 97.7547 57.0553C97.643 59.2247 98.1595 61.3802 99.2418 63.2638C100.324 65.1474 101.927 66.6791 103.857 67.6755C107.361 68.8053 111.429 62.8173 112.333 57.2812C113.238 51.7452 109.734 47.7908 105.327 48.6947Z" fill="url(#paint21_linear_41_1298)"/>
<path fill-rule="evenodd" clip-rule="evenodd" d="M64.0766 63.0434C63.122 65.2916 62.9717 67.8 63.651 70.1461C64.3303 72.4921 65.7976 74.5324 67.8059 75.9232C69.7367 76.9533 71.9589 77.3018 74.1125 76.9122C76.2661 76.5226 78.2251 75.4178 79.6724 73.7766C81.9327 71.065 79.6723 65.9809 75.7169 63.0434C71.7615 60.1059 66.2238 59.7669 64.4156 63.0434H64.0766Z" fill="url(#paint22_linear_41_1298)"/>
<g style="mix-blend-mode:screen" opacity="0.25">
<path fill-rule="evenodd" clip-rule="evenodd" d="M72.1009 19.5457C90.5219 5.31009 106.909 -3.95432 110.412 2.03366C112.221 5.19712 110.412 11.75 105.44 19.4327C107.045 21.4365 107.919 23.927 107.919 26.494C107.919 29.061 107.045 31.5514 105.44 33.5553C103.889 35.575 101.643 36.9473 99.1373 37.4065C96.6319 37.8657 94.0451 37.3791 91.8781 36.0409C89.8439 38.0745 87.5836 39.9952 85.2104 42.0288C66.3372 57.5072 49.2725 63.1563 45.091 56.2644C40.9095 49.3726 53.6798 33.8942 72.1009 19.5457Z" fill="#EDCAA6"/>
</g>
<path fill-rule="evenodd" clip-rule="evenodd" d="M71.4223 18.303C53.3403 33.3294 41.474 50.2765 44.9774 56.2645C48.4808 62.2525 65.8845 55.0217 83.9666 40.1083C102.049 25.1948 113.802 8.13471 110.412 2.03375C107.021 -4.06721 89.3913 3.3895 71.4223 18.303Z" fill="#936E4E"/>
<path style="mix-blend-mode:screen" fill-rule="evenodd" clip-rule="evenodd" d="M77.1872 15.1394C62.3826 27.4543 52.6633 41.4639 55.4886 46.4351C58.3139 51.4062 72.6665 45.4182 87.5842 33.1033C102.502 20.7884 112.108 6.77882 109.283 1.80767C106.457 -3.16348 92.1049 2.8245 77.1872 15.1394Z" fill="url(#paint23_radial_41_1298)"/>
<path fill-rule="evenodd" clip-rule="evenodd" d="M86.7929 10.3943C81.1422 14.5746 77.5261 19.4328 78.5432 21.6924C79.5603 23.952 84.9849 21.6924 90.5225 17.3991C96.0601 13.1059 99.9025 8.36067 98.8853 6.10106C97.8682 3.84144 92.4435 6.10107 86.7929 10.3943Z" fill="url(#paint24_linear_41_1298)"/>
<path fill-rule="evenodd" clip-rule="evenodd" d="M74.5882 32.1995C70.6328 35.137 68.1466 38.8654 69.0507 40.4471C69.9548 42.0289 73.91 40.4471 77.9785 37.9615C82.0469 35.476 84.5332 31.1827 83.6291 29.601C82.725 28.0193 78.6567 29.601 74.5882 32.1995Z" fill="url(#paint25_linear_41_1298)"/>
<path fill-rule="evenodd" clip-rule="evenodd" d="M54.4705 39.4303C50.063 43.0457 47.2379 47.4519 48.255 49.2596C49.2721 51.0673 53.9054 49.2596 58.3129 46.0961C62.7204 42.9327 65.546 37.9615 64.5288 36.1538C63.5117 34.3461 58.991 36.1538 54.4705 39.4303Z" fill="url(#paint26_linear_41_1298)"/>
<path fill-rule="evenodd" clip-rule="evenodd" d="M93.2344 34.0072C95.0193 35.0343 97.1382 35.3137 99.1285 34.7845C101.119 34.2553 102.819 32.9605 103.858 31.1827C107.248 26.8895 107.248 21.9183 104.536 19.8846C101.823 17.851 96.5117 19.8846 93.2344 24.0649C89.957 28.2452 90.296 32.0865 93.2344 34.1202V34.0072Z" fill="url(#paint27_linear_41_1298)"/>
<path style="mix-blend-mode:screen" fill-rule="evenodd" clip-rule="evenodd" d="M114.369 299.286C119.459 312.435 127.23 324.381 137.186 334.367C147.142 344.352 159.067 352.159 172.203 357.291C185.339 362.422 199.398 364.767 213.489 364.176C227.58 363.584 241.393 360.07 254.053 353.856C202.331 353.626 152.543 334.175 114.369 299.286Z" fill="url(#paint28_radial_41_1298)"/>
</g>
<defs>
<radialGradient id="paint0_radial_41_1298" cx="0" cy="0" r="1" gradientUnits="userSpaceOnUse" gradientTransform="translate(207.863 214.958) rotate(-180) scale(208.056 207.998)">
<stop stop-color="#009DFF"/>
<stop offset="0.13" stop-color="#007ECD"/>
<stop offset="0.31" stop-color="#005890"/>
<stop offset="0.48" stop-color="#00395C"/>
<stop offset="0.64" stop-color="#002034"/>
<stop offset="0.78" stop-color="#000F18"/>
<stop offset="0.91" stop-color="#000406"/>
<stop offset="1"/>
</radialGradient>
<radialGradient id="paint1_radial_41_1298" cx="0" cy="0" r="1" gradientUnits="userSpaceOnUse" gradientTransform="translate(351.921 253.529) rotate(180) scale(195.286 195.231)">
<stop stop-color="white"/>
<stop offset="1" stop-color="#5E689E"/>
</radialGradient>
<radialGradient id="paint2_radial_41_1298" cx="0" cy="0" r="1" gradientUnits="userSpaceOnUse" gradientTransform="translate(252.357 289.344) rotate(180) scale(159.235 159.19)">
<stop stop-color="#4FC7FF"/>
<stop offset="1" stop-color="#0064B0"/>
</radialGradient>
<radialGradient id="paint3_radial_41_1298" cx="0" cy="0" r="1" gradientUnits="userSpaceOnUse" gradientTransform="translate(250.774 261.664) rotate(180) scale(203.536 203.478)">
<stop stop-color="#00AEFF"/>
<stop offset="0.61" stop-color="#003F7A"/>
<stop offset="0.89" stop-color="#00ABFA"/>
</radialGradient>
<radialGradient id="paint4_radial_41_1298" cx="0" cy="0" r="1" gradientUnits="userSpaceOnUse" gradientTransform="translate(241.395 309.793) rotate(180) scale(191.105 191.05)">
<stop stop-color="#007FE7"/>
<stop offset="1"/>
</radialGradient>
<radialGradient id="paint5_radial_41_1298" cx="0" cy="0" r="1" gradientUnits="userSpaceOnUse" gradientTransform="translate(281.401 316.685) rotate(180) scale(166.016 165.969)">
<stop stop-color="#00A9E7"/>
<stop offset="1"/>
</radialGradient>
<radialGradient id="paint6_radial_41_1298" cx="0" cy="0" r="1" gradientUnits="userSpaceOnUse" gradientTransform="translate(229.415 233.757) rotate(180) scale(135.728 135.69)">
<stop stop-color="#1DE4E7"/>
<stop offset="1"/>
</radialGradient>
<radialGradient id="paint7_radial_41_1298" cx="0" cy="0" r="1" gradientUnits="userSpaceOnUse" gradientTransform="translate(261.963 245.507) rotate(180) scale(124.653 124.618)">
<stop stop-color="#1DE4E7"/>
<stop offset="1"/>
</radialGradient>
<radialGradient id="paint8_radial_41_1298" cx="0" cy="0" r="1" gradientUnits="userSpaceOnUse" gradientTransform="translate(226.589 140.435) rotate(180) scale(441.541 441.416)">
<stop stop-color="#CCF0EF"/>
<stop offset="1" stop-color="#5E73E6"/>
</radialGradient>
<linearGradient id="paint9_linear_41_1298" x1="118.549" y1="147.44" x2="94.8294" y2="307.423" gradientUnits="userSpaceOnUse">
<stop stop-color="white"/>
<stop offset="1"/>
</linearGradient>
<radialGradient id="paint10_radial_41_1298" cx="0" cy="0" r="1" gradientUnits="userSpaceOnUse" gradientTransform="translate(204.666 77.1659) rotate(180) scale(130.982 130.945)">
<stop stop-color="white"/>
<stop offset="1"/>
</radialGradient>
<radialGradient id="paint11_radial_41_1298" cx="0" cy="0" r="1" gradientUnits="userSpaceOnUse" gradientTransform="translate(162.963 94.452) rotate(180) scale(70.407 70.3871)">
<stop stop-color="white"/>
<stop offset="1"/>
</radialGradient>
<radialGradient id="paint12_radial_41_1298" cx="0" cy="0" r="1" gradientUnits="userSpaceOnUse" gradientTransform="translate(198.676 283.921) rotate(180) scale(189.41 189.356)">
<stop offset="0.37"/>
<stop offset="1" stop-color="white"/>
</radialGradient>
<radialGradient id="paint13_radial_41_1298" cx="0" cy="0" r="1" gradientUnits="userSpaceOnUse" gradientTransform="translate(214.385 262.906) rotate(180) scale(193.817 193.762)">
<stop/>
<stop offset="1" stop-color="white"/>
</radialGradient>
<radialGradient id="paint14_radial_41_1298" cx="0" cy="0" r="1" gradientUnits="userSpaceOnUse" gradientTransform="translate(151.097 100.327) rotate(180) scale(50.6299 50.6154)">
<stop stop-color="white"/>
<stop offset="1"/>
</radialGradient>
<radialGradient id="paint15_radial_41_1298" cx="0" cy="0" r="1" gradientUnits="userSpaceOnUse" gradientTransform="translate(143.638 41.69) rotate(180) scale(155.619 155.575)">
<stop stop-color="#CCF0EF"/>
<stop offset="1" stop-color="#364E82"/>
</radialGradient>
<linearGradient id="paint16_linear_41_1298" x1="315.192" y1="322.786" x2="214.625" y2="382.917" gradientUnits="userSpaceOnUse">
<stop stop-color="white"/>
<stop offset="1"/>
</linearGradient>
<radialGradient id="paint17_radial_41_1298" cx="0" cy="0" r="1" gradientUnits="userSpaceOnUse" gradientTransform="translate(119.566 85.1875) rotate(180) scale(60.6876 60.6707)">
<stop/>
<stop offset="1" stop-color="white"/>
</radialGradient>
<radialGradient id="paint18_radial_41_1298" cx="0" cy="0" r="1" gradientUnits="userSpaceOnUse" gradientTransform="translate(148.95 39.9953) rotate(180) scale(181.386 181.334)">
<stop stop-color="#F2FFFF"/>
<stop offset="1" stop-color="#6A79C2"/>
</radialGradient>
<radialGradient id="paint19_radial_41_1298" cx="0" cy="0" r="1" gradientUnits="userSpaceOnUse" gradientTransform="translate(107.361 17.3991) rotate(180) scale(76.2837 76.262)">
<stop stop-color="#CA9E67"/>
<stop offset="1"/>
</radialGradient>
<radialGradient id="paint20_radial_41_1298" cx="0" cy="0" r="1" gradientUnits="userSpaceOnUse" gradientTransform="translate(105.553 7.34383) rotate(180) scale(55.7152 55.6995)">
<stop stop-color="#CA9E67"/>
<stop offset="1"/>
</radialGradient>
<linearGradient id="paint21_linear_41_1298" x1="99.3369" y1="63.7211" x2="111.878" y2="51.2896" gradientUnits="userSpaceOnUse">
<stop stop-color="#B07A38"/>
<stop offset="1" stop-color="#704824"/>
</linearGradient>
<linearGradient id="paint22_linear_41_1298" x1="65.8848" y1="74.3415" x2="76.618" y2="63.7182" gradientUnits="userSpaceOnUse">
<stop stop-color="#B07A38"/>
<stop offset="1" stop-color="#704824"/>
</linearGradient>
<radialGradient id="paint23_radial_41_1298" cx="0" cy="0" r="1" gradientUnits="userSpaceOnUse" gradientTransform="translate(100.129 -19.0938) rotate(180) scale(82.0474 82.024)">
<stop stop-color="#CA9E67"/>
<stop offset="1"/>
</radialGradient>
<linearGradient id="paint24_linear_41_1298" x1="98.9984" y1="13.6708" x2="78.3171" y2="13.6708" gradientUnits="userSpaceOnUse">
<stop stop-color="#6B4E35"/>
<stop offset="1" stop-color="#87643A"/>
</linearGradient>
<linearGradient id="paint25_linear_41_1298" x1="83.7421" y1="35.0241" x2="68.8247" y2="35.0241" gradientUnits="userSpaceOnUse">
<stop stop-color="#6B4E35"/>
<stop offset="1" stop-color="#87643A"/>
</linearGradient>
<linearGradient id="paint26_linear_41_1298" x1="64.7549" y1="42.9327" x2="48.0289" y2="42.9327" gradientUnits="userSpaceOnUse">
<stop stop-color="#6B4E35"/>
<stop offset="1" stop-color="#87643A"/>
</linearGradient>
<linearGradient id="paint27_linear_41_1298" x1="92.5563" y1="33.5553" x2="105.436" y2="20.6718" gradientUnits="userSpaceOnUse">
<stop stop-color="#B07A38"/>
<stop offset="1" stop-color="#704824"/>
</linearGradient>
<radialGradient id="paint28_radial_41_1298" cx="0" cy="0" r="1" gradientUnits="userSpaceOnUse" gradientTransform="translate(198.111 275.221) rotate(180) scale(134.259 134.221)">
<stop stop-color="#1DE4E7"/>
<stop offset="1"/>
</radialGradient>
<clipPath id="clip0_41_1298">
<rect width="416" height="423" fill="white" transform="matrix(-1 0 0 1 416 0)"/>
</clipPath>
</defs>
</svg>
