<svg width="1920" height="1030" viewBox="0 0 1920 1030" fill="none" xmlns="http://www.w3.org/2000/svg">
<g clip-path="url(#clip0_119_186)">
<path d="M1411 741.5C1420.2 741.5 1434.17 745.167 1440 747L1427.5 801L1345 919L1141.5 998.5L967.5 970.5L807 872.5C789.167 847.667 755.2 796.9 762 792.5L714 766C717.333 764.833 727.2 762.6 740 763C752.8 763.4 774.334 775.833 783.5 782C786.3 781.6 800.334 786.5 807 789C808.5 788.5 812.3 787.5 815.5 787.5C818.7 787.5 826.834 789.5 830.5 790.5C844 789.333 872.8 787.1 880 787.5C889 788 901 792.5 902.5 794C904 795.5 913.5 792 916 792.5C918 792.9 920.5 795.333 921.5 796.5C935.334 803 963.9 816.6 967.5 819C972 822 983 812 988 812.5C992 812.9 994 815 994.5 816L998.5 807H1002.5L1031.5 796.5C1041.5 785 1062.2 761.3 1065 758.5C1068.5 755 1078 754 1086 754.5C1094 755 1101 749 1105 746.5C1108.2 744.5 1116 743.333 1119.5 743C1138.5 725.167 1180.7 689.5 1197.5 689.5C1218.5 689.5 1261 713.5 1269 713.5C1277 713.5 1269.5 710.5 1279 711C1288.5 711.5 1287.5 718 1299.5 722.5C1311.5 727 1308 723 1317.5 725C1327 727 1326 726 1332.5 729.5C1339 733 1349.5 726.5 1351 729.5C1356.5 733.5 1389.5 745.5 1395 747C1400.5 748.5 1399.5 741.5 1411 741.5Z" fill="#021024"/>
<path d="M17.5 757C11.9 756.6 0.5 759.167 -4.5 760.5L-31.5 804L-28 880V984.5L-24 1070L55.5 1129.5L371.5 1101L531.5 1159.5L805 1164.5L1134.5 1110L1138.5 1018.5L971 921L812.5 828.5L735.5 768C727.5 761.333 710.9 747.9 708.5 747.5C705.5 747 706.5 751 704 751C702 751 697.833 747.667 696 746C690.833 745.667 678.3 745 669.5 745C658.5 745 651 757.5 649 758C647 758.5 646.5 752 643.5 751C640.5 750 632.5 762 630.5 763.5C628.5 765 627 761 622.5 762C618 763 603.5 773.5 596.5 777.5C589.5 781.5 588.5 789 587 794C585.5 799 577 798.5 564 798.5C551 798.5 551 795 541 791.5C533 788.7 515 785 507 783.5C494 785.333 466.6 789 461 789C454 789 448.5 795.5 444.5 795C440.5 794.5 439 802.5 435.5 804C432.7 805.2 430.667 802.5 430 801L417 804C403.333 807.5 374.1 814.7 366.5 815.5C357 816.5 304.5 843 296 842.5C287.5 842 267 806.5 261 805C255 803.5 241 823.5 237 824C233 824.5 234 813.5 232 813C230 812.5 231.5 818.5 228.5 819C225.5 819.5 216.5 809 209.5 807.5C202.5 806 195 810.5 191.5 809C188 807.5 191 804 189.5 802C188.3 800.4 184.667 800.667 183 801C174.5 791.5 155 771.3 145 766.5C132.5 760.5 87 764 73 764H47.5C42 764 24.5 757.5 17.5 757Z" fill="#011126"/>
<path d="M768.5 836C698.5 781.6 672.667 777.667 668.5 782.5C657.167 784.5 634.5 790 634.5 796C634.5 803.5 590 821 560 840C530 859 450 881 425.5 889C401 897 391 920 328 949C277.6 972.2 141.333 989.667 79.5 995.5L226.5 1129L374 1137.5C440.833 1145.5 586.5 1161.5 634.5 1161.5H816.5C844.5 1161.5 978 1155 983.5 1154.5C989 1154 1165.5 1116 1172.5 1113C1178.1 1110.6 1186.83 1084.67 1190.5 1072L1149.5 990C1137 981 1108 961.5 1092 955.5C1072 948 1040.5 941.5 1016.5 943C992.5 944.5 934.5 925.5 920 925.5C905.5 925.5 871.5 874.5 855 862.5C838.5 850.5 791.5 856 768.5 836Z" fill="#050A1D"/>
<path d="M148 909C135.2 920.2 94 934.333 75 940L165.5 1136.5C236.333 1134.33 379.6 1129.9 386 1129.5C392.4 1129.1 678.667 1097.33 821 1081.5L801.5 1030L633 887.5C605.167 865.833 546.2 823.4 533 827C516.5 831.5 484.5 832 448 834.5C411.5 837 316 897.5 289.5 902.5C263 907.5 234.5 878.5 221 878.5C207.5 878.5 164 895 148 909Z" fill="#0A0312"/>
<path d="M13.5 921.5C-4.9 922.3 -15.8333 909.5 -19 903L-66 1074.5L13.5 1088C116 1085.17 318.1 1075.7 306.5 1060.5C292 1041.5 227 1011.5 185 1003C143 994.5 122.5 953 99.5 933C76.5 913 36.5 920.5 13.5 921.5Z" fill="#0D000D"/>
<path d="M1051 987C997 989.8 884.5 1026.5 835 1044.5L1920.5 1044.5V655.5C1891.83 657.667 1827.3 662.3 1798.5 663.5C1769.7 664.7 1766.5 672.333 1768.5 676C1718.67 672.5 1613.9 665.9 1593.5 667.5C1568 669.5 1565.5 682.5 1537.5 701C1509.5 719.5 1459 731.5 1427 740C1395 748.5 1390.5 783.5 1340.5 824C1300.5 856.4 1252.5 877.167 1233.5 883.5C1195.17 916.833 1105 984.2 1051 987Z" fill="#0D000D"/>
</g>
<defs>
<clipPath id="clip0_119_186">
<rect width="1922" height="1093" fill="white" transform="translate(-2 -55)"/>
</clipPath>
</defs>
</svg>
